<svg id="abab46f7-3efd-4adc-b53a-12326bf6ad26" data-name="Layer 1" xmlns="http://www.w3.org/2000/svg" viewBox="0 0 1178.08 53.32"><defs><style>.\37 8bfccb4-4fbc-4f4f-b7a9-0175c1da0aa5{fill:#fff;}</style></defs><title>Artboard 1frictions2</title><path class="78bfccb4-4fbc-4f4f-b7a9-0175c1da0aa5" d="M0,2.91l45.4-.1,0,16.33L33.6,5.52l-15.11,0,.06,24.62,26.15-.06v2.61l-26.15.06,0,14.57,6.15,5.35L.11,52.76l6.12-5.61L6.15,8.57Z"/><path class="78bfccb4-4fbc-4f4f-b7a9-0175c1da0aa5" d="M49.84,2.8l28.07-.06C91.18,2.71,96.64,9,96.66,17.11c0,6.59-3.5,11.36-10.94,12.14v.84c1.54,1.91,3.54,6,5.54,9.65l4.16,7.74,7.22,5L78,52.59l3.52-4.3L73.76,31.35H68.39l0,15.88,6.15,5.35L50,52.65,56.08,47,56,8.46ZM73,28.67c10.51,0,10.64-7.62,10.64-10.84,0-4.52-.33-12.5-10.46-12.48H68.33l.05,23.31Z"/><path class="78bfccb4-4fbc-4f4f-b7a9-0175c1da0aa5" d="M103.68,2.68l24.62-.06L122.17,8l.09,39.11,6.15,5.35-24.62.06,6.12-5.61-.09-38.58Z"/><path class="78bfccb4-4fbc-4f4f-b7a9-0175c1da0aa5" d="M161,50.48,175.15,34l0,16.33a41.27,41.27,0,0,1-15.71,3c-16.79,0-27.63-8.22-27.67-25.25,0-17.25,11.06-26.41,28.09-26.45a52,52,0,0,1,15,2l0,15.57L161.43,4.46c-7.9.71-16.63,5.48-16.59,22.82C144.88,44.15,153.17,49.58,161,50.48Z"/><path class="78bfccb4-4fbc-4f4f-b7a9-0175c1da0aa5" d="M179.33,20.37l0-17.87,45.79-.1,0,17.87L213,5.11h-4.68l.09,41.8,6.15,5.35L190,52.33l6.12-5.61L196,5.15h-4.75Z"/><path class="78bfccb4-4fbc-4f4f-b7a9-0175c1da0aa5" d="M227.75,2.4l24.62-.06-6.12,5.38.09,39.11,6.15,5.35-24.62.06L234,46.63,233.9,8.06Z"/><path class="78bfccb4-4fbc-4f4f-b7a9-0175c1da0aa5" d="M282.58,1.35c15.57,0,26.94,9.14,27,25.4,0,16.79-12,26.25-26.86,26.29-14.65,0-26.86-8.68-26.9-25.55C255.76,11.77,267.78,1.38,282.58,1.35Zm.11,49c8.67,0,13.87-6.7,13.83-23.58C296.48,9.22,291.25,4,282.59,4S268.8,11.2,268.83,27.46C268.87,44.33,274,50.38,282.69,50.36Z"/><path class="78bfccb4-4fbc-4f4f-b7a9-0175c1da0aa5" d="M312.87,2.2l19.56,0,28.31,39.2h.46L361.13,12,347.69,2.12l24.62-.06-8.49,9.84.09,40-10.81,0L325.24,12.37h-.46l.07,29.83L337.6,52,313,52.05l9.18-9.84-.07-32.82Z"/><path class="78bfccb4-4fbc-4f4f-b7a9-0175c1da0aa5" d="M377.44,36.34l13.83,13.77h1.84c10.51,0,10.5-5.24,10.49-8.61,0-14.34-27.17-7.07-27.2-24.56,0-9.43,7.79-15.82,20.29-15.84a67.81,67.81,0,0,1,17,2l0,14.8L400.14,3.84c-.92,0-1.76-.07-2.61-.07-8.28,0-9.35,4.85-9.34,7.46,0,12.81,28.31,6.15,28.36,26,0,12.65-11.39,15.52-23.13,15.54a46.77,46.77,0,0,1-16-2.42Z"/><path class="78bfccb4-4fbc-4f4f-b7a9-0175c1da0aa5" d="M430.77,51.78l8.72-8.84L451.83,5.88,446,1.9l20.55,0,15.36,45.06,5.53,4.74-24.62.06,5.82-5.31L465.4,36.14l-21.09,0-2.06,6.37,11.6,9.18ZM445.22,33.5l19.33,0L456.9,9.24l-3.15-2.06Z"/><path class="78bfccb4-4fbc-4f4f-b7a9-0175c1da0aa5" d="M486.71,1.81l19.56,0L534.58,41H535L535,11.59,521.53,1.73l24.62-.06-8.49,9.83.09,40-10.81,0L499.08,12h-.46l.07,29.83,12.75,9.79-24.62.06L496,41.82,495.93,9Z"/><path class="78bfccb4-4fbc-4f4f-b7a9-0175c1da0aa5" d="M549.13,1.67l29.3-.07c16.11,0,25.1,8.46,25.13,24.87,0,16.64-9.38,24.95-25,25l-29.3.07,6.12-5.61-.09-38.58Zm24.11,47.19c10.35,0,17.94-3.57,17.89-22.36,0-16.18-6.11-22.3-18-22.28h-5.52l.1,44.63Z"/><path class="78bfccb4-4fbc-4f4f-b7a9-0175c1da0aa5" d="M625.28,35.77l13.84,13.77H641c10.51,0,10.5-5.24,10.49-8.61,0-14.34-27.17-7.07-27.21-24.56C624.22,6.94,632,.56,644.53.53a67.8,67.8,0,0,1,17,2l0,14.8L648,3.28c-.92,0-1.76-.07-2.61-.07-8.28,0-9.35,4.85-9.34,7.46,0,12.81,28.31,6.15,28.36,26,0,12.65-11.39,15.52-23.13,15.54a46.78,46.78,0,0,1-16-2.42Z"/><path class="78bfccb4-4fbc-4f4f-b7a9-0175c1da0aa5" d="M693.11,51.19l-24.62.06,6.12-5.61-.09-38.58L668.38,1.4,693,1.34l-6.12,5.38,0,16.57,21.78,0,0-16.26-6.15-5.66,24.62-.06L721,6.64l.09,39.11,6.15,5.35-24.62.06,6.12-5.61,0-19.63-21.78,0,0,19.86Z"/><path class="78bfccb4-4fbc-4f4f-b7a9-0175c1da0aa5" d="M730.65,1.26l24.62-.06-6.12,5.38.09,39.11L755.38,51l-24.62.06,6.12-5.61L736.8,6.92Z"/><path class="78bfccb4-4fbc-4f4f-b7a9-0175c1da0aa5" d="M758.79,1.19l45.4-.1,0,16.33L792.39,3.8l-15.11,0,.05,24.62,26.15-.06V31l-26.15.06,0,14.57L783.52,51,758.9,51,765,45.43l-.09-38.58Z"/><path class="78bfccb4-4fbc-4f4f-b7a9-0175c1da0aa5" d="M807.83,18.95l0-17.87L853.57,1l0,17.87L841.54,3.69h-4.68l.1,41.8,6.15,5.35-24.62.06,6.12-5.61-.1-41.57h-4.75Z"/><path class="78bfccb4-4fbc-4f4f-b7a9-0175c1da0aa5" d="M858.4,35.25,872.24,49h1.84c10.51,0,10.5-5.24,10.49-8.61,0-14.34-27.17-7.07-27.21-24.56C857.34,6.41,865.15,0,877.65,0a67.8,67.8,0,0,1,17,2l0,14.8L881.11,2.75c-.92,0-1.76-.07-2.61-.07-8.28,0-9.35,4.85-9.34,7.46,0,12.81,28.31,6.15,28.36,26,0,12.65-11.39,15.52-23.13,15.54a46.78,46.78,0,0,1-16-2.42Z"/><path class="78bfccb4-4fbc-4f4f-b7a9-0175c1da0aa5" d="M916.83.83,941.45.78l-6.12,5.38.09,39.11,6.15,5.35-24.62.06,6.12-5.61L923,6.49Z"/><path class="78bfccb4-4fbc-4f4f-b7a9-0175c1da0aa5" d="M945,.77l19.56,0,28.31,39.2h.46l-.07-29.37L979.79.69l24.62-.06-8.49,9.84.09,40-10.81,0L957.35,10.94h-.46L957,40.77l12.75,9.79-24.62.06,9.18-9.84L954.2,8Z"/><path class="78bfccb4-4fbc-4f4f-b7a9-0175c1da0aa5" d="M1022.73.59,1050.8.53c13.27,0,18.73,6.25,18.74,14.37,0,6.59-3.5,11.36-10.94,12.14v.84c1.54,1.91,3.54,6,5.54,9.65l4.16,7.74,7.22,5-24.62.06,3.52-4.3-7.79-16.93h-5.37l0,15.88,6.15,5.35-24.62.06,6.12-5.61-.09-38.58Zm23.14,25.87c10.51,0,10.64-7.62,10.63-10.84,0-4.52-.33-12.5-10.46-12.48h-4.83l.05,23.31Z"/><path class="78bfccb4-4fbc-4f4f-b7a9-0175c1da0aa5" d="M1075.23,18.34l0-17.87L1121,.37l0,17.87L1108.94,3.08h-4.68l.09,41.8,6.15,5.35-24.62.06,6.12-5.61-.09-41.57h-4.76Z"/><path class="78bfccb4-4fbc-4f4f-b7a9-0175c1da0aa5" d="M1123.65.36l29.3-.07c16.11,0,25.1,8.46,25.13,24.87,0,16.64-9.38,24.95-25,25l-29.3.07,6.12-5.61L1129.8,6Zm24.11,47.19c10.35,0,17.94-3.57,17.89-22.36,0-16.18-6.11-22.3-18-22.28h-5.52l.1,44.63Z"/></svg>