<svg id="bc58f674-56d4-42f7-b436-2096526f940f" data-name="Layer 1" xmlns="http://www.w3.org/2000/svg" viewBox="0 0 792 224.67"><defs><style>.b48ae481-7567-4738-80ce-2bc86335b00d{fill:#fff;}</style></defs><title>Artboard 1</title><path class="b48ae481-7567-4738-80ce-2bc86335b00d" d="M40.76.79c-16.21,6.78-34,26-39.66,50C-6,81.29,23.64,94.18,26.07,90c2.86-5-5.32-6.65-7-22.47C16.9,47.06,26.39,24.23,38.35,14.22c2.22-1.87,2.11.73,2.11,5.52,0,8.56-.47,85.48-.47,101.53,0,21.72-.9,28.58-2.51,35.35s-4.25,11.51-2.27,13.3c2.23,2,11.71-2.76,17.2-10.42,6.59-9.2,8.9-20.24,9.31-32.23.5-14.45.48-37.38.5-50.46,0-12,.2-47.13-.21-68.25C61.91,3.38,47.54-2.06,40.76.78M616.39,102.43c-.52,11.3-3,20.12-6.13,26.35-6,12.05-18.46,15.79-23.75-1.53-2.89-9.45-3-25.22-1-38.4,2.11-13.42,8-23.56,17.76-22.65s14.13,13.31,13.07,36.23ZM454.15,172.49c-.13,18.76-3.08,35.21-9.41,40-9,6.78-21.05,1.69-18.55-12,2.21-12.11,12.67-24.48,28-39.6,0,0,0,3.45,0,11.61Zm-2.45-70.16c-.55,10.28-3.22,20.61-6.12,26.45-6,12.05-18.56,15.82-23.76-1.53-3.56-11.86-2.71-27.2-.95-36.87,2.29-12.54,7.82-24.18,17.76-24.18,9.67,0,14.43,10.61,13.07,36.13Zm-94-.16c-.59,10.89-2.72,20-6.13,26.61-6.17,12-18.37,15.76-23.76-1.53-3.88-12.47-2.55-29.48-.94-38.67,2.4-13.63,8.39-23.29,17.76-22.38,9.62.94,14.29,13.31,13.07,36Zm430.7,12.72c-2.35,0-3.42,2.42-4.31,6.5-3.08,14.19-6.32,17.39-10.49,17.39-4.66,0-8.85-7-9.93-21.08-.85-11.06-.71-31.42.37-51.67.22-4.16-.93-8.27-12.09-12.33-4.8-1.74-11.78-4.31-15.25,4.08-9.82,23.7-13.66,42.52-14.57,50.16,0,.4-.53.48-.62-.45a391.66,391.66,0,0,1-2-40.62c0-4.56-1-8.44-6-11.62-3.27-2.06-13.18-5.71-16.76-1.37-3.09,3.55-6.67,13.1-10.4,24.42-3,9.2-5.13,15.43-5.13,15.43s0-24.83.08-34.25a4.84,4.84,0,0,0-3.16-4.95c-3.31-1-9.82-2.56-12.59-2.56-3.41,0-4.25,1.91-4.25,4.69,0,.36-.54,32.68-.54,55.28,0,1,0,2.06,0,3.19-1.88,10.39-8,24.49-14.66,24.49s-9.81-5.89-9.81-32.84c0-15.71.47-22.55.7-33.92.14-6.55.4-11.57.38-12.72-.05-3.49-6.1-5.26-8.91-5.91a26.23,26.23,0,0,0-7.21-.8c-2.72.15-4.64,1.93-4.64,4.38,0,1.32,0,3.82,0,3.82-3.5-5.5-9.13-9.33-12.88-10.44-10.08-3-20.61-.34-28.55,10.77-6.31,8.83-10.11,18.82-11.61,33.19a98.77,98.77,0,0,0,1.21,30.15c-2.35,10.16-6.71,14.32-11.49,14.32-6.93,0-12-11.32-11.38-30.9.39-12.88,3-21.91,5.78-35,1.2-5.57.22-8.49-2.22-11.29-2.25-2.56-7-3.87-13.91-2.26-4.89,1.15-11.9,2.38-18.3,3.33a38.43,38.43,0,0,0,.7-4.26c1.67-14.26-13.83-13.1-18.78-8.55-2.95,2.72-5,5.93-5.72,11.7a13.77,13.77,0,0,0,6.26,13.46c-2.45,11.21-8.45,25.86-14.65,36.45a157.48,157.48,0,0,1-9.14,14.34c0-1.66,0-3.33,0-5-.07-23.57.24-42.12.38-48.81s.4-11.44.38-12.58c0-2.56-1.53-3.53-4.64-4.75a33,33,0,0,0-9.37-2.09c-4.25-.33-6.82,1.92-6.75,4.59,0,.51,0,3.6,0,3.6-3.5-5.5-9.12-9.33-12.87-10.44-10.08-3-20.61-.34-28.55,10.77-6.31,8.83-10.44,21.21-11.61,33.08-1.09,11.06-.89,20.45.6,28.37-1.6,7.92-6.21,16.21-11.43,16.21-6.66,0-10.46-5.89-10.46-32.84,0-15.71.48-22.55.71-33.92.13-6.54.39-11.57.38-12.71-.05-3.5-6.1-5.27-8.92-5.92a26.08,26.08,0,0,0-7.44-.79,4.79,4.79,0,0,0-4.39,4.22v4c-3.5-5.5-9.13-9.33-12.87-10.44C335,48.2,324.51,50.9,316.51,62c-5.22,7.22-9.44,15.21-11.61,32.92a109.92,109.92,0,0,0-.87,14.39C302,122,292.77,136.64,285.25,136.64c-4.39,0-8.58-8.52-8.58-26.7,0-24.21,1.5-58.68,1.75-62l11.33-.18c4.74,0,9,.06,15.33-.26,3.17-.16,6.21-11.52,2.95-12.92-1.48-.64-11.94-1.19-16.09-1.28-3.48-.08-13.19-.8-13.19-.8s.87-22.88,1.08-25.3c.17-2-2.44-3-3.93-3.68A54.19,54.19,0,0,0,265.16.46c-5.33-1.1-7.74,0-8.21,4.47-.71,6.82-1.08,26.79-1.08,26.79-3.91,0-17.26-.76-21.16-.76-3.63,0-7.55,15.62-2.53,15.81,5.77.22,15.84.42,22.51.62,0,0-.3,35-.3,45.85,0,1.15,0,2.26,0,3.33a52.94,52.94,0,0,1-16.61,29.49c2.78-12.67-2.9-22.18-13.12-30.23-3.77-3-11.2-8.58-19.52-14.74,0,0,4.82-4.74,9.09-14.3,3-6.76,3.16-14.51-4.27-16.21-12.28-2.83-22.4,6.19-25.42,15.82-2.34,7.45-1.09,13,3.49,18.73.33.42.7.85,1.07,1.29-2.77,5.34-6.58,12.53-9.8,18.11-8.95,15.48-15.71,27.73-20.82,27.73-4.09,0-4-12.44-4-24.08,0-10,.74-25.13,1.33-40.75.19-5.17-2.39-8.11-6.72-10.78-2.63-1.62-8.25-4.8-11.5-4.8-4.87,0-18.92.66-32.19,39.05-1.67,4.84-5,13.66-5,13.66l.29-46.17a3.21,3.21,0,0,0-1.9-2.84c-2.24-1.22-8.21-3.7-13.52-3.7-2.53,0-3.79,1.18-3.79,3.52L81,127.6c0,5.49.15,11.89.69,14.69a15.24,15.24,0,0,0,2.5,6.44,7.14,7.14,0,0,0,4.4,2.82c1.92.39,12.45,1.75,13-2.28.65-4.82.68-10,6.21-29.48,8.6-30.28,19.82-45.06,25.1-50.31.92-.91,2-1,1.92.53-.22,6.64-1,23.23-1.55,37.32-1.43,37.72,5.44,44.71,15.24,44.71,7.5,0,18.08-7.45,29.41-26.32,7.07-11.76,13.93-23.29,18.86-31.6,3.43,3.18,7.29,6.61,11.14,10.26,8.95,8.5,11.89,16.58,9.94,24.24-1.49,5.85-7.11,11.89-17.1,6-2.92-1.71-4.16-3-7.09-5-1.58-1-4-1.35-5.42-.26a19.34,19.34,0,0,0-7.11,10.85c-1.19,4.33,3.14,6.61,7.63,8.61,3.87,1.73,12.18,3.28,17.48,3.46,20.65.69,37.18-10,48.7-37.46,2.06,23.74,10.83,37.18,26.07,37.18,10.19,0,20.4-13.17,24.87-26.12a45.83,45.83,0,0,0,5.63,13.75c11.75,18.61,34.53,14.6,46-1.2,3.54-4.88,4.08-6.63,4.08-6.63,1.67,14.92,13.68,20.13,20.56,20.13,7.7,0,15.66-3.64,21.23-16.19a39.24,39.24,0,0,0,2.15,3.89c11.74,18.61,34.52,14.6,46-1.2.54-.74,1-1.41,1.42-2l.34,9.8-10.54,9.66c-17.63,16.18-31.05,28.46-32,42.75-1.27,18.23,13.52,25,24.7,25.89,11.88.95,22.05-5.62,28.3-14.8,5.5-8.08,9.1-25.48,8.84-42.66-.11-6.88-.28-15.62-.42-25a200.3,200.3,0,0,0,19.61-26.95c7-11.6,14.52-27.19,18.37-39.32,0,0,6.52.06,13.49-.4,2.23-.14,2.87.31,2.45,1.94-.49,2-8.79,34-1.22,55.32C530,147.31,541.7,152,548.63,152c8.11,0,15.87-6.13,20-15.22.5,1,1,2,1.6,2.9,11.74,18.6,34.44,14.58,46-1.2a46.68,46.68,0,0,0,4.07-6.64c2.47,15.44,14.48,20.21,21.36,20.21,7.16,0,14-2.93,19.48-16,.23,5.75.59,10.45,1.16,11.93.35.91,2.39,2.05,3.87,2.59,6.55,2.43,13.24,1.29,15.71.79,1.71-.35,3-1.73,3.23-5.27.48-9.32.19-25,3-36.61,4.74-19.53,9.17-27.1,11.27-30.85,1.17-2.11,2.49-2.45,2.54-.23.1,4.5.33,17.71,2.16,35.46,1.35,13.06,3.15,20.78,4.54,23.22,4,7,8.83,7.31,12.81,7.31,2.53,0,7.82-.7,7.34-5.14-.23-2.17.18-15.55,4.85-34.79a169,169,0,0,1,10-28.07c.68-1.53,1-.32,1-.08-.39,8.65-1.25,37,2.27,52.42,4.78,21,18.6,23.32,23.42,23.32,10.28,0,18.69-7.83,21.52-28.41.68-5-.33-8.77-3.36-8.77"/></svg>