<svg id="ac23538e-f77a-4d1c-bf8f-74295dfa45e2" data-name="Layer 1" xmlns="http://www.w3.org/2000/svg" viewBox="0 0 43.64 43.64"><defs><style>.\39 53560d2-7249-440e-b8ae-5588021b95de{fill:#fff;}</style></defs><title>Artboard 1instab</title><path id="09e2d31e-cf0e-406a-9ec8-c607e8b125dd" data-name="Instagram" class="953560d2-7249-440e-b8ae-5588021b95de" d="M38.45,0H5.19A5.18,5.18,0,0,0,0,5.18V38.46a5.18,5.18,0,0,0,5.19,5.17H38.45a5.18,5.18,0,0,0,5.19-5.17V5.18A5.18,5.18,0,0,0,38.45,0ZM33.27,5.86h3.8a1.36,1.36,0,0,1,1.36,1.36V11a1.36,1.36,0,0,1-1.36,1.36h-3.8A1.36,1.36,0,0,1,31.91,11V7.22A1.36,1.36,0,0,1,33.27,5.86ZM22.05,13.4a8.33,8.33,0,1,1-8.35,8.33A8.34,8.34,0,0,1,22.05,13.4ZM38.37,39.08H5.92a1.36,1.36,0,0,1-1.36-1.36V17.58H10A8.16,8.16,0,0,0,9,21.66a13.17,13.17,0,0,0,26.34,0,6.84,6.84,0,0,0-1-4.08h5.41V37.72A1.36,1.36,0,0,1,38.37,39.08Z"/></svg>