<svg id="2377f4e1-38c3-4cec-bf29-1f90fbf4800d" data-name="Layer 1" xmlns="http://www.w3.org/2000/svg" viewBox="0 0 813 60"><defs><style>.d217fc10-4037-463b-b848-7fa8a668b3cb{fill:#fff;}</style></defs><title>Artboard 1</title><path class="d217fc10-4037-463b-b848-7fa8a668b3cb" d="M394.48,24.72a2.9,2.9,0,0,0-1.15-.25c-.49,0-1.07.16-1.07.82,0,1.19,2.67.9,2.67,3,0,1.31-1,1.85-2.26,1.85a4.38,4.38,0,0,1-1.27-.25l.08-.82a3.64,3.64,0,0,0,1.27.29c.49,0,1.23-.29,1.23-1,0-1.4-2.67-1-2.67-3,0-1.11.86-1.68,2-1.68a4.87,4.87,0,0,1,1.31.21Z"/><path class="d217fc10-4037-463b-b848-7fa8a668b3cb" d="M398.13,25.34a2.22,2.22,0,0,1,2.3,2.38,2.3,2.3,0,1,1-4.6,0A2.22,2.22,0,0,1,398.13,25.34Zm0,4.11a1.54,1.54,0,0,0,1.44-1.68,1.46,1.46,0,1,0-2.87,0C396.74,28.54,397.15,29.45,398.13,29.45Z"/><path class="d217fc10-4037-463b-b848-7fa8a668b3cb" d="M404.54,26.2a2.81,2.81,0,0,0-.9-.21,1.55,1.55,0,0,0-1.48,1.68,1.53,1.53,0,0,0,1.52,1.68,1.76,1.76,0,0,0,.9-.25l.08.74a2.47,2.47,0,0,1-1.07.21,2.29,2.29,0,0,1-2.3-2.38,2.24,2.24,0,0,1,2.3-2.38,3.84,3.84,0,0,1,1,.16Z"/><path class="d217fc10-4037-463b-b848-7fa8a668b3cb" d="M406.72,24.44h-.94v-.94h.94Zm-.9,1h.82V30h-.82Z"/><path class="d217fc10-4037-463b-b848-7fa8a668b3cb" d="M408.48,25.79a2.84,2.84,0,0,1,1.48-.41c1.31,0,1.81.66,1.81,1.89v1.89a4.29,4.29,0,0,0,0,.9H411v-.57h0a1.69,1.69,0,0,1-1.4.7c-1,0-1.68-.41-1.68-1.4,0-1.15,1.23-1.48,2.09-1.48h.9c0-.78-.29-1.19-1.11-1.19a2,2,0,0,0-1.31.45ZM411,27.85h-.53c-.45,0-1.56.08-1.56.86a.79.79,0,0,0,.86.74A1.17,1.17,0,0,0,411,28.26v-.41Z"/><path class="d217fc10-4037-463b-b848-7fa8a668b3cb" d="M413.45,23.33h.82V30h-.82Z"/><path class="d217fc10-4037-463b-b848-7fa8a668b3cb" d="M421.38,24.72a2.9,2.9,0,0,0-1.15-.25c-.49,0-1.07.16-1.07.82,0,1.19,2.67.9,2.67,3,0,1.31-1,1.85-2.26,1.85a4.38,4.38,0,0,1-1.27-.25l.08-.82a3.64,3.64,0,0,0,1.27.29c.49,0,1.23-.29,1.23-1,0-1.4-2.67-1-2.67-3,0-1.11.86-1.68,2-1.68a4.87,4.87,0,0,1,1.31.21Z"/><path class="d217fc10-4037-463b-b848-7fa8a668b3cb" d="M425.89,26.2A2.81,2.81,0,0,0,425,26a1.55,1.55,0,0,0-1.48,1.68A1.53,1.53,0,0,0,425,29.37a1.76,1.76,0,0,0,.9-.25l.08.74a2.47,2.47,0,0,1-1.07.21,2.29,2.29,0,0,1-2.3-2.38A2.24,2.24,0,0,1,425,25.3a3.84,3.84,0,0,1,1,.16Z"/><path class="d217fc10-4037-463b-b848-7fa8a668b3cb" d="M428.07,24.44h-.94v-.94h.94Zm-.9,1H428V30h-.82Z"/><path class="d217fc10-4037-463b-b848-7fa8a668b3cb" d="M433.12,29.82a3.46,3.46,0,0,1-1.44.29,2.18,2.18,0,0,1-2.34-2.46,2.12,2.12,0,0,1,2.14-2.3c1.52,0,2,1.11,2,2.59h-3.24a1.48,1.48,0,0,0,1.48,1.52,2.79,2.79,0,0,0,1.4-.45Zm-.53-2.55A1.16,1.16,0,0,0,431.44,26c-.82,0-1.15.66-1.23,1.27Z"/><path class="d217fc10-4037-463b-b848-7fa8a668b3cb" d="M434.68,25.46h.82v.74h0a1.6,1.6,0,0,1,1.48-.82c1.19,0,1.68.74,1.68,2v2.71h-.82V27.72c0-1.07-.25-1.56-.94-1.6-.94,0-1.4.78-1.4,1.89V30.1h-.82V25.46Z"/><path class="d217fc10-4037-463b-b848-7fa8a668b3cb" d="M443.1,26.2a2.81,2.81,0,0,0-.9-.21,1.55,1.55,0,0,0-1.48,1.68,1.53,1.53,0,0,0,1.52,1.68,1.76,1.76,0,0,0,.9-.25l.08.74a2.47,2.47,0,0,1-1.07.21,2.29,2.29,0,0,1-2.3-2.38,2.24,2.24,0,0,1,2.3-2.38,3.84,3.84,0,0,1,1,.16Z"/><path class="d217fc10-4037-463b-b848-7fa8a668b3cb" d="M447.74,29.82a3.46,3.46,0,0,1-1.44.29A2.18,2.18,0,0,1,444,27.64a2.12,2.12,0,0,1,2.14-2.3c1.52,0,2,1.11,2,2.59h-3.24a1.48,1.48,0,0,0,1.48,1.52,2.79,2.79,0,0,0,1.4-.45Zm-.53-2.55A1.16,1.16,0,0,0,446.06,26c-.82,0-1.15.66-1.23,1.27Z"/><path class="d217fc10-4037-463b-b848-7fa8a668b3cb" d="M449,29.12a2.44,2.44,0,0,0,1,.33c.37,0,.86-.16.86-.66,0-.82-2-.74-2-2,0-.94.7-1.4,1.6-1.4a3.84,3.84,0,0,1,1,.16l-.08.74a2.51,2.51,0,0,0-.86-.25c-.41,0-.82.16-.82.53,0,.94,2,.66,2,2.09a1.41,1.41,0,0,1-1.6,1.4,2.55,2.55,0,0,1-1.23-.25Z"/><path class="d217fc10-4037-463b-b848-7fa8a668b3cb" d="M455.67,25.79a2.84,2.84,0,0,1,1.48-.41c1.31,0,1.81.66,1.81,1.89v1.89a4.29,4.29,0,0,0,0,.9h-.78v-.57h0a1.69,1.69,0,0,1-1.4.7c-1,0-1.68-.41-1.68-1.4,0-1.15,1.23-1.48,2.09-1.48h.9c0-.78-.29-1.19-1.11-1.19a2,2,0,0,0-1.31.45Zm2.46,2.05h-.53c-.45,0-1.56.08-1.56.86a.79.79,0,0,0,.86.74,1.17,1.17,0,0,0,1.27-1.19v-.41Z"/><path class="d217fc10-4037-463b-b848-7fa8a668b3cb" d="M460.47,25.46h.82v.74h0a1.6,1.6,0,0,1,1.48-.82c1.19,0,1.68.74,1.68,2v2.71h-.82V27.72c0-1.07-.25-1.56-.94-1.6-.94,0-1.4.78-1.4,1.89V30.1h-.82V25.46Z"/><path class="d217fc10-4037-463b-b848-7fa8a668b3cb" d="M469.26,29.37h0a1.89,1.89,0,0,1-1.56.74c-1.36,0-2-1.23-2-2.46a2,2,0,0,1,2-2.3,1.72,1.72,0,0,1,1.52.74h0V23.33H470V30h-.82v-.66Zm-1.4.08c.94,0,1.36-.94,1.36-1.68S468.77,26,467.87,26s-1.27.86-1.23,1.68S467,29.45,467.87,29.45Z"/><path class="d217fc10-4037-463b-b848-7fa8a668b3cb" d="M391.73,36.59h.9v2.59h3V36.59h.9v6.2h-.9V40h-3v2.83h-.9Z"/><path class="d217fc10-4037-463b-b848-7fa8a668b3cb" d="M402.12,42.79h-.82v-.74h0a1.6,1.6,0,0,1-1.48.82c-1.19,0-1.68-.74-1.68-2V38.24H399v2.34c0,1.07.25,1.56.94,1.6.94,0,1.4-.78,1.4-1.89V38.24h.82v4.56Z"/><path class="d217fc10-4037-463b-b848-7fa8a668b3cb" d="M403.64,38.24h.78v.66h0a1.54,1.54,0,0,1,1.44-.78,1.32,1.32,0,0,1,1.27.86,1.58,1.58,0,0,1,1.4-.86c1.15,0,1.56.74,1.56,1.72v2.92h-.82V40c0-.57-.12-1.27-.82-1.27-.86,0-1.19.82-1.19,1.68v2.3h-.82V40c0-.57-.12-1.27-.82-1.27-.86,0-1.19.82-1.19,1.68v2.3h-.82V38.24Z"/><path class="d217fc10-4037-463b-b848-7fa8a668b3cb" d="M411.89,38.56a2.84,2.84,0,0,1,1.48-.41c1.31,0,1.81.66,1.81,1.89v1.89a4.29,4.29,0,0,0,0,.9h-.78v-.57h0a1.69,1.69,0,0,1-1.4.7c-1,0-1.68-.41-1.68-1.4,0-1.15,1.23-1.48,2.09-1.48h.9c0-.78-.29-1.19-1.11-1.19a2,2,0,0,0-1.31.45Zm2.46,2.05h-.53c-.45,0-1.56.08-1.56.86a.79.79,0,0,0,.86.74A1.17,1.17,0,0,0,414.4,41v-.41Z"/><path class="d217fc10-4037-463b-b848-7fa8a668b3cb" d="M416.7,38.24h.82V39h0a1.6,1.6,0,0,1,1.48-.82c1.19,0,1.68.74,1.68,2v2.71h-.82V40.49c0-1.07-.25-1.56-.94-1.6-.94,0-1.4.78-1.4,1.89v2.09h-.82V38.24Z"/><path class="d217fc10-4037-463b-b848-7fa8a668b3cb" d="M423.27,37.25h-.94v-.94h.94Zm-.9,1h.82v4.56h-.82Z"/><path class="d217fc10-4037-463b-b848-7fa8a668b3cb" d="M427.25,38.93h-1.19v2.51a.73.73,0,0,0,.7.82,1.06,1.06,0,0,0,.57-.16v.7a3.53,3.53,0,0,1-.7.12c-.86,0-1.4-.41-1.4-1.31V38.93h-1v-.7h1V37.17l.82-.29v1.36h1.19Z"/><path class="d217fc10-4037-463b-b848-7fa8a668b3cb" d="M429.39,37.25h-.94v-.94h.94Zm-.9,1h.82v4.56h-.82Z"/><path class="d217fc10-4037-463b-b848-7fa8a668b3cb" d="M434.44,42.63a3.46,3.46,0,0,1-1.44.29,2.18,2.18,0,0,1-2.34-2.46,2.12,2.12,0,0,1,2.14-2.3c1.52,0,2,1.11,2,2.59h-3.24A1.48,1.48,0,0,0,433,42.26a2.79,2.79,0,0,0,1.4-.45Zm-.53-2.55a1.16,1.16,0,0,0-1.15-1.27c-.82,0-1.15.66-1.23,1.27Z"/><path class="d217fc10-4037-463b-b848-7fa8a668b3cb" d="M435.67,41.89a2.44,2.44,0,0,0,1,.33c.37,0,.86-.16.86-.66,0-.82-2-.74-2-2,0-.94.7-1.4,1.6-1.4a3.84,3.84,0,0,1,1,.16l-.08.74a2.51,2.51,0,0,0-.86-.25c-.41,0-.82.16-.82.53,0,.94,2,.66,2,2.09a1.41,1.41,0,0,1-1.6,1.4,2.55,2.55,0,0,1-1.23-.25Z"/><path class="d217fc10-4037-463b-b848-7fa8a668b3cb" d="M363.76,29.57V29c1.4-1,2.3-1.6,2.55-3a2.28,2.28,0,0,0-.53-1.81c-1.27-1.6-4.19-2.51-6.78-3-12.73-2.26-24.89,2.46-25.79,2.87v-.37c1.07-.62,14.95-6.32,28.3-4,2.59.45,5,1.19,6.32,2.87a2.51,2.51,0,0,1,.57,2.05c-.33,1.81-2.75,3.78-4.64,4.85"/><path class="d217fc10-4037-463b-b848-7fa8a668b3cb" d="M370.17,31.09a5.34,5.34,0,0,1,0,10.68,5.14,5.14,0,0,1-5.22-5.3,5.1,5.1,0,0,1,5.26-5.38m-.08-1.93a7,7,0,0,0-7.19,7.27,7,7,0,0,0,7.1,7.19,7.23,7.23,0,1,0,.08-14.46"/><polygon class="d217fc10-4037-463b-b848-7fa8a668b3cb" points="338.58 29.36 336.78 29.36 336.78 40.29 327.7 29.36 326.14 29.36 326.14 43.45 327.95 43.45 327.95 32.61 336.94 43.45 338.58 43.45 338.58 29.36"/><path class="d217fc10-4037-463b-b848-7fa8a668b3cb" d="M358.75,34.58c-1.93,3.37-9,10.31-9,10.31H349c2.3-4,3.12-10.35,3.33-10.47l0-.08a28.45,28.45,0,0,1-4.76,6.37,52.53,52.53,0,0,1-4.44,4.23h-.78c2.42-4.56,4-9.65,4-12.2,0-.74-.08-1.23-.49-1.23-.94,0-1.93,1.6-2.46,2.83h-.82c1-2.34,3.57-5.38,5.09-5.38.86,0,1.19,1.07,1.19,2,0,4.76-3.37,11-3.61,11.25,0,.08.12.08.12.08.16-.66,2.83-3,5.05-6.41s3.9-7.1,4.07-7.1.37.57.37,2.18a22.83,22.83,0,0,1-3.2,11.25.09.09,0,0,0,.08.08c.25-.53,2.55-2.83,4-4.76.53-.7,2.75-3.66,2.59-6.28a6.82,6.82,0,0,1,1.31-1.64s.7-.7,1.11-.7c.21,0,.21.53.21.53,0,1.6-1.72,4.35-2.18,5.17"/><rect class="d217fc10-4037-463b-b848-7fa8a668b3cb" x="383.72" y="19.1" width="0.41" height="28.46"/><path class="d217fc10-4037-463b-b848-7fa8a668b3cb" d="M493.33,30c.45,0,.9-.12,1.36-.12,1.36-.08,2.71-.16,4.07-.16a11.82,11.82,0,0,1,3.61.49A4.59,4.59,0,0,1,505,32.24a4.74,4.74,0,0,1,.62,2.22A7.34,7.34,0,0,1,505.4,37a5,5,0,0,1-3.33,3.29,9.83,9.83,0,0,1-2.67.45h-1.52c-.21,0-.25,0-.25.25v2.87c0,.16,0,.25-.25.25h-4.07C493.33,39.34,493.33,34.66,493.33,30Zm4.27,5.26V38c0,.12,0,.21.16.21.53,0,1,0,1.56-.08a2.45,2.45,0,0,0,2.05-1.89,4.08,4.08,0,0,0,.08-1.72A2.3,2.3,0,0,0,500,32.61a5.38,5.38,0,0,0-2.14-.29c-.16,0-.25,0-.25.25C497.6,33.43,497.6,34.33,497.6,35.24Z"/><path class="d217fc10-4037-463b-b848-7fa8a668b3cb" d="M507.46,37V30.27c0-.25,0-.25.25-.25h3.74c.29,0,.29,0,.29.29v5.05c0,.21.08.25.25.25h4c.25,0,.25,0,.25-.29V30.23c0-.21,0-.25.25-.25h3.78c.21,0,.25,0,.25.25V43.78c0,.16,0,.25-.21.25h-3.82c-.16,0-.21,0-.21-.25V38.73c0-.21,0-.25-.25-.25h-4c-.21,0-.25,0-.25.25v5.05c0,.21,0,.25-.25.25h-3.74c-.25,0-.25,0-.25-.29C507.46,41.48,507.46,39.26,507.46,37Z"/><path class="d217fc10-4037-463b-b848-7fa8a668b3cb" d="M548.69,37V30.27c0-.29,0-.29.29-.29l4-.25a17.82,17.82,0,0,1,2.09,0,8.4,8.4,0,0,1,3.61.9,4.24,4.24,0,0,1,2.22,3.16,6.48,6.48,0,0,1-.29,3.53,5,5,0,0,1-3.12,2.87,9,9,0,0,1-2.75.49h-1.56c-.16,0-.21,0-.21.21v2.92c0,.16,0,.25-.21.25H549c-.21,0-.25,0-.25-.25C548.69,41.52,548.69,39.26,548.69,37Zm4.23-1.77v2.71c0,.12,0,.21.16.21.53,0,1,0,1.56-.08a2.45,2.45,0,0,0,2.05-1.89,5.52,5.52,0,0,0,.12-1.44,2.33,2.33,0,0,0-1.72-2.26,5.93,5.93,0,0,0-1.89-.21c-.21,0-.25.08-.25.25C552.92,33.43,552.92,34.33,552.92,35.24Z"/><path class="d217fc10-4037-463b-b848-7fa8a668b3cb" d="M572.38,33.06c-.41-.12-.78-.25-1.19-.33a9.06,9.06,0,0,0-3-.29,2.44,2.44,0,0,0-.94.21,1,1,0,0,0-.29,1.77,4.44,4.44,0,0,0,1.23.66c.86.37,1.77.66,2.63,1a4,4,0,0,1,1.77,1.31,3.26,3.26,0,0,1,.7,1.93,4.64,4.64,0,0,1-.57,2.67,4.35,4.35,0,0,1-2.46,1.89,9.4,9.4,0,0,1-2.38.45,21.48,21.48,0,0,1-2.3,0,12.81,12.81,0,0,1-3-.57c-.12,0-.16-.08-.21-.25-.12-.78-.25-1.56-.33-2.38,0-.21,0-.41-.08-.62h.12a12.35,12.35,0,0,0,3.66,1,7.2,7.2,0,0,0,2.3,0,1.32,1.32,0,0,0,1-.82,1.08,1.08,0,0,0-.41-1.31,5.76,5.76,0,0,0-1.23-.62c-.82-.33-1.68-.62-2.51-1a4.59,4.59,0,0,1-1.68-1.23,3.69,3.69,0,0,1-.82-2.22,3.72,3.72,0,0,1,2.71-4,7.63,7.63,0,0,1,2.34-.45c.86,0,1.72,0,2.55,0,.66,0,1.27.21,1.93.29.12,0,.16,0,.16.16.08.9.21,1.85.33,2.75C572.38,33,572.38,33,572.38,33.06Z"/><path class="d217fc10-4037-463b-b848-7fa8a668b3cb" d="M539.53,41.27c-.12.49-.21,1-.33,1.48s-.16.7-.25,1.07c0,.16-.08.21-.29.21H531.4c-.16,0-.25,0-.25-.25V30.23c0-.21,0-.25.25-.25h3.74c.29,0,.29,0,.29.29V41c0,.16,0,.21.21.21h3.74S539.45,41.27,539.53,41.27Z"/><path class="d217fc10-4037-463b-b848-7fa8a668b3cb" d="M527.95,37v6.78c0,.21,0,.25-.25.25h-3.78c-.21,0-.25,0-.25-.25V30.23c0-.16,0-.25.25-.25h3.78c.21,0,.25,0,.25.25Z"/><path class="d217fc10-4037-463b-b848-7fa8a668b3cb" d="M545.36,37v6.74c0,.29,0,.29-.25.29h-3.74c-.25,0-.25,0-.25-.25V30.27c0-.16,0-.25.25-.25h3.78c.21,0,.25.08.25.25C545.36,32.49,545.36,34.75,545.36,37Z"/><path class="d217fc10-4037-463b-b848-7fa8a668b3cb" d="M239.28,30h5.3v5.09c.08-.08.12-.08.16-.12L249,30.8c.25-.25.49-.49.78-.74A.31.31,0,0,1,250,30h5.26c-2.09,2.09-4.19,4.15-6.24,6.24,2.55,2.55,5.09,5.05,7.64,7.56a0,0,0,0,0,0,0V30h5.46V40.41h8.71v3.53h-21a.58.58,0,0,1-.25-.08c-1.6-1.56-3.2-3.16-4.8-4.76l-.12-.12v5h-5.38Z"/><path class="d217fc10-4037-463b-b848-7fa8a668b3cb" d="M295.18,44h-5.34V34.33a.62.62,0,0,0-.29.37c-.21.57-.41,1.11-.57,1.68-.86,2.51-1.77,5-2.63,7.47,0,.08,0,.12-.16.12h-4.8c-.12,0-.16,0-.21-.16-1-3-2.09-6-3.12-8.91-.08-.16-.12-.37-.33-.45V44h-5.38V30h8.79c.86,2.51,1.72,5,2.59,7.56a3.8,3.8,0,0,0,.21-.41l2.46-7c0-.12.08-.16.21-.16h8.58Z"/><path class="d217fc10-4037-463b-b848-7fa8a668b3cb" d="M256.61,26.9V23.29h21.07V26.9Z"/><path class="d217fc10-4037-463b-b848-7fa8a668b3cb" d="M256.78,22.47a3.09,3.09,0,0,1-3.16-3,3.14,3.14,0,0,1,2.92-3.16,3.06,3.06,0,1,1,.25,6.12Z"/><path class="d217fc10-4037-463b-b848-7fa8a668b3cb" d="M266.76,19.47a3.06,3.06,0,1,1-3.2-3A3,3,0,0,1,266.76,19.47Z"/><path class="d217fc10-4037-463b-b848-7fa8a668b3cb" d="M267.66,19.43a3,3,0,0,1,3-3,3.06,3.06,0,1,1-3,3Z"/><path class="d217fc10-4037-463b-b848-7fa8a668b3cb" d="M274.68,19.47a3.06,3.06,0,1,1,3,3A3.05,3.05,0,0,1,274.68,19.47Z"/><path class="d217fc10-4037-463b-b848-7fa8a668b3cb" d="M266.22,16.8V15h-1.77V13.31h1.77V11.54h1.72v1.77h1.77V15H268v1.72C267.82,16.8,266.72,16.8,266.22,16.8Z"/></svg>