<svg id="e1fdbe84-6296-4882-903b-658379f35749" data-name="Layer 1" xmlns="http://www.w3.org/2000/svg" viewBox="0 0 813 60"><defs><style>.fb5a93b6-eeeb-4c50-8a56-1642eae0930b{fill:#fff;}</style></defs><title>Artboard 1</title><path class="fb5a93b6-eeeb-4c50-8a56-1642eae0930b" d="M361.73,24.72a2.9,2.9,0,0,0-1.15-.25c-.49,0-1.07.16-1.07.82,0,1.19,2.67.9,2.67,3,0,1.31-1,1.85-2.26,1.85a4.21,4.21,0,0,1-1.27-.25l.08-.82a3.68,3.68,0,0,0,1.27.29c.49,0,1.23-.29,1.23-1,0-1.4-2.67-1-2.67-3,0-1.11.86-1.68,2-1.68a4.91,4.91,0,0,1,1.31.21Z"/><path class="fb5a93b6-eeeb-4c50-8a56-1642eae0930b" d="M365.38,25.34a2.22,2.22,0,0,1,2.3,2.13v.25a2.3,2.3,0,1,1-4.6,0,2.23,2.23,0,0,1,2.05-2.38Zm0,4.11a1.54,1.54,0,0,0,1.44-1.63v-.05a1.46,1.46,0,0,0-2.87-.54,1.23,1.23,0,0,0,0,.54C364,28.54,364.4,29.45,365.38,29.45Z"/><path class="fb5a93b6-eeeb-4c50-8a56-1642eae0930b" d="M371.79,26.2a2.81,2.81,0,0,0-.9-.21,1.56,1.56,0,0,0-1.49,1.61.15.15,0,0,0,0,.07,1.52,1.52,0,0,0,1.37,1.67h.15a1.82,1.82,0,0,0,.9-.25l.08.74a2.49,2.49,0,0,1-1.07.21,2.29,2.29,0,0,1-2.31-2.28s0-.07,0-.1a2.25,2.25,0,0,1,2.09-2.38h.21a3.8,3.8,0,0,1,1,.16Z"/><path class="fb5a93b6-eeeb-4c50-8a56-1642eae0930b" d="M374,24.44H373V23.5H374Zm-.9,1h.82V30h-.82Z"/><path class="fb5a93b6-eeeb-4c50-8a56-1642eae0930b" d="M375.73,25.79a2.82,2.82,0,0,1,1.48-.41c1.31,0,1.81.66,1.81,1.89v1.89a3.39,3.39,0,0,0,0,.9h-.77v-.57h0a1.7,1.7,0,0,1-1.4.7c-1,0-1.68-.41-1.68-1.4,0-1.15,1.23-1.48,2.09-1.48h.9c0-.78-.29-1.19-1.11-1.19a2,2,0,0,0-1.31.45Zm2.52,2.06h-.53c-.45,0-1.56.08-1.56.86a.78.78,0,0,0,.83.74h0a1.18,1.18,0,0,0,1.23-1.11v-.49Z"/><path class="fb5a93b6-eeeb-4c50-8a56-1642eae0930b" d="M380.7,23.33h.82V30h-.82Z"/><path class="fb5a93b6-eeeb-4c50-8a56-1642eae0930b" d="M388.63,24.72a2.9,2.9,0,0,0-1.15-.25c-.49,0-1.07.16-1.07.82,0,1.19,2.67.9,2.67,3,0,1.31-1,1.85-2.26,1.85a4.21,4.21,0,0,1-1.27-.25l.08-.82a3.68,3.68,0,0,0,1.27.29c.49,0,1.23-.29,1.23-1,0-1.4-2.67-1-2.67-3,0-1.11.86-1.68,2-1.68a4.91,4.91,0,0,1,1.31.21Z"/><path class="fb5a93b6-eeeb-4c50-8a56-1642eae0930b" d="M393.14,26.2a3.1,3.1,0,0,0-.89-.2,1.56,1.56,0,0,0-1.49,1.61.15.15,0,0,0,0,.07,1.53,1.53,0,0,0,1.36,1.68h.12a1.82,1.82,0,0,0,.9-.25l.08.74a2.49,2.49,0,0,1-1.07.21,2.29,2.29,0,0,1-2.31-2.28s0-.07,0-.1a2.24,2.24,0,0,1,2.08-2.39,1.6,1.6,0,0,1,.31,0,3.8,3.8,0,0,1,1,.16Z"/><path class="fb5a93b6-eeeb-4c50-8a56-1642eae0930b" d="M395.32,24.44h-.94V23.5h.94Zm-.9,1h.83V30h-.82Z"/><path class="fb5a93b6-eeeb-4c50-8a56-1642eae0930b" d="M400.37,29.82a3.44,3.44,0,0,1-1.44.29,2.18,2.18,0,0,1-2.36-2,2.43,2.43,0,0,1,0-.47,2.11,2.11,0,0,1,1.93-2.29h.21c1.52,0,2,1.11,2,2.59h-3.24a1.47,1.47,0,0,0,1.44,1.52h0a2.83,2.83,0,0,0,1.4-.45Zm-.53-2.55a1.16,1.16,0,0,0-1-1.26h-.1a1.27,1.27,0,0,0-1.23,1.27Z"/><path class="fb5a93b6-eeeb-4c50-8a56-1642eae0930b" d="M401.93,25.46h.82v.74h0a1.6,1.6,0,0,1,1.48-.82c1.19,0,1.68.74,1.68,2v2.71h-.82V27.72c0-1.07-.25-1.56-.94-1.6-.94,0-1.4.78-1.4,1.89V30.1h-.82Z"/><path class="fb5a93b6-eeeb-4c50-8a56-1642eae0930b" d="M410.35,26.2a2.81,2.81,0,0,0-.9-.21A1.56,1.56,0,0,0,408,27.6a.15.15,0,0,0,0,.07,1.52,1.52,0,0,0,1.37,1.67h.15a1.82,1.82,0,0,0,.9-.25l.08.74a2.49,2.49,0,0,1-1.07.21,2.29,2.29,0,0,1-2.31-2.28s0-.07,0-.1a2.25,2.25,0,0,1,2.09-2.38h.21a3.8,3.8,0,0,1,1,.16Z"/><path class="fb5a93b6-eeeb-4c50-8a56-1642eae0930b" d="M415,29.82a3.44,3.44,0,0,1-1.44.29,2.18,2.18,0,0,1-2.32-2,2.07,2.07,0,0,1,0-.43,2.11,2.11,0,0,1,1.93-2.29h.21c1.52,0,2,1.11,2,2.59h-3.24a1.47,1.47,0,0,0,1.44,1.52h0A2.83,2.83,0,0,0,415,29Zm-.53-2.55a1.16,1.16,0,0,0-1-1.26h-.1a1.27,1.27,0,0,0-1.23,1.27Z"/><path class="fb5a93b6-eeeb-4c50-8a56-1642eae0930b" d="M416.25,29.12a2.46,2.46,0,0,0,1,.33c.37,0,.86-.16.86-.66,0-.82-2-.74-2-2,0-.94.7-1.4,1.6-1.4a3.8,3.8,0,0,1,1,.16l-.08.74a2.58,2.58,0,0,0-.86-.25c-.41,0-.82.16-.82.53,0,.94,2,.66,2,2.09a1.41,1.41,0,0,1-1.41,1.41h-.19a2.59,2.59,0,0,1-1.23-.25Z"/><path class="fb5a93b6-eeeb-4c50-8a56-1642eae0930b" d="M422.92,25.79a2.82,2.82,0,0,1,1.48-.41c1.31,0,1.81.66,1.81,1.89v1.89a3.39,3.39,0,0,0,0,.9h-.78v-.57h0a1.7,1.7,0,0,1-1.4.7c-1,0-1.68-.41-1.68-1.4,0-1.15,1.23-1.48,2.09-1.48h.9c0-.78-.29-1.19-1.11-1.19a2,2,0,0,0-1.31.45Zm2.46,2.05h-.53c-.45,0-1.56.08-1.56.86a.78.78,0,0,0,.83.74h0a1.16,1.16,0,0,0,1.26-1.07.49.49,0,0,0,0-.12v-.41Z"/><path class="fb5a93b6-eeeb-4c50-8a56-1642eae0930b" d="M427.72,25.46h.82v.74h0a1.6,1.6,0,0,1,1.48-.82c1.19,0,1.68.74,1.68,2v2.71h-.82V27.72c0-1.07-.25-1.56-.94-1.6-.94,0-1.4.78-1.4,1.89V30.1h-.82Z"/><path class="fb5a93b6-eeeb-4c50-8a56-1642eae0930b" d="M436.51,29.37h0a1.9,1.9,0,0,1-1.56.74c-1.36,0-2-1.23-2-2.46a2,2,0,0,1,1.67-2.28l.33,0a1.71,1.71,0,0,1,1.52.74h0V23.33h.78V30h-.82v-.66Zm-1.4.08c.94,0,1.36-.94,1.36-1.68S436,26,435.12,26s-1.27.86-1.23,1.68.36,1.77,1.23,1.77Z"/><path class="fb5a93b6-eeeb-4c50-8a56-1642eae0930b" d="M359,36.59h.9v2.59h3V36.59h.9v6.2h-.9V40h-3v2.83H359Z"/><path class="fb5a93b6-eeeb-4c50-8a56-1642eae0930b" d="M369.37,42.79h-.82v-.74h0a1.61,1.61,0,0,1-1.48.82c-1.19,0-1.68-.74-1.68-2V38.24h.86v2.34c0,1.07.25,1.56.94,1.6.94,0,1.4-.78,1.4-1.89v-2h.82V42.8Z"/><path class="fb5a93b6-eeeb-4c50-8a56-1642eae0930b" d="M370.89,38.24h.78v.66h0a1.54,1.54,0,0,1,1.44-.78,1.33,1.33,0,0,1,1.27.86,1.57,1.57,0,0,1,1.4-.86c1.15,0,1.56.74,1.56,1.72v2.92h-.82V40c0-.57-.12-1.27-.82-1.27-.86,0-1.19.82-1.19,1.68v2.3h-.82V40c0-.57-.12-1.27-.82-1.27-.86,0-1.19.82-1.19,1.68v2.3h-.82V38.24Z"/><path class="fb5a93b6-eeeb-4c50-8a56-1642eae0930b" d="M379.14,38.56a2.82,2.82,0,0,1,1.48-.41c1.31,0,1.81.66,1.81,1.89v1.89a3.39,3.39,0,0,0,0,.9h-.78v-.57h0a1.7,1.7,0,0,1-1.4.7c-1,0-1.68-.41-1.68-1.4,0-1.15,1.23-1.48,2.09-1.48h.9c0-.78-.29-1.19-1.11-1.19a2,2,0,0,0-1.31.45Zm2.46,2h-.53c-.45,0-1.56.08-1.56.86a.78.78,0,0,0,.83.74h0a1.17,1.17,0,0,0,1.27-1.05.92.92,0,0,0,0-.16v-.41Z"/><path class="fb5a93b6-eeeb-4c50-8a56-1642eae0930b" d="M384,38.24h.82V39h0a1.6,1.6,0,0,1,1.48-.82c1.19,0,1.68.74,1.68,2v2.71h-.82v-2.4c0-1.07-.25-1.56-.94-1.6-.94,0-1.4.78-1.4,1.89v2.09H384Z"/><path class="fb5a93b6-eeeb-4c50-8a56-1642eae0930b" d="M390.52,37.25h-.94v-.94h.94Zm-.9,1h.82v4.56h-.82Z"/><path class="fb5a93b6-eeeb-4c50-8a56-1642eae0930b" d="M394.5,38.93h-1.19v2.51a.72.72,0,0,0,.63.81H394a1,1,0,0,0,.57-.16v.7a4.27,4.27,0,0,1-.7.12c-.86,0-1.4-.41-1.4-1.31V38.93h-1v-.7h1V37.17l.82-.29v1.36h1.19Z"/><path class="fb5a93b6-eeeb-4c50-8a56-1642eae0930b" d="M396.64,37.25h-.94v-.94h.94Zm-.9,1h.82v4.56h-.82Z"/><path class="fb5a93b6-eeeb-4c50-8a56-1642eae0930b" d="M401.69,42.63a3.44,3.44,0,0,1-1.44.29,2.18,2.18,0,0,1-2.36-2,2.43,2.43,0,0,1,0-.47,2.11,2.11,0,0,1,1.93-2.29h.21c1.52,0,2,1.11,2,2.59h-3.24a1.47,1.47,0,0,0,1.44,1.51,2.83,2.83,0,0,0,1.4-.45Zm-.53-2.55a1.16,1.16,0,0,0-1.05-1.26H400a1.27,1.27,0,0,0-1.23,1.27Z"/><path class="fb5a93b6-eeeb-4c50-8a56-1642eae0930b" d="M402.92,41.89a2.46,2.46,0,0,0,1,.33c.37,0,.86-.16.86-.66,0-.82-2-.74-2-2,0-.94.7-1.4,1.6-1.4a3.8,3.8,0,0,1,1,.16l-.08.74a2.58,2.58,0,0,0-.86-.25c-.41,0-.82.16-.82.53,0,.94,2,.66,2,2.09a1.41,1.41,0,0,1-1.41,1.41H404a2.59,2.59,0,0,1-1.23-.25Z"/><path class="fb5a93b6-eeeb-4c50-8a56-1642eae0930b" d="M331,29.57V29c1.4-1,2.3-1.6,2.55-3a2.29,2.29,0,0,0-.53-1.81c-1.27-1.6-4.19-2.51-6.78-3-12.73-2.26-24.89,2.46-25.79,2.87v-.37c1.07-.62,15-6.32,28.3-4,2.59.45,5,1.19,6.32,2.87a2.55,2.55,0,0,1,.57,2.05c-.33,1.81-2.75,3.78-4.64,4.85"/><path class="fb5a93b6-eeeb-4c50-8a56-1642eae0930b" d="M337.42,31.09a5.34,5.34,0,0,1,0,10.68,5.15,5.15,0,0,1-5.23-5.06,1.93,1.93,0,0,1,0-.24A5.09,5.09,0,0,1,337,31.1h.45m-.08-1.93a7,7,0,0,0-7.2,6.8c0,.16,0,.31,0,.47a7,7,0,0,0,6.8,7.19h.3a7.23,7.23,0,1,0,.08-14.46h0"/><polygon class="fb5a93b6-eeeb-4c50-8a56-1642eae0930b" points="305.83 29.36 304.03 29.36 304.03 40.29 294.95 29.36 293.39 29.36 293.39 43.45 295.2 43.45 295.2 32.61 304.19 43.45 305.83 43.45 305.83 29.36"/><path class="fb5a93b6-eeeb-4c50-8a56-1642eae0930b" d="M326,34.58c-1.93,3.37-9,10.31-9,10.31h-.75c2.3-4,3.12-10.35,3.33-10.47v-.08a28.55,28.55,0,0,1-4.76,6.37,52.13,52.13,0,0,1-4.44,4.23h-.78c2.42-4.56,4-9.65,4-12.2,0-.74-.08-1.23-.49-1.23-.94,0-1.93,1.6-2.46,2.83h-.82c1-2.34,3.57-5.38,5.09-5.38.86,0,1.19,1.07,1.19,2,0,4.76-3.37,11-3.61,11.25,0,.08.12.08.12.08.16-.66,2.83-3,5.05-6.41s3.9-7.1,4.07-7.1.37.57.37,2.18a23,23,0,0,1-3.2,11.25.08.08,0,0,0,.08.08c.25-.53,2.55-2.83,4-4.76.53-.7,2.75-3.66,2.59-6.28a6.9,6.9,0,0,1,1.31-1.64s.7-.7,1.11-.7c.21,0,.21.53.21.53,0,1.6-1.72,4.35-2.18,5.17"/><rect class="fb5a93b6-eeeb-4c50-8a56-1642eae0930b" x="350.97" y="19.1" width="0.41" height="28.46"/><path class="fb5a93b6-eeeb-4c50-8a56-1642eae0930b" d="M460.58,30c.45,0,.9-.12,1.36-.12,1.36-.08,2.71-.16,4.07-.16a11.92,11.92,0,0,1,3.61.49,4.6,4.6,0,0,1,2.63,2,4.81,4.81,0,0,1,.62,2.22,7.51,7.51,0,0,1-.22,2.54,5,5,0,0,1-3.33,3.29,10.16,10.16,0,0,1-2.67.45h-1.52c-.21,0-.25,0-.25.25v2.87c0,.16,0,.25-.25.25h-4.07C460.58,39.34,460.58,34.66,460.58,30Zm4.27,5.26V38c0,.12,0,.21.16.21a10.39,10.39,0,0,0,1.56-.08,2.45,2.45,0,0,0,2.05-1.89,4.16,4.16,0,0,0,.08-1.72,2.3,2.3,0,0,0-1.45-1.91,5.39,5.39,0,0,0-2.14-.29c-.16,0-.25,0-.25.25,0,.86,0,1.76,0,2.67Z"/><path class="fb5a93b6-eeeb-4c50-8a56-1642eae0930b" d="M474.71,37V30.27c0-.25,0-.25.25-.25h3.74c.29,0,.29,0,.29.29v5.05c0,.21.08.25.25.25h4c.25,0,.25,0,.25-.29V30.23c0-.21,0-.25.25-.25h3.78c.21,0,.25,0,.25.25V43.78c0,.16,0,.25-.21.25h-3.82c-.16,0-.21,0-.21-.25V38.73c0-.21,0-.25-.25-.25h-4c-.21,0-.25,0-.25.25v5.05c0,.21,0,.25-.25.25H475c-.25,0-.25,0-.25-.29C474.71,41.48,474.71,39.26,474.71,37Z"/><path class="fb5a93b6-eeeb-4c50-8a56-1642eae0930b" d="M515.94,37V30.27c0-.29,0-.29.29-.29l4-.25a18.22,18.22,0,0,1,2.09,0,8.41,8.41,0,0,1,3.61.9,4.26,4.26,0,0,1,2.22,3.16,6.54,6.54,0,0,1-.29,3.53,5,5,0,0,1-3.12,2.87,9,9,0,0,1-2.75.49h-1.56c-.16,0-.21,0-.21.21v2.92c0,.16,0,.25-.21.25h-3.76c-.21,0-.25,0-.25-.25C515.94,41.52,515.94,39.26,515.94,37Zm4.23-1.77v2.71c0,.12,0,.21.16.21a10.39,10.39,0,0,0,1.56-.08,2.45,2.45,0,0,0,2.05-1.89,5.8,5.8,0,0,0,.12-1.44,2.33,2.33,0,0,0-1.72-2.26,6.07,6.07,0,0,0-1.89-.21c-.21,0-.25.08-.25.25,0,.91,0,1.81,0,2.72Z"/><path class="fb5a93b6-eeeb-4c50-8a56-1642eae0930b" d="M539.63,33.06c-.41-.12-.78-.25-1.19-.33a9.2,9.2,0,0,0-3-.29,2.48,2.48,0,0,0-.94.21,1,1,0,0,0-.67,1.25,1,1,0,0,0,.38.52,4.29,4.29,0,0,0,1.23.66c.86.37,1.77.66,2.63,1a4,4,0,0,1,1.77,1.31,3.3,3.3,0,0,1,.7,1.93A4.67,4.67,0,0,1,540,42a4.38,4.38,0,0,1-2.46,1.89,9.63,9.63,0,0,1-2.38.45,22.06,22.06,0,0,1-2.3,0,12.73,12.73,0,0,1-3-.57c-.12,0-.16-.08-.21-.25-.12-.78-.25-1.56-.33-2.38a1.66,1.66,0,0,0-.08-.62h.12a12.21,12.21,0,0,0,3.66,1,7.39,7.39,0,0,0,2.3,0,1.33,1.33,0,0,0,1-.82,1.09,1.09,0,0,0-.41-1.31,5.91,5.91,0,0,0-1.23-.62c-.82-.33-1.68-.62-2.51-1a4.58,4.58,0,0,1-1.68-1.23,4,4,0,0,1,1.89-6.22,7.77,7.77,0,0,1,2.34-.45h2.55a16.06,16.06,0,0,1,1.93.29c.12,0,.16,0,.16.16.08.9.21,1.85.33,2.75C539.63,33,539.63,33,539.63,33.06Z"/><path class="fb5a93b6-eeeb-4c50-8a56-1642eae0930b" d="M506.78,41.27c-.12.49-.21,1-.33,1.48s-.16.7-.25,1.07c0,.16-.08.21-.29.21h-7.26c-.16,0-.25,0-.25-.25V30.23c0-.21,0-.25.25-.25h3.74c.29,0,.29,0,.29.29V41c0,.16,0,.21.21.21h3.74A.27.27,0,0,0,506.78,41.27Z"/><path class="fb5a93b6-eeeb-4c50-8a56-1642eae0930b" d="M495.2,37v6.78c0,.21,0,.25-.25.25h-3.78c-.21,0-.25,0-.25-.25V30.23c0-.16,0-.25.25-.25H495c.21,0,.25,0,.25.25Z"/><path class="fb5a93b6-eeeb-4c50-8a56-1642eae0930b" d="M512.61,37v6.74c0,.29,0,.29-.25.29h-3.74c-.25,0-.25,0-.25-.25V30.27c0-.16,0-.25.25-.25h3.78c.21,0,.25.08.25.25C512.61,32.49,512.61,34.75,512.61,37Z"/><path class="fb5a93b6-eeeb-4c50-8a56-1642eae0930b" d="M206.53,30h5.3v5.09c.08-.08.12-.08.16-.12l4.26-4.17c.25-.25.49-.49.78-.74a.29.29,0,0,1,.22-.06h5.26c-2.09,2.09-4.19,4.15-6.24,6.24,2.55,2.55,5.09,5,7.64,7.56h0V30h5.46V40.41h8.71v3.53h-21a.53.53,0,0,1-.25-.08c-1.6-1.56-3.2-3.16-4.8-4.76l-.12-.12v5h-5.38Z"/><path class="fb5a93b6-eeeb-4c50-8a56-1642eae0930b" d="M262.43,44h-5.34V34.33a.57.57,0,0,0-.29.37c-.21.57-.41,1.11-.57,1.68-.86,2.51-1.77,5-2.63,7.47,0,.08,0,.12-.16.12h-4.8c-.12,0-.16,0-.21-.16-1-3-2.09-6-3.12-8.91-.08-.16-.12-.37-.33-.45V44H239.6V30h8.79c.86,2.51,1.72,5,2.59,7.56l.21-.41,2.46-7c0-.12.08-.16.21-.16h8.58Z"/><path class="fb5a93b6-eeeb-4c50-8a56-1642eae0930b" d="M223.86,26.9V23.29h21.07V26.9Z"/><path class="fb5a93b6-eeeb-4c50-8a56-1642eae0930b" d="M224,22.47a3.09,3.09,0,0,1-3.16-3,3.13,3.13,0,0,1,2.92-3.16,3.06,3.06,0,0,1,.25,6.12Z"/><path class="fb5a93b6-eeeb-4c50-8a56-1642eae0930b" d="M234,19.47a3.06,3.06,0,1,1-3.2-3A3,3,0,0,1,234,19.26C234,19.33,234,19.4,234,19.47Z"/><path class="fb5a93b6-eeeb-4c50-8a56-1642eae0930b" d="M234.91,19.43a3,3,0,0,1,3-3,3.06,3.06,0,1,1-3,3.12Z"/><path class="fb5a93b6-eeeb-4c50-8a56-1642eae0930b" d="M241.93,19.47a3.06,3.06,0,1,1,3.12,3h-.12A3,3,0,0,1,241.93,19.47Z"/><path class="fb5a93b6-eeeb-4c50-8a56-1642eae0930b" d="M233.47,16.8V15H231.7V13.31h1.77V11.54h1.72v1.77H237V15h-1.71v1.72A11,11,0,0,1,233.47,16.8Z"/><path class="fb5a93b6-eeeb-4c50-8a56-1642eae0930b" d="M593.52,10.36H581.41c-.18,0-.22.05-.22.23,0,3.95,0,7.89,0,11.84,0,.27,0,.27-.27.27h-12V47.12c0,.24,0,.24.24.24h24c.39,0,.39,0,.39-.38V35H581.21V22.68h12.06c.25,0,.25,0,.25-.25V10.36Zm-6,41,.06,0a.55.55,0,0,1,.08.15c0,.13.06.27.1.4.21.73.42,1.45.62,2.18a.16.16,0,0,0,.18.13h1c.26,0,.26,0,.26-.26V49.46c0-.45,0-.36-.37-.37h-.86V52a.37.37,0,0,1-.15-.19l-.3-1.08c-.13-.47-.25-1-.37-1.42a.2.2,0,0,0-.23-.17h-1.1c-.13,0-.19,0-.19.18,0,1.58,0,3.15,0,4.72,0,.12,0,.16.15.16h.84c.23,0,.23,0,.23-.24v-2.6Zm-4.62-2.23h-1c-.35,0-.35,0-.35.34V54c0,.11,0,.15.14.15h1.17c0-.41,0-.78,0-1.15a1,1,0,0,1,.28-.58l.09.14c.21.48.43,1,.63,1.46a.19.19,0,0,0,.21.14h1.33s0-.06,0-.07l-1.35-2.68a.26.26,0,0,1,0-.21c.25-.44.5-.88.76-1.31.14-.26.29-.52.45-.8-.44,0-.84,0-1.24,0a.23.23,0,0,0-.26.17l-.73,1.48a1,1,0,0,1-.17.13Zm-3,1.83H581s.09-.08.09-.13a2.88,2.88,0,0,0,0-.59,1.25,1.25,0,0,0-.78-1A2.45,2.45,0,0,0,579,49a1.24,1.24,0,0,0-1.07.9,4.72,4.72,0,0,0-.19,1,7,7,0,0,0,.12,2.28,1.23,1.23,0,0,0,.86,1,2.47,2.47,0,0,0,1.32,0,1.27,1.27,0,0,0,1-.75,2.88,2.88,0,0,0,.19-1.2c0-.12-.08-.14-.18-.14h-.9c-.18,0-.21.06-.22.22a7.17,7.17,0,0,1-.1.81.24.24,0,0,1-.26.22c-.15,0-.3,0-.34-.2a2.18,2.18,0,0,1-.11-.62c0-.59,0-1.18,0-1.76a4.2,4.2,0,0,1,.08-.62.35.35,0,0,1,.36-.27.29.29,0,0,1,.31.28C579.82,50.4,579.83,50.65,579.85,50.91ZM571,52.1c0,.09,0,.17,0,.24,0,.25,0,.51-.08.76a.3.3,0,0,1-.31.25.28.28,0,0,1-.31-.18.86.86,0,0,1-.09-.34q0-1.09,0-2.19a1.9,1.9,0,0,1,.09-.53.32.32,0,0,1,.36-.23.29.29,0,0,1,.29.29c0,.19,0,.38,0,.57s0,.18.15.17h1c.11,0,.16,0,.15-.14a4.17,4.17,0,0,0,0-.61,1.24,1.24,0,0,0-.82-1,2.69,2.69,0,0,0-1.16-.1,1.37,1.37,0,0,0-1.25,1,7.05,7.05,0,0,0-.17,2.24,5.87,5.87,0,0,0,.17,1,1.11,1.11,0,0,0,.64.79,2.32,2.32,0,0,0,1.62.11,1.26,1.26,0,0,0,.84-.67,2.87,2.87,0,0,0,.2-1.3.19.19,0,0,0-.11-.09Zm4.67,1h-1.38c-.23,0-.23,0-.23-.24V49.37c0-.09,0-.19,0-.28h-1.31v5h2.93Zm16.2,0c0-.1,0-.2,0-.29V49.87c0-.18,0-.37,0-.55s0-.25-.22-.23H591c-.51,0-.51,0-.51.51v4.33c0,.15,0,.22.2.22h2.73V53.07Zm-14.59-4h-1.14c-.14,0-.18,0-.18.17q0,.6,0,1.2c0,1,0,2,0,3v.71h1.33Z"/></svg>