<?xml version="1.0" encoding="utf-8"?>
<!-- Generator: Adobe Illustrator 21.1.0, SVG Export Plug-In . SVG Version: 6.00 Build 0)  -->
<svg version="1.1" id="Layer_1" xmlns="http://www.w3.org/2000/svg" xmlns:xlink="http://www.w3.org/1999/xlink" x="0px" y="0px"
	 viewBox="0 0 2758.6 179.1" style="enable-background:new 0 0 2758.6 179.1;" xml:space="preserve">
<style type="text/css">
	.st0{fill:#FFFFFF;}
</style>
<title>Artboard 1logosmore</title>
<path class="st0" d="M2221.1,61.9l-0.3,2.4c1.3,0.6,2.8,1,4.3,1c0.9,0,1.8-0.1,2.7-0.4c1.9-0.5,3.3-2.3,3.3-4.3
	c0-1.9-1.4-3.1-3.7-3.5l-1.7-0.3c-1.3-0.2-2.4-0.5-2.4-2.1c0-1.3,1.2-2.3,2.9-2.3c1,0,2,0.4,2.7,1.1v0.9h0.9l0.2-2.4
	c-1.2-0.5-2.5-0.7-3.8-0.7c-3,0-5.4,1.2-5.4,4.3c0,1.7,1.2,3.1,3.6,3.5l2,0.3c1.1,0.1,1.9,1,1.9,2.1c0,1.8-1.5,2.7-3.2,2.7
	c-1.3,0-2.5-0.6-3.3-1.5l-0.1-0.8L2221.1,61.9L2221.1,61.9z M2175.9,76.5c0.1,0.1,3.8-1.8,5.2-0.3c1.6,1.7-0.5,8.4-4.8,16.9
	c-4.2,8.2-7.9,15-8.8,17.7s1,1.7,3,0.7c4-2.1,20.9-16.2,23-17.3c1.2-0.6-8.5,11-18,21c-10.9,11.5-21.5,24.3-36.6,24.3
	c-15.9,0-22.9-13-22.9-13s3.9,15.4,23.8,15.4c22.8,0,40-24,52.5-38.5c10.1-11.7,18.9-22.1,25.1-25.8s13-1.4,13-1.4
	c-9.6-6-21.6,2.7-31.3,11.3c-8,7.1-21.8,16.6-22.7,17.3c-1.2,0.9,14.7-26.8,10.1-30.8C2184.7,72.3,2175.1,75.7,2175.9,76.5
	 M2274.9,52.3v-0.8h-3.8v0.8c0.8,0,1.2,0.1,1,0.5s-3,5.1-3,5.1l-2.8-4.8c-0.2-0.5-0.2-0.8,1.1-0.8v-0.8h-6.2v0.8
	c1.5,0,1.6,0.4,1.9,0.9s3.8,6.4,3.8,6.4v3c0,1.4-0.1,1.5-1.7,1.5V65h6.4v-0.8c-1.7,0.1-1.8-0.1-1.8-1.5c0,0,0-3.5,0-3.7
	c0,0,3.1-5.3,3.4-5.7C2273.6,52.6,2274.2,52.3,2274.9,52.3L2274.9,52.3z M2141.5,62.6c0,1.4-0.1,1.6-1.7,1.5V65h4.7v-0.8
	c-1.7,0.1-1.7-0.1-1.7-1.5v-8.1l9.4,10.7l1.5-0.4V53.8c0-1.4,0.1-1.6,1.7-1.5v-0.8h-4.7v0.8c1.7,0,1.7,0.1,1.7,1.5v7.4l-0.5-0.5
	l-8-9.2h-4.2v0.8c1.7,0,1.7,0.1,1.7,1.5L2141.5,62.6z M2161.1,62.6c0,1.4-0.1,1.6-1.7,1.5V65h6.4v-0.8c-1.7,0.1-1.7-0.1-1.7-1.5
	v-8.8c0-1.4,0.1-1.5,1.7-1.5v-0.8h-6.4v0.8c1.6,0,1.7,0.1,1.7,1.5V62.6z M2174.9,54.1c-0.3-0.4-0.4-0.9-0.4-1.4
	c0.1-0.4,0.9-0.4,1.6-0.4v-0.8h-6.6v0.8c0.9,0,1.7,0.6,2.1,1.4l4.9,11.3h1.5c0,0,3.4-7.8,5.1-11.8c0.4-0.9,0.6-0.9,1.6-0.9v-0.8
	h-4.7v0.8c1.2,0,1.7,0.2,1.7,0.5c-0.1,0.3-0.2,0.7-0.3,1l-3.2,7.8L2174.9,54.1L2174.9,54.1z M2189.9,62.9c0,0.9-0.3,1.1-1.5,1.2V65
	h10.9l0.2-3.1h-0.8l-0.4,1.6c-1.8,0.2-3.7,0.3-5.5,0.2v-5.3h2.4c0.4,0,1,0,1.1,0.5c0.1,0.3,0.1,0.7,0,1h0.9l0.3-3.8h-0.8
	c0,0.3-0.1,0.7-0.2,1c-0.1,0.4-0.4,0.4-0.7,0.4h-2.9v-4.3c0-0.2,0-0.5,0.1-0.7c0.6,0,3.2,0,4,0c0.4,0,0.9,0.1,0.9,0.4s0.1,1,0.1,1
	h0.8l0.2-1.8l0.1-0.7h-10.8v0.8c1.6,0.1,1.7,0.2,1.8,1.4L2189.9,62.9L2189.9,62.9L2189.9,62.9z M2205.1,62.6c0,1.4-0.1,1.6-1.8,1.5
	V65h6.4v-0.8c-1.7,0.1-1.8-0.1-1.8-1.5v-9.6c0-0.2,0-0.3,0.1-0.5c0.4-0.1,0.8-0.2,1.2-0.1c1.5,0,2.8,1.2,2.8,2.8v0.1
	c0,1.8-0.6,2.9-3,3.1l-0.1,0.4l4.3,6.2h3.8v-0.8c-0.6-0.1-1.1-0.4-1.4-0.9l-3.7-4.7c1.8-0.2,3.1-1.9,2.9-3.7v-0.1
	c-0.1-2.5-2.7-3.3-4.9-3.3h-6.7v0.8c1.6,0,1.7,0.1,1.8,1.5L2205.1,62.6L2205.1,62.6L2205.1,62.6z M2237.2,62.6
	c0,1.4-0.1,1.6-1.7,1.5V65h6.4v-0.8c-1.7,0.1-1.7-0.1-1.7-1.5v-8.8c0-1.4,0.1-1.6,1.7-1.5v-0.8h-6.4v0.8c1.6,0,1.7,0.1,1.7,1.5V62.6
	z M2253.4,52.8h2.9c1.1,0,0.9,0.1,1.1,1.1c0,0.2,0,0.3,0,0.5h0.8l0.3-2.9h-12.9c0,0,0.1,2,0.1,2.9h0.8c0-0.5,0.1-0.7,0.1-1
	c0.2-0.4,0.5-0.6,0.9-0.6h3v9.8c0,1.4-0.1,1.6-1.7,1.5V65h6.4v-0.8c-1.7,0.1-1.7-0.1-1.7-1.5L2253.4,52.8L2253.4,52.8L2253.4,52.8z
	 M2120.7,52.3v-0.8h6.2v0.8c-0.5,0-0.9,0-1.4,0.2c-0.1,0.1-0.2,0.2-0.2,0.3c-0.1,0.4-0.1,6-0.1,6c0,1.2,0,1.9,0,2.2
	c0,0.5,0.2,1,0.5,1.5c0.3,0.4,0.7,0.7,1.1,0.9c0.6,0.3,1.3,0.4,2,0.3c0.8,0,1.5-0.1,2.2-0.5c0.5-0.3,0.9-0.7,1.2-1.2
	c0.3-0.9,0.4-1.8,0.4-2.8c0,0,0-4.7,0-5c0-0.5,0-1-0.1-1.5c0-0.1-0.1-0.2-0.2-0.2c-0.5-0.1-0.9-0.2-1.4-0.2v-0.8h4.6v0.8
	c-0.4,0-0.8,0-1.1,0.2c-0.1,0.1-0.2,0.2-0.2,0.3c-0.1,0.6-0.2,1.3-0.1,1.9c0,1.2-0.1,5-0.1,5c0,0.6,0,1.2-0.1,1.8s-0.2,1.1-0.5,1.6
	s-0.7,0.9-1.1,1.2c-0.5,0.3-1.1,0.6-1.7,0.7c-0.7,0.2-1.5,0.3-2.3,0.3c-0.9,0-1.9-0.1-2.8-0.4c-0.6-0.2-1.1-0.4-1.6-0.8
	c-0.7-0.5-1.2-1.4-1.3-2.2c0-0.2-0.1-0.8-0.1-1.9c0,0,0-6,0-6.7c0-0.2,0-0.4-0.1-0.6c-0.1-0.1-0.1-0.2-0.2-0.2l-1.3-0.2L2120.7,52.3
	z"/>
<path class="st0" d="M2153.4,87.3c-0.1,0,3.6-10.9,6.9-11.6c3.5-0.8,1.9,3.5,1.2,4.7c-0.5,0.9-0.2,0.9,0.6,0.3
	c1.2-1.1,4.1-4.4,2.5-6.1c-0.8-0.6-1.8-0.9-2.8-0.8c-3.6,0-8.4,2.5-13.2,13.2c-2.9,0-5.8,0.2-8.7,0.6c0-2.9-1.7-4.8-4.7-4.8
	c-5.1,0-12.3,5.2-16,11.6s-2.6,11.6,2.6,11.6s12.3-5.2,16-11.6c0.7-1.2,1.3-2.4,1.7-3.7c2.6-0.3,5.2-0.4,7.7-0.3
	c0.2,0-3.4,9.6-5.8,14.4c-1.9,3.8-7.8,11-15.7,7.4c-1.6-0.7-1.5,0.3,1,1.1c3.4,1.2,9.7,2.1,16.2-5.8c3.9-4.7,9.2-16.8,9.2-16.8
	s11.6,0.9,13.6-8.4C2165.7,82.3,2163.7,88.7,2153.4,87.3L2153.4,87.3z M2124.1,103.3c-2.9,0-3.3-3.9-0.9-8.7s6.7-8.7,9.6-8.7
	c1.8,0,2.7,1.6,2.4,3.9c-1.9,1.2-3.7,2.6-3.7,2.6c-0.2,0.2-0.2,0.2,0.1,0.2l3.2-0.8c-0.3,1-0.7,1.9-1.1,2.8
	C2131.3,99.4,2127,103.3,2124.1,103.3L2124.1,103.3z M2282.3,116.3c-2.4,1.6-5.3,2.3-8.1,2c-5.6-0.7-13.2-8.4-15-10.1
	c-0.7-0.7,12.2-3.6,15-9.7c1.6-3.6-2.1-4.6-2.1-4.6c-1.5,7.4-8.9,10-15.1,13.2c-1.9-0.5-3.9-0.1-5.5,0.9
	c-1.2,0.8,10.8-25.7,12.6-29.2c-2.1,0.6-4.2,1.3-6.2,2.2c-0.4,0.6,0.2,0.3,0.1,1c-0.6,2.3-6.2,13.6-6.2,13.6c-3.7,0-15,4.8-16.4,5.7
	s2.2-5,0.8-5.9s-3-0.7-6.3,0.2c-2.8,0.7-6.7,2.8-8.6,3.8c-0.2-3-2-4.9-5.3-4.9c-5.7,0-13.7,5.8-17.9,13s-2.9,13,2.9,13
	s13.7-5.8,17.9-13c1.1-1.8,1.8-3.7,2.3-5.8c3-1.9,9.9-4.8,10.4-3.9c0.8,1.4-8.8,19.1-10.5,22.5c0,0.1,0.1,0.1,0.3,0
	c2.2-0.7,4.9-1.7,5.4-2.8c2.5-5.1,11.1-19.3,19.5-17.8c1.1,0.2,4.7-2.1,4.4-1.3c-0.6,1.8-8.2,17.5-10.8,21.8c-0.6,1,4.9-1.3,5.5-2.6
	c2.4-4.7,5.7-7.1,7.5-7.1c2,0,10.5,10.3,19.7,10.3C2279.3,120.8,2282.8,116.4,2282.3,116.3L2282.3,116.3z M2203.4,117.3
	c-3.2,0-3.7-4.4-1-9.8s7.5-9.8,10.8-9.8c2.2,0,3.1,2.1,2.6,5.2c-1.7,1.5-3.1,2.9-3.1,2.9c-0.2,0.2-0.1,0.2,0.1,0.1l2.6-1.4
	c-0.3,1-0.7,2-1.2,2.9C2211.4,112.9,2206.6,117.3,2203.4,117.3L2203.4,117.3z"/>
<path class="st0" d="M2058.9,126.9c-0.1-0.3-0.2-0.5-0.4-0.6c-0.3-0.1-0.7-0.1-1,0l-1.7,0.6l-0.1-0.3c0-0.1,0-0.1-0.1-0.2l1.7-0.6
	c0.1,0,0.6-0.3,0.8-0.6c0.1-0.1,0.1-0.2,0.1-0.4c0-0.1,0-0.3-0.1-0.4c-0.4-1.1-1.1-2-2.1-2.7c-0.9-0.7-2-1.1-3.2-1.2
	c-0.3,0-0.5,0.1-0.7,0.2c-0.2,0.3-0.3,0.6-0.3,1v1.8h-0.5V122c0-0.4-0.1-0.7-0.3-1c-0.2-0.2-0.4-0.3-0.7-0.2c-1.2,0-2.3,0.4-3.2,1.2
	c-1,0.6-1.7,1.6-2.1,2.7c0,0.1-0.1,0.2-0.1,0.4c0,0.1,0,0.2,0.1,0.4c0.2,0.3,0.5,0.5,0.8,0.6c0,0,1.4,0.5,1.7,0.6
	c0,0.1,0,0.1-0.1,0.2l-0.1,0.2l-1.7-0.6c-0.3-0.1-0.7-0.1-1,0c-0.2,0.1-0.4,0.3-0.4,0.6c-0.3,1.1-0.3,2.3,0.1,3.4
	c0.3,1.1,1,2.1,1.9,2.8c0.2,0.2,0.5,0.3,0.7,0.2c0.3-0.1,0.6-0.3,0.8-0.6c0,0,0.9-1.2,1.1-1.5l0.1,0.1l0.2,0.1
	c-0.2,0.4-1.1,1.5-1.1,1.5c-0.2,0.3-0.3,0.6-0.3,0.9v0.1c0,0.3,0.2,0.5,0.4,0.6c1,0.6,2.1,1,3.2,0.9c1.2,0,2.3-0.3,3.2-0.9
	c0.2-0.1,0.4-0.4,0.4-0.6V134c0-0.3-0.1-0.6-0.3-0.9l-1.1-1.5l0.2-0.1l0.1-0.1l1.1,1.5c0.2,0.3,0.5,0.5,0.8,0.6c0.3,0,0.5,0,0.7-0.2
	c0.9-0.7,1.6-1.7,1.9-2.8C2059.2,129.2,2059.3,128,2058.9,126.9L2058.9,126.9z M2052.4,122.8c0-0.3,0.1-0.5,0.3-0.8
	c0.5-0.7,1.1-0.2,1.7,0.2c0.6,0.4,0.8,0.6,1.1,0.4l0.1-0.1v0.2c0,0,0,0,0,0.1c0,0.3,0.4,0.6,0.8,0.9s0.9,0.7,0.9,1.1
	c0,0.2-0.1,0.3-0.2,0.4c-0.2,0.2-0.4,0.4-0.6,0.5l-0.9,0.3c-0.2-0.4-0.5-0.8-0.9-1.1c-0.1-0.1-0.2-0.1-0.4-0.1
	c-0.2,0.1-0.3,0.2-0.5,0.3l-0.8,1.2l-0.1-0.1l0.8-1.2c0.1-0.2,0.1-0.3,0.2-0.5v-0.1c0-0.1-0.1-0.3-0.2-0.3c-0.4-0.2-0.8-0.4-1.2-0.5
	C2052.4,123.5,2052.4,122.8,2052.4,122.8L2052.4,122.8z M2053.7,127.8c0-0.5-0.2-0.9-0.6-1.2l0.5-0.7c0.1-0.1,0.2-0.2,0.3-0.2
	c0.3-0.1,0.4,0.2,0.6,0.6c0.1,0.2,0.2,0.5,0.4,0.6c0,0.1,0,0.1,0,0.2c0,0.2,0,0.3,0.1,0.5s0.1,0.3,0.1,0.5c0,0.1-0.1,0.3-0.2,0.3
	c-0.1,0-0.3,0-0.4,0l-0.7-0.2c0-0.1,0-0.1,0-0.2C2053.7,127.9,2053.7,127.8,2053.7,127.8L2053.7,127.8z M2052.4,124.7
	c0.4,0,0.7,0,0.7,0.3c0,0.1-0.1,0.2-0.1,0.4l-0.5,0.7c-0.2-0.1-0.5-0.2-0.8-0.2l0,0c-0.3,0-0.5,0.1-0.8,0.2
	c-0.2-0.3-0.5-0.7-0.5-0.7c-0.1-0.1-0.1-0.2-0.1-0.4c0-0.3,0.3-0.3,0.7-0.3c0.2,0,0.5,0,0.7-0.2
	C2051.8,124.7,2052.1,124.7,2052.4,124.7L2052.4,124.7z M2047,125.8c-0.2-0.1-0.5-0.3-0.7-0.5c-0.5-0.7,0.2-1.1,0.7-1.6
	s0.8-0.6,0.8-1v-0.2l0.1,0.1c0.3,0.2,0.7-0.1,1.2-0.4s1.2-0.8,1.7-0.2c0.1,0.2,0.2,0.5,0.3,0.8v0.9c-0.4,0.1-0.8,0.2-1.2,0.5
	c-0.1,0.1-0.2,0.2-0.2,0.3v0.1c0,0.2,0.1,0.3,0.2,0.5l0.8,1.2l-0.1,0.1l-0.8-1.2c-0.1-0.1-0.3-0.3-0.5-0.3c-0.1,0-0.3,0-0.4,0.1
	c-0.4,0.3-0.7,0.7-0.9,1.1L2047,125.8L2047,125.8z M2049.7,128.1l-0.7,0.2c-0.1,0-0.2,0-0.4,0c-0.1,0-0.2-0.2-0.2-0.3
	c0-0.2,0-0.3,0.1-0.5s0.1-0.3,0.1-0.5c0-0.1,0-0.1,0-0.2c0.2-0.1,0.3-0.4,0.4-0.6c0.2-0.4,0.2-0.7,0.6-0.6c0.1,0,0.2,0.1,0.3,0.2
	l0.5,0.7c-0.3,0.3-0.4,0.6-0.5,1c0,0.1,0,0.2,0,0.3L2049.7,128.1L2049.7,128.1z M2048.2,131.7c-0.2,0.2-0.4,0.4-0.7,0.5
	c-0.8,0.2-1-0.5-1.2-1.1c-0.2-0.5-0.3-1-0.7-1h-0.2l0.1-0.1c0.2-0.2,0.1-0.7,0-1.2c-0.2-0.7-0.4-1.4,0.3-1.7c0.3-0.1,0.5-0.1,0.8,0
	l0.9,0.3c-0.1,0.4,0,0.8,0.1,1.2c0,0.1,0.1,0.3,0.2,0.3c0.2,0,0.4,0,0.6,0l1.3-0.4v0.1l-1.3,0.4c-0.2,0.1-0.3,0.2-0.4,0.4
	c-0.1,0.1-0.1,0.3,0,0.4c0.1,0.4,0.4,0.8,0.8,1.2C2048.6,131.2,2048.2,131.8,2048.2,131.7L2048.2,131.7z M2049.2,130
	c-0.2-0.2-0.4-0.4-0.4-0.5s0-0.1,0.1-0.2c0.1-0.1,0.2-0.2,0.3-0.2l0.7-0.2c0.3,0.5,0.8,0.9,1.4,1c0,0.3,0,0.7,0,0.7
	c0,0.1-0.1,0.2-0.1,0.4c-0.2,0.2-0.4,0.1-0.8-0.1c-0.4-0.2-0.4-0.3-0.6-0.3C2049.8,130.3,2049.5,130.1,2049.2,130L2049.2,130z
	 M2054.2,132.4c0.1,0.2,0.2,0.5,0.2,0.8c0,0.8-0.8,0.8-1.5,0.8c-0.5,0-1,0-1.2,0.3l-0.1,0.1l-0.1-0.1c-0.2-0.3-0.6-0.3-1.2-0.3
	c-0.7,0-1.5,0-1.5-0.8c0-0.3,0.1-0.5,0.2-0.8l0.6-0.8c0.4,0.2,0.8,0.3,1.3,0.3c0.1,0,0.3,0,0.4-0.1c0.1-0.2,0.2-0.3,0.2-0.5V130h0.2
	v1.3c0,0.2,0.1,0.4,0.2,0.5c0.1,0.1,0.2,0.1,0.4,0.1c0.4,0,0.9-0.1,1.3-0.3C2053.8,131.9,2054.2,132.4,2054.2,132.4z M2054.1,130
	c-0.2,0.2-0.4,0.3-0.4,0.6c-0.2,0-0.4,0.1-0.7,0.3s-0.6,0.4-0.8,0.1c-0.1-0.1-0.1-0.2-0.1-0.4v-0.7c0.6-0.1,1.1-0.5,1.4-1l0.7,0.2
	c0.1,0.1,0.2,0.1,0.3,0.2c0,0.1,0.1,0.1,0.1,0.2C2054.5,129.7,2054.4,129.9,2054.1,130L2054.1,130z M2057.8,129.9l0.1,0.1h-0.2
	c-0.4,0.1-0.5,0.5-0.7,1c-0.2,0.6-0.5,1.4-1.2,1.1c-0.3-0.1-0.5-0.3-0.7-0.5l-0.6-0.8c0.3-0.3,0.6-0.7,0.8-1.2c0-0.1,0-0.1,0-0.2
	c0-0.1,0-0.1-0.1-0.2c-0.1-0.2-0.3-0.3-0.4-0.4l-1.3-0.4v-0.1l1.3,0.4c0.2,0,0.4,0,0.6,0c0.1-0.1,0.2-0.2,0.2-0.3
	c0.1-0.4,0.2-0.8,0.1-1.2l0.9-0.3c0.3-0.1,0.5-0.1,0.8,0c0.8,0.2,0.6,1,0.4,1.7C2057.7,129.1,2057.5,129.7,2057.8,129.9
	L2057.8,129.9z"/>
<path class="st0" d="M2035.8,129.5c4.3,5.3,9.5,9.8,15.5,13.1l0.4,0.3l0.5-0.3c5.9-3.4,11.2-7.8,15.5-13.1l1.1-1.5
	c3-4.1,5.2-8.8,6.5-13.7v-0.2c0.1-0.5,0.2-1,0.4-1.5l0.1-0.5c0.3-1.3,0.5-2.5,0.7-3.7v0.1c0.4,4.2,1.9,6.1,4.5,6.1
	c1.9,0,3.1-0.8,3.6-2.3c0-0.1,0.1-0.3,0.2-0.5c0.5-1.3,0.8-2.6,1-3.9v-0.2c0-0.9,0-1.9-1-2.2l-0.1-0.1c0.3-0.2,0.6-0.3,0.8-0.6
	c0.6-0.8,1.1-1.8,1.5-2.8c0.3-0.7,0.6-1.4,1-2c0,0,0-0.1,0.1-0.1c2.3-4.2,3-7.9,1.9-10.4l0,0l-0.1-0.1c-0.6-1.8-1.3-3.2-4.1-5.2
	c-1.2-0.8-2.3-1.5-3.2-2.1c-0.8-0.4-1.5-0.9-2.2-1.4c1.1,0.2,2.1,0.4,3.2,0.8c1.4,0.5,2.9,0.8,4.5,0.8c2.1,0,4.1-0.6,5.8-1.9
	c0.6-0.5,1.3-0.8,2.1-0.9c0.1,0,0.2-0.1,0.2-0.2s0-0.2-0.1-0.2c-0.4-0.2-0.8-0.5-1.1-0.8c-1-0.9-2.2-1.6-3.5-2v-0.1
	c-0.3-1.2-0.9-2.3-1.6-3.2c0.8,0.2,1.7,0.4,2.6,0.4c1.1,0,2.1-0.3,3.1-0.8l0.7-0.3c0.1-0.1,0.2-0.2,0.2-0.4c0-0.2-0.1-0.3-0.2-0.3
	c-0.9-0.4-1.6-1-2.3-1.7s-1.5-1.4-2.4-1.8c-0.5-0.2-1-0.3-1.6-0.2h-0.8h-0.7c-0.2,0-0.5,0-0.7-0.1c-0.1,0-0.1,0-0.2-0.1v-0.1
	c-0.1-0.4-0.4-0.8-1.6-0.9c4.5-1.4,7.6-3.1,9.5-5c1.7-1.7,2.6-3.9,2.5-6.3v-0.2c0-0.5-0.2-1-0.4-1.5c-0.5-2-1.3-4-2.3-5.8
	c-0.3-0.5-0.5-1-0.8-1.6c-0.1-0.3-0.2-0.6-0.3-0.9c-0.3-1.2-0.8-2.3-1.4-3.4c-0.6-0.7-1.3-1.4-2.1-2c-0.5-0.4-1-0.8-1.3-1.1
	c-0.1-0.1-0.2-0.1-0.2,0c-0.1,0-0.1,0.1-0.1,0.2c0.1,0.3,0,0.6-0.1,0.9c-0.1,0.3-0.2,0.5-0.2,0.8c0.1,0.4,0.2,0.8,0.5,1.1
	c0.1,0.2,0.2,0.4,0.3,0.6c-0.2-0.1-0.4-0.2-0.5-0.4c-0.5-0.5-1.1-0.8-1.8-1h-0.4c0.3-0.6,0.5-1.2,0.5-1.9c0-0.5,0.1-1,0.3-1.4
	l0.1-0.2c0.1-0.2,0-0.3-0.2-0.4c-0.1-0.1-0.3-0.1-0.5,0c0,0-0.1,0-0.3,0s-0.4,0-0.7-0.1c-0.3,0-0.6-0.1-0.9-0.1
	c-1,0.1-1.9,0.5-2.6,1.2l0,0l0,0c-0.4,0.3-0.6,0.8-0.6,1.3c0.1,1.2,0.5,2.3,1.1,3.3c0.3,0.6,0.7,1.3,1,2.2c1.1,2.5,2.4,2.8,6.6,4
	l1,0.2c0.3,0.1,0.5,0.1,0.8,0.2c0.1,2.1-0.6,4.1-1.9,5.8c-2.2,2.8-5.5,4.2-8.7,5.6l-0.5,0.2l1.4-1.3c0.7-0.6,1.1-1.5,1.2-2.4
	c0-0.4,0.2-0.8,0.4-1.1c0.9-1,1.6-2.1,2.1-3.4c0.1-1.1,0-2.2-0.4-3.3c-0.1-0.4-0.2-0.9-0.3-1.3c0-0.2-0.2-0.4-0.4-0.4
	c-0.1,0-0.2,0-0.3,0.1c-0.3,0.2-0.6,0.4-0.9,0.5c-1.1,0.4-2,1.2-2.7,2.1c-0.3-0.9-0.8-1.8-1.5-2.4c-1-0.8-2.2-1.4-3.4-1.8
	c-0.7-0.2-1.3-0.5-1.9-0.9c-0.1-0.1-0.3-0.1-0.4-0.1c-0.1,0.1-0.2,0.2-0.2,0.3c0,0.5-0.1,1-0.2,1.5c-0.2,0.9-0.3,1.9-0.4,2.9
	c0,0.6,0.2,1.2,0.6,1.7v0.1c0.2,0.2,0.5,0.6,0.8,0.9c0.7,1,1.1,2.1,1.3,3.2c0,3.5-2.8,5.3-5.6,5.6c-0.3,0-0.6,0-0.9,0
	c-1.8,0.1-3.5-0.5-4.8-1.8c0.1-0.4,0-0.8-0.2-1.2c-0.2-0.3-0.5-0.6-0.9-0.7l0,0l1-4.5l0.6-2.7c0-0.1,0-0.2-0.1-0.3s-0.1-0.1-0.2-0.2
	c-0.7-0.1-1.5-0.2-2.2-0.4c-1.3-0.3-2.7-0.4-4-0.6h-0.1l-2,0.4l-0.2,2.5l-1.5-0.1l0.1-3.2c0-0.1,0-0.2-0.1-0.2
	c-0.1-0.1-0.1-0.1-0.2-0.1c-1.1,0-2.1,0-3.2,0s-2.1,0-3.2,0c-0.1,0-0.2,0-0.2,0.1c-0.1,0.1-0.1,0.2-0.1,0.2l0.1,3.2l-1.5,0.1
	l-0.2-2.5l-2.1-0.4h-0.1c-1.3,0.1-2.7,0.3-4,0.6c-0.7,0.1-1.5,0.2-2.2,0.4c-0.1,0-0.2,0.1-0.2,0.2c0,0.1-0.1,0.2-0.1,0.3l0.6,2.7
	l1,4.5l0,0c-0.4,0.1-0.7,0.3-0.9,0.7c-0.5,0.8-0.2,1.9,0.6,2.4c0.2,0.1,0.5,0.2,0.7,0.2h0.2h0.3l-0.6,0.4c-1,0.3-2,0.4-3.1,0.4
	c-3.6,0-6.2-3.4-6.2-4.8c0-0.7,0.1-1.3,0.2-2c0.2-1,0.3-2,0.3-3c0-0.8-0.2-1.5-0.4-2.2c-0.4-0.9-0.4-1.9-0.1-2.8
	c0-0.1,0-0.2-0.1-0.2c-0.1-0.1-0.2-0.1-0.2,0c-0.7,0.8-1.7,1.3-2.7,1.6c-1.7,0.6-2.9,2-3.2,3.7c-0.3-0.4-0.7-0.7-1.1-1
	c-0.7-0.4-1.4-0.6-2.2-0.6c-0.5,0-1-0.1-1.5-0.4c-0.1,0-0.2,0-0.3,0.1c0,0.1,0,0.2,0,0.2c0.4,0.4,0.4,2.7,0.4,3.5s1.3,2.1,2.1,2.9
	c0.1,0.1,0.2,0.2,0.3,0.3c0.2,0.2,0.4,0.4,0.5,0.7c0.9,1.4,2.1,2.5,3.6,3.2c-4.7-0.4-11.3-3.7-13.2-9.5c-0.1-0.4-0.1-0.8,0.1-1.1
	c0.6-0.5,1.3-0.8,2.1-0.7c1.1,0,2.3,0.4,2.3,1.3c0,0.1,0,0.1,0.1,0.2c0.1,0,0.1,0,0.2,0c0.7-0.6,0.9-1.6,0.6-2.5
	c-0.1-0.2-0.2-0.4-0.4-0.6c0.5-0.1,0.9-0.4,1.3-0.6l1-0.5c1-0.7,2.5-2.4,2.5-3.7c0.1-0.3,0.2-0.6,0.4-0.8c0.6-0.8,0.9-1.8,0.9-2.8
	s-0.7-3-2.5-3c-0.6,0-1.1,0.1-1.6,0.4c-0.4,0.3-0.9,0.4-1.3,0.3c-0.2,0-0.3,0.1-0.4,0.2c-0.1,0.2,0,0.3,0.1,0.4
	c0.9,0.7,1.6,1.6,1.9,2.7c-0.4,0.4-1,0.7-1.6,0.8c-1.9-0.1-3.7,0.4-5.3,1.3c-2.1,1.3-3.3,4.8-3.9,6.7l0,0c-0.2,0.7-0.5,1.3-0.9,1.9
	c-0.3,0.5-0.6,1-0.7,1.6c-0.7,3.7,1,7.5,4.1,9.5c2.9,1.9,6.4,2.9,9.9,2.8h1.2c-1.5,0.7-2.9,1.3-4.5,1.9c-0.7,0.2-1.6,0.5-2.4,0.7
	c-1.3,0.3-2.6,0.8-3.8,1.3c-0.9,0.7-1.8,1.6-2.5,2.5c-0.3,0.4-0.6,0.8-1,1.1c-0.1,0.1-0.1,0.1-0.1,0.2s0.1,0.1,0.2,0.1
	c0.9,0,1.9,0,2.8,0.2c0.2,0,0.4,0.1,0.5,0.2s0.3,0.1,0.5,0.2c0.4,0,0.7-0.1,1.1-0.2c-0.8,0.8-1.3,1.8-1.4,2.9h-1.3
	c-1.1,0.1-2.1,0.5-2.9,1.2c-0.6,0.5-1.3,0.8-2.1,0.9c-0.2,0-0.3,0.1-0.4,0.3c0,0.2,0.1,0.4,0.3,0.4c0.8,0.3,1.6,0.8,2.3,1.3
	c1.7,1.1,3.7,2.4,5.6,2.4c1.1,0.1,2.1-0.1,3.1-0.6c0.3-0.2,0.7-0.2,1-0.2c0.4,0,0.7,0.1,1.1,0.1c0.6,0.1,1.2,0.2,1.8,0.2h0.2
	c-3.5,2.3-6.8,4.8-8,7.7s0.1,6.1,0.8,7.9c0.1,0.3,0.2,0.6,0.3,0.8c0.3,1.4,0.4,2.8,0.4,4.2c0,1.4,1.2,3,2.3,4.4
	c-0.6,1.2-0.8,2.6-0.6,3.9c0.1,1.3,0.6,2.6,1.6,3.5c0.1,0.1,0.2,0.2,0.3,0.3c0.2,0.1,0.3,0.3,0.5,0.4l0,0c0.8,0.5,1.6,0.7,2.5,0.7
	c0.3,0,0.6,0,0.9-0.1c0.5-0.1,1-0.3,1.5-0.5l0,0l0,0l0,0c0.3-0.2,0.6-0.4,0.8-0.7c1.3-1.4,2-3.4,2-6.4c0-0.1,0-0.2,0-0.3
	c0.2,1.2,0.4,2.3,0.7,3.5l0.1,0.5c0.1,0.5,0.2,1,0.4,1.5v0.2c1.3,4.9,3.6,9.5,6.5,13.7l1.2,1.6L2035.8,129.5z M2086.5,39.5
	c0,0.6-0.2,1.2-0.6,1.8c-1,0-2-0.5-2.7-1.2c-0.1-0.3-0.1-0.7-0.1-1l0,0c0.6-0.5,1.3-0.8,2-0.9c0.2,0,0.5,0,0.8,0.1s0.5,0.1,0.8,0.1
	C2086.6,38.7,2086.5,39.1,2086.5,39.5L2086.5,39.5z M2019.9,38.4c0.3-0.1,0.6-0.2,0.8-0.3c0.4-0.2,0.8-0.3,1.2-0.3
	c1.2,0,1.8,1.5,1.8,2.3c0,0.9-0.3,1.7-0.8,2.4c-0.3,0.4-0.5,0.8-0.5,1.2c-0.2,0.9-0.6,1.7-1.2,2.3c0.5-1.6,0.6-3.3,0.3-5
	C2021.1,40,2020.6,39.1,2019.9,38.4L2019.9,38.4z M2019.7,47.7L2019.7,47.7L2019.7,47.7z M2067.7,81.7h-4c-0.2-0.9-0.8-1.6-1.5-2.1
	c0,0,0,0,0-0.1c0.1-1.8,0.4-3.6,1-5.3c0,0.1,0.1,0.1,0.1,0.2C2065,76.4,2067.7,80.1,2067.7,81.7L2067.7,81.7z M2056.7,60.1l-1.1-0.1
	c-0.5-0.1-0.8-0.5-0.7-1c0-0.5,0.3-0.9,0.8-0.9l0,0c0.1,0,1.1,0,1.2,0.1h0.1h0.8h0.5h0.7l1,0.1c0.4,0,0.8,0.1,1.2,0.2l0.5,0.1
	l0.8,0.1l1.2,0.2c0.2,0,0.4,0.2,0.5,0.3c0.1,0.2,0.2,0.5,0.1,0.8c-0.1,0.4-0.4,0.7-0.8,0.8h-0.1l-1.2-0.2c-0.2,0-0.5-0.1-0.8-0.1
	l-0.4-0.1c-0.4,0-0.8-0.1-1.1-0.1l-0.9-0.1l-0.8-0.1h-0.5h-0.8H2056.7L2056.7,60.1z M2039.2,53.7l-0.6-2.4l1.9-0.3
	c1.2-0.2,2.4-0.4,3.6-0.5l0.3,2.7c0,0.2,0.2,0.3,0.4,0.3c1.2-0.1,2.5-0.2,3.8-0.2c0.1,0,0.2,0,0.2-0.1c0.1-0.1,0.1-0.2,0.1-0.2
	l-0.1-3.2c1,0,1.9,0,2.8,0s1.9,0,2.8,0l-0.1,3.2c0,0.1,0,0.2,0.1,0.2c0.1,0.1,0.1,0.1,0.2,0.1c1.3,0,2.5,0.1,3.8,0.2
	c0.2,0,0.3-0.1,0.4-0.3l0.3-2.7c1.2,0.1,2.4,0.3,3.6,0.5l1.9,0.3l-0.6,2.4l-1,4.5l-0.6-0.1l-0.8-0.1l-0.5-0.1l-1.2-0.2l-0.7-0.1
	l-1-0.1h-0.5c-0.3,0-0.6,0-0.8,0l-1.2-0.1h-0.4h-0.9c-0.6,0-1.3,0-2.1,0h-1.3c-0.8,0-1.5,0-2.1,0h-0.9h-0.4l-1.2,0.1h-0.8h-0.5h-0.7
	l-1,0.1l-1.2,0.2l-0.5,0.1l-0.8,0.1l-0.6,0.1L2039.2,53.7L2039.2,53.7z M2054.4,60h-0.1c-0.6,0-1.2,0-2,0h-1.3c-0.7,0-1.4,0-2,0
	h-0.1h-1.2c-0.5-0.1-0.8-0.5-0.8-0.9c0-0.3,0.1-0.5,0.2-0.8c0.1-0.1,0.3-0.2,0.4-0.2l0,0c0.2,0,1.3,0,1.3,0l0,0c0.6,0,1.3,0,2.1,0
	h1.3c0.8,0,1.5,0,2.1,0h0.1c-0.2,0.3-0.3,0.6-0.3,1C2054.1,59.4,2054.2,59.7,2054.4,60z M2040,60.9c-0.5,0-0.9-0.3-1-0.8
	c-0.1-0.3,0-0.5,0.1-0.8c0.1-0.2,0.3-0.3,0.5-0.3l1.2-0.2l0.8-0.1l0.5-0.1l1.2-0.2l1-0.1h0.7h0.5h0.8h0.1c-0.2,0.3-0.3,0.7-0.2,1
	c0,0.3,0.1,0.7,0.3,1h-0.1h-0.8h-0.5h-0.7l-1,0.1c-0.4,0-0.8,0.1-1.1,0.1l-0.5,0.1l-0.8,0.1L2040,60.9L2040,60.9z M2041.8,61.6
	C2041.9,61.6,2041.9,61.5,2041.8,61.6l0.2-0.3l0.4-0.1c0.3,0,0.7-0.1,1.1-0.1l1-0.1h0.7h0.5h0.8l1.2-0.1h0.4h0.9c0.6,0,1.2,0,2,0
	h1.4c0.7,0,1.4,0,2,0h0.9h0.4c0.1,0.2,0.3,0.4,0.6,0.7c0.3,0.9,0.4,1.8,0.4,2.8c0,3.2-1.7,4.8-3.3,6.4s-3.1,3-3.1,5.7
	c0,1.3,1,2.5,2.3,2.5c0.4,0,0.7-0.1,1-0.4c0.1-0.1,0.1-0.2,0-0.3l0,0c-0.4-0.4-0.6-0.9-0.7-1.4c0.7-0.3,1.5-0.5,2.3-0.5
	c0.9,0,1.8-0.3,2.5-0.8c1.4-1.2,2.3-3,2.5-4.8c0-0.6,0.2-1.2,0.4-1.7c0.2,0.4,0.4,0.9,0.6,1.3c0.4,1.1,0.9,2.1,1.6,3
	c-0.6,1.8-1,3.6-1.2,5.4c-1-0.5-2.1-0.7-3.2-0.7c-1,0-1.9,0.1-2.9,0.3c-2.3,0.5-4.8,2.5-7,4.2c-0.8,0.6-1.5,1.2-2.2,1.7l0,0
	c-0.6,0.4-1.2,0.8-1.8,1.1l-1,0.3h-0.4c-0.1-0.4-0.2-0.8-0.3-1.2l0,0c-0.2-0.8-0.4-1.5-0.7-2.2l0,0c-2.9-8.6-6.6-12-8.1-13.1
	c7.8-2.4,19.9-3.8,20.1-3.9h0.1c0.5-0.2,0.6-1.9,0.5-2.6c0-0.6-0.6-1.1-1.2-1.2c-1.9,0-7,3-7.7,3.4c-0.8,0.1-6.7,1-9.1,1.6v-0.4
	C2038.1,64.3,2039.9,62.7,2041.8,61.6L2041.8,61.6z M2061.8,81.6h-6.8c-0.1-0.1-0.2-0.2-0.3-0.3c1-0.7,2.2-1.1,3.4-1.2
	C2059.6,80.1,2060.9,80.6,2061.8,81.6L2061.8,81.6z M2041.1,81.6h-4.2c0.7-1.4,1.6-2.7,2.6-3.9C2040.1,79,2040.6,80.3,2041.1,81.6z
	 M2037.3,64.1c-0.5,0.5-1,1.1-1.3,1.8c0,0.1,0,0.1-0.1,0.2v0.8l-1.1,0.3c0-0.1,0.1-0.2,0.2-0.2s0.1-0.1,0.1-0.2s-0.1-0.1-0.2-0.2
	c-0.2-0.1-0.4-0.1-0.6-0.2s-0.5-0.2-0.6-0.4C2034.8,65.2,2036,64.6,2037.3,64.1L2037.3,64.1z M2026.4,70.3c1.3-1.1,2.9-1.8,4.5-2.3
	c-0.9,1-1.3,2.3-1.2,3.7c0,0.6,0.1,1.3,0.4,1.8c-0.8,0.4-1.6,0.7-2.5,0.8c-0.8-0.1-1.6-0.4-2.3-0.9c-0.4-0.2-0.8-0.4-1.1-0.6
	c-0.1,0-0.2-0.1-0.3-0.1C2024.6,71.9,2025.5,71.1,2026.4,70.3z M2018.3,97.1c0.2-1.6,1.9-5,6.7-9.6c-0.1,0.1-0.3,0.3-0.4,0.5
	c-1.3,1.9-1.1,4.7-1,5.5c0.1,1.3,0.6,2.5,1.2,3.6c0.2,0.3,0.3,0.5,0.6,0.7c-0.4-0.1-0.9-0.3-1.2-0.5c-0.6-0.3-1.2-0.6-1.9-0.6
	c-0.5,0-1,0.1-1.5,0.2c-0.6,0.1-1.2,0.2-1.9,0.2L2018.3,97.1L2018.3,97.1z M2026.3,97.7c-1.1-1.1-1.8-2.6-1.9-4.2
	c-0.3-1.7,0-3.5,0.8-5c0.3-0.4,0.7-0.9,1.1-1.2V97.7z M2021.6,107.9c0.5,0.2,0.9,0.5,1.3,0.8c0.1,0.1,0.3,0.2,0.4,0.3
	c0,0.1,0,0.1,0,0.2c0.4,0.8,0.2,1.7-0.4,2.3c-0.4,0.3-0.8,0.5-1.3,0.5c-0.3,0-0.5-0.1-0.8-0.2c0.2-0.2,0.3-0.4,0.4-0.6
	C2021.9,110.2,2022,108.9,2021.6,107.9L2021.6,107.9z M2023.8,115.5c-0.4,0.2-0.8,0.4-1.3,0.4c-0.2,0-0.5,0.1-0.8,0.1
	c-0.7,0-1.5-0.2-2.1-0.6c-1-0.6-1.5-1.8-1-2.9c0.2-0.6,0.6-1,1.2-1.1c0,0.2,0.1,0.4,0.3,0.6c0.4,0.4,0.9,0.7,1.5,0.7
	s1.3-0.2,1.8-0.7c0.6-0.4,0.9-1.1,0.9-1.9c0.4,0.5,0.7,1,0.8,1.6c0,0.1,0,0.2,0,0.3C2025.1,113,2025.2,114.7,2023.8,115.5
	L2023.8,115.5z M2022.3,101.6l-0.2-0.1c-0.6-0.2-0.7-0.2-0.8-0.5c1,0,2.3,0,2.9-0.6c0.3-0.3,0.5-0.6,0.8-0.9
	c0.3-0.4,0.6-0.8,0.9-1.1l0.4,0.2c0,2.9,0.1,5.8,0.5,8.7C2026.2,104.8,2024.5,102.7,2022.3,101.6L2022.3,101.6z M2026.3,81.6v3.6
	c-5.8,5-8.3,9.2-8.7,11.5c-2.2-0.6-3-2.9-3-4.9c0-2.6,4.9-6.5,8.8-9.6c0.2-0.1,0.2-0.3,0.1-0.5s-0.3-0.2-0.5-0.1
	c-0.5,0.3-1.1,0.4-1.7,0.4s-1.1-0.1-1.7-0.2c-0.4-0.1-0.8-0.1-1.2-0.2c-0.4,0-0.9,0.1-1.3,0.3c-0.9,0.4-1.9,0.5-2.8,0.5
	c-1.7,0-3.6-1.3-5.2-2.3c-0.5-0.3-1-0.6-1.4-0.9c0.5-0.2,0.9-0.5,1.3-0.8c0.7-0.6,1.6-0.9,2.5-1h1c0,1,0.3,2.1,1,2.8
	c0.4,0.4,0.6,0.9,0.6,1.4c0,0.1,0,0.2,0.1,0.3c0.1,0.1,0.2,0.1,0.3,0.1c1.6-0.3,3-1.1,4-2.3c0.3-0.4,0.8-1.1,1.4-1.8
	c0.2-0.2,0.3-0.4,0.5-0.7c1.1,0.3,1.9,0.2,2.3-0.2c0.2-0.2,0.2-0.4,0.2-0.6s-0.1-0.3-0.3-0.3c-0.4-0.1-0.8-0.4-1.1-0.8
	c-0.1-0.2-0.3-0.4-0.4-0.6c-0.3-0.5-0.4-1.1-0.4-1.7c0.9,0,1.8,0,2.6,0.2c0.2,0,0.4,0.1,0.6,0.2c0.4,0.2,0.7,0.4,1.1,0.6
	c0.8,0.6,1.7,0.9,2.7,1c0.9-0.1,1.9-0.4,2.7-0.8c0.2,0.4,0.5,0.7,0.8,1s0.5,0.6,0.7,1c0.1,0.2,0.3,0.3,0.5,0.2
	c0.1,0,0.2-0.2,0.2-0.3c0.4-0.4,0.8-0.8,1.2-1.2c0.9-0.6,1.7-1.4,2.2-2.3c1,1.1,1.9,2.3,2.7,3.6c0.1,0.2,0.2,0.4,0.3,0.7
	c-1.2,1.4-2.2,3-3.1,4.7L2026.3,81.6L2026.3,81.6z M2020.7,76.6l0.4-0.5c0.2,0.2,0.5,0.5,0.8,0.6c-0.1,0-0.3,0.1-0.4,0.1
	C2021.3,76.8,2021,76.7,2020.7,76.6L2020.7,76.6z M2036.8,116.6c-0.2-0.3-0.4-0.6-0.4-0.9c-0.1-0.5,0-0.9,0.2-1.3
	c0,0,0.1-0.1,0.2-0.1s0.2,0,0.3,0.1c0,0.1,0,0.2,0,0.3v0.1h0.1c0.2,0,0.4-0.2,0.4-0.5s-0.1-0.7-1-0.8l0,0c0-0.5-0.1-0.9-0.4-1.2
	h-0.1h-0.1c-0.3,0.3-0.5,0.8-0.4,1.2l0,0c-0.9,0.1-1,0.6-1,0.8s0.2,0.5,0.4,0.5h0.1v-0.1c0-0.1,0-0.2,0-0.3c0.1-0.1,0.2-0.1,0.3-0.1
	c0.1,0,0.1,0,0.2,0.1c0.2,0.4,0.3,0.9,0.2,1.3c0,0.3-0.2,0.7-0.4,0.9c-0.1,0.2-0.2,0.4-0.3,0.6v0.1h-1.9v-6.6
	c0.1-0.4,0.3-0.8,0.6-1.1l0.2-0.1c0.2-0.2,0.4-0.2,0.5,0h9.6c0.1-0.1,0.2-0.1,0.3-0.1c0.1,0,0.2,0.1,0.2,0.3v6.5l-1.1,1.1h-1.8v-0.1
	c0-0.2-0.1-0.4-0.3-0.6c-0.2-0.3-0.4-0.6-0.4-0.9c-0.1-0.5,0-0.9,0.2-1.3c0,0,0.1-0.1,0.2-0.1s0.2,0,0.3,0.1c0,0.1,0,0.2,0,0.3v0.1
	h0.1c0.2,0,0.4-0.2,0.4-0.5s-0.1-0.7-1-0.8l0,0c0-0.5-0.1-0.9-0.4-1.2h-0.1h-0.1c-0.3,0.3-0.5,0.8-0.4,1.2l0,0c-0.9,0.1-1,0.6-1,0.8
	s0.2,0.5,0.4,0.5h0.1v-0.1c0-0.1,0-0.2,0-0.3c0.1-0.1,0.2-0.1,0.3-0.1c0.1,0,0.1,0,0.2,0.1c0.2,0.4,0.3,0.9,0.2,1.3
	c0,0.3-0.2,0.7-0.4,0.9c-0.1,0.2-0.2,0.4-0.3,0.6v0.1h-2.5v-0.1C2037,117,2036.9,116.8,2036.8,116.6L2036.8,116.6z M2051.8,140.7
	c-5.7-3.3-10.6-7.5-14.7-12.6l14.7-16l14.7,16C2062.4,133.2,2057.4,137.5,2051.8,140.7L2051.8,140.7z M2054.5,104.3
	c-0.2-0.3-0.4-0.6-0.4-0.9c-0.1-0.5,0-0.9,0.2-1.3c0,0,0.1-0.1,0.2-0.1c0.1,0,0.2,0,0.3,0.1c0,0.1,0,0.2,0,0.3v0.1h0.1
	c0.2,0,0.4-0.2,0.4-0.5s-0.1-0.7-1-0.8l0,0c0-0.5-0.1-0.9-0.4-1.2h-0.1h-0.1c-0.3,0.3-0.5,0.8-0.4,1.2l0,0c-0.9,0.1-1,0.6-1,0.8
	s0.2,0.5,0.4,0.5h0.1v-0.1c0-0.1,0-0.2,0-0.3c0.1-0.1,0.2-0.1,0.3-0.1s0.1,0,0.2,0.1c0.2,0.4,0.3,0.9,0.2,1.3c0,0.3-0.2,0.7-0.4,0.9
	c-0.1,0.2-0.2,0.4-0.3,0.6v0.1h-2.5v-0.1c0-0.2-0.1-0.4-0.3-0.6c-0.2-0.3-0.4-0.6-0.4-0.9c-0.1-0.5,0-0.9,0.2-1.3
	c0,0,0.1-0.1,0.2-0.1c0.1,0,0.2,0,0.3,0.1c0,0.1,0,0.2,0,0.3v0.1h0.1c0.2,0,0.4-0.2,0.4-0.5s-0.1-0.7-1-0.8l0,0
	c0-0.5-0.1-0.9-0.4-1.2h-0.1h-0.1c-0.3,0.3-0.5,0.8-0.4,1.2l0,0c-0.9,0.1-1,0.6-1,0.8s0.2,0.5,0.4,0.5h0.1v-0.1c0-0.1,0-0.2,0-0.3
	c0.1-0.1,0.2-0.1,0.3-0.1s0.1,0,0.2,0.1c0.2,0.4,0.3,0.9,0.2,1.3c0,0.3-0.2,0.7-0.4,0.9c-0.1,0.2-0.2,0.4-0.3,0.6v0.1h-1.9v-6.6
	c0.1-0.4,0.3-0.8,0.6-1.1l0.2-0.1c0.2-0.2,0.4-0.2,0.5,0h9.6c0.1-0.1,0.2-0.1,0.3-0.1s0.2,0.1,0.2,0.3v6.5l-1.1,1.1h-1.8v-0.1
	C2054.7,104.7,2054.6,104.5,2054.5,104.3L2054.5,104.3z M2070.9,116.1l-1.1,1.1h-1.8v-0.1c0-0.2-0.1-0.4-0.3-0.6
	c-0.2-0.3-0.4-0.6-0.4-0.9c-0.1-0.5,0-0.9,0.2-1.3l0.1-0.1c0.1,0,0.2,0,0.3,0.1c0,0.1,0,0.2,0,0.3v0.1h0.1c0.2,0,0.4-0.2,0.4-0.5
	s-0.1-0.7-1-0.8l0,0c0-0.5-0.1-0.9-0.4-1.2h-0.1h-0.1c-0.3,0.3-0.5,0.8-0.4,1.2l0,0c-0.9,0.1-1,0.6-1,0.8s0.2,0.5,0.4,0.5h0.1v-0.1
	c0-0.1,0-0.2,0-0.3c0.1-0.1,0.2-0.1,0.3-0.1s0.1,0,0.1,0.1c0.2,0.4,0.3,0.9,0.2,1.3c0,0.3-0.2,0.7-0.4,0.9c-0.1,0.2-0.2,0.4-0.3,0.6
	v0.1h-2.5v-0.1c0-0.2-0.1-0.4-0.3-0.6c-0.2-0.3-0.4-0.6-0.4-0.9c-0.1-0.5,0-0.9,0.2-1.3l0.1-0.1c0.1,0,0.2,0,0.3,0.1
	c0,0.1,0,0.2,0,0.3v0.1h0.1c0.2,0,0.4-0.2,0.4-0.5s-0.1-0.7-1-0.8l0,0c0-0.5-0.1-0.9-0.4-1.2h-0.1h-0.1c-0.3,0.3-0.5,0.8-0.4,1.2
	l0,0c-0.9,0.1-1,0.6-1,0.8s0.2,0.5,0.4,0.5h0.1v-0.1c0-0.1,0-0.2,0-0.3c0.1-0.1,0.2-0.1,0.3-0.1s0.1,0,0.1,0.1
	c0.2,0.4,0.3,0.9,0.2,1.3c0,0.3-0.2,0.7-0.4,0.9c-0.1,0.2-0.2,0.4-0.3,0.6v0.1h-1.9v-6.6c0.1-0.4,0.3-0.8,0.6-1.1l0.1-0.1
	c0.2-0.2,0.4-0.2,0.5,0h9.6c0.1-0.1,0.2-0.1,0.3-0.1s0.2,0.1,0.2,0.3L2070.9,116.1L2070.9,116.1z M2074.3,110.5l-22.6-24.7
	l-22.6,24.7c-0.8-4.3-1.1-8.6-1-13V83.4h12c-0.6,0.6-1.1,1.4-1.6,2.1l-0.1,0.2l7.4,3.9l0.1-0.1c1.9-2.1,3.9-4.1,5.9-6.1h15.7
	c-0.1,0.8-0.5,1.5-1,2.1c-0.3-0.2-0.6-0.4-0.9-0.6c-0.5-0.2-1-0.6-1.4-1.1c-0.1-0.1-0.1-0.2-0.2-0.2c-0.1,0-0.2,0-0.3,0.1
	c-0.5,0.3-0.9,0.8-1.2,1.3l0,0l0,0c-0.1,0.2-0.3,0.5-0.3,0.8c-0.1,0.2-0.1,0.5,0,0.7v0.1c0,0,0,0.1,0.1,0.1c0.4,0.6,0.9,1,1.4,1.3
	c0.9,0.5,1.9,0.8,2.9,0.8c1.6,0.1,3.1-0.7,3.9-2.2c0.3,2.7,1.1,10.7,4.1,12.6h0.1h0.1l0.5-0.3C2075.4,102.8,2075,106.7,2074.3,110.5
	L2074.3,110.5z M2066.2,86c-0.5,0.5-1.2,0.9-1.9,1c-0.4,0-0.9-0.2-1.2-0.5l-0.1-0.2c-0.2-0.5,0.2-1.1,1-1.8c0.4,0.4,0.9,0.8,1.4,1
	C2065.7,85.6,2065.9,85.8,2066.2,86L2066.2,86z M2070,70.4c0.5,0.1,1,0.2,1.5,0.4c0.9,0.4,1.9,0.6,2.9,0.6c1.1-0.1,2.2-0.6,3.1-1.4
	c1.1,0.7,2.1,1.4,3,2.1l-0.3,0.2c-0.9,0.7-2.1,1.1-3.2,1.2C2073.2,73.4,2070.7,71.4,2070,70.4L2070,70.4z M2081.6,109.7
	c-0.7,0-1.4-0.4-1.8-1c0.3-0.4,0.6-0.7,1-1c0.2,0.8,0.7,1.5,1.3,2H2081.6z M2084.7,107.3c0,1.3-0.2,1.8-1.3,2.1
	c-1,0-1.4-0.9-1.9-2.1l-0.1-0.3c0-0.1-0.1-0.2-0.1-0.3c0.5,0,1.1-0.2,1.6-0.4l0.4-0.2l0.3-0.1c0.2,0,0.4-0.1,0.6-0.1l0,0
	C2084.5,106,2084.7,106.9,2084.7,107.3L2084.7,107.3z M2086.2,96.1c1.4-0.6,2.6-1.7,3.4-3.1c-0.3,2.3-1.1,4.5-2.3,6.5
	c0,0-0.1,0.1-0.1,0.2c-0.3,0.6-0.7,1.4-1,2.1c-0.3,0.9-0.8,1.7-1.3,2.5c-0.5,0.4-1,0.7-1.6,1h-0.1h-0.1h-0.1h-0.1h-0.1l-0.1,0.1
	h-0.1h-0.1l-0.1,0.1c-0.4,0.2-0.9,0.3-1.4,0.4c-0.2,0-0.4,0-0.5-0.1c-0.2,0-0.4,0.1-0.4,0.3c0,0.1,0,0.3,0.1,0.3l0.1,0.1l0,0
	l0.1,0.1l0,0l0.1,0.1l0,0c0,0,0,0.1,0.1,0.1l0,0c-0.4,0.3-0.7,0.6-1,0.9c-0.3-0.6-0.5-1.4-0.6-2.1c0-0.6,0-1.8,4-4.9
	c0.1-0.1,0.2-0.3,0.1-0.5c-0.1-0.1-0.2-0.2-0.4-0.2h-0.1c-0.3,0.1-0.6,0.1-0.8,0.1c-0.4,0-0.9-0.1-1.2-0.4c-0.1-0.1-0.2-0.2-0.4-0.4
	c-0.4-0.4-0.7-0.9-1.2-1.2c0.2-0.1,0.5-0.3,0.8-0.4c0.5-0.3,1.1-0.6,1.7-0.8c0.4-0.1,0.8-0.2,1.2-0.2c1.1-0.1,2.3-0.3,3.4-0.6
	C2086.1,96.1,2086.2,96.1,2086.2,96.1L2086.2,96.1z M2082.8,90.6c0.5,0.5,0.9,1,1.3,1.4c1.3,1.5,2.1,2.3,2,3.3l-0.2,0.1
	c-1.1,0.3-2.1,0.4-3.2,0.5c-0.5,0-0.9,0.1-1.4,0.2c-0.6,0.2-1.3,0.5-1.9,0.9c-0.4,0.3-0.8,0.5-1.3,0.6c-0.2,0-0.4,0.2-0.4,0.4
	c0,0.1,0.1,0.2,0.2,0.3c0.6,0.4,1.2,0.9,1.6,1.5c0.1,0.2,0.3,0.4,0.5,0.5c0.3,0.3,0.8,0.5,1.2,0.6c-2,1-3.5,2.7-4.4,4.7
	c0.3-2.9,0.3-5.7,0.3-8.2c1.4-1.2,2.3-3,2.2-4.8c0-2.1-1-4.3-1.9-6c-0.1-0.2-0.2-0.5-0.3-0.7v-0.8c0.8,0.9,1.8,1.8,2.7,2.6
	C2081,88.7,2081.9,89.6,2082.8,90.6L2082.8,90.6z M2082.6,75.7c0.3-0.2,0.6-0.4,0.9-0.8c0.2,0.2,0.3,0.5,0.5,0.7L2082.6,75.7z
	 M2095.1,72c-0.8,0.5-1.8,0.7-2.7,0.8c-1.3-0.1-2.5-0.3-3.7-0.7c-0.2-0.1-0.3,0-0.4,0.2c-0.1,0.2-0.1,0.4,0.1,0.5
	c1.1,0.9,1.9,2.2,2.3,3.6h-0.2c-1.8-0.3-3.7-0.4-5.6-0.5c-0.2-0.4-0.5-0.9-0.8-1.3c0.1-0.3,0.2-0.7,0.2-1c0-0.6,0.4-1.2,1-1.4
	c0.1-0.1,0.2-0.2,0.2-0.3c0-0.1,0-0.2-0.1-0.3c-0.1-0.1-0.2-0.2-2.8-0.2c-0.6,0-1.1,0.2-1.6,0.5c-0.8-0.6-1.7-1.2-2.8-1.9
	c0.4-0.4,0.8-0.7,1.2-1.1s0.8-0.7,1.2-1.1c0.2-0.1,0.3-0.2,0.2-0.4c0-0.2-0.2-0.3-0.4-0.3c-0.7-0.1-1.4-0.4-2-0.9
	c-1.1-0.8-2.4-1.3-3.7-1.4c-1,0-2,0.1-3,0.4c-0.6,0.2-1.2,0.2-1.8,0.2c-0.9-0.1-1.7-0.4-2.3-1.1c-0.1-0.1-0.2-0.2-0.2-0.4
	c1,0.2,2,0.3,3,0.3c3.8-0.1,6.9-3,7.1-6.8c0-2-1.5-4.1-2.7-5.5c-0.2-0.4-0.4-0.8-0.5-1.2c0-0.9,0.1-1.8,0.3-2.7
	c0.1-0.4,0.1-0.7,0.2-1c0.5,0.2,1,0.5,1.6,0.7c1.1,0.3,2.2,0.9,3.2,1.6c1.1,0.9,1.6,2.2,1.3,3.6V53c0,0.2,0.1,0.4,0.3,0.5
	c0.2,0,0.4-0.1,0.4-0.3v-0.1c0.4-1.5,1.5-2.8,3.1-3.3l0.5-0.2c0.1,0.2,0.1,0.5,0.2,0.8c0.3,0.9,0.5,1.9,0.4,2.8
	c-0.4,1.2-1,2.2-1.9,3.1c-0.4,0.4-0.6,1-0.7,1.5c-0.1,0.8-0.4,1.5-0.9,2l-3.2,3c-0.1,0.1-0.2,0.3-0.1,0.5c0.1,0.2,0.3,0.2,0.5,0.1
	c0.8-0.4,1.7-0.8,2.6-1.2c3.3-1.4,6.7-2.9,9-5.8c1.3-1.6,2-3.7,2-5.7c2.5,1.2,3.9,3.3,4,4.9v0.2c0,4.5-2.3,8-13.5,11.2
	c-0.2,0-0.3,0.2-0.3,0.4c0,0.2,0.2,0.3,0.4,0.3c2.9,0,3,0.3,3,0.5c0.1,0.4,0.4,0.6,0.8,0.7c0.3,0.1,0.6,0.1,0.9,0.1h0.7h0.7
	c0.5,0,0.9,0.1,1.3,0.2c0.8,0.4,1.5,1,2.1,1.6c0.6,0.5,1.2,1,1.8,1.5l0,0L2095.1,72z"/>
<g id="Page-1">
	<g id="tudelft">
		<g id="Page-1-2">
			<g id="tudelft-2">
				<path id="Shape" class="st0" d="M394.3,86.4v22c-0.1,8.4-6.2,13.4-16.4,13.4s-16.3-5-16.4-13.4v-22h9.2v21.5
					c0,4.6,2.8,7.5,7.2,7.5s7.2-2.9,7.2-7.5V86.4H394.3z"/>
				<polygon id="Shape-2" class="st0" points="356.5,86.4 356.5,92.7 345.7,92.7 345.7,121 336.5,121 336.5,92.7 325.7,92.7 
					325.7,86.4 				"/>
				<path id="Shape-3" class="st0" d="M335.5,79.5l-0.1-0.3c-1.8-8.1,2.5-14.6,12.7-19.2c2.3-0.9,4.6-1.7,7-2.2
					c4.2-1.1,8.5-2.2,11.5-5.2l0.7-1.1c0.3,0,0.3,0.6,0,1.5c-0.7,1.8-3.2,3.6-5.9,5.5c-3.4,2.4-6.9,4.8-6.9,7.6
					c-0.1,1.1,0.4,2.2,1.2,2.9c1.2,0.7,2.6,0.8,3.8,0.3c1.3-0.5,2.4-1.2,3.5-2.1l0.2-0.2c0.1-0.1,0.4-0.4,0.5-0.4s0.1,0.3-0.1,0.8
					c-1.9,6.5-8.6,15.8-16.5,16.3H346c0-0.1,0.5-0.3,0.9-0.5l1.4-0.8c3.2-2.5,4.1-5,4.8-9.1c0.1-0.5,0.2-1.5-0.2-1.7s-0.6,0.3-1,0.9
					c-1,1.7-3.1,3.3-4.8,3.2c-0.9-0.1-1.7-0.7-2-1.6c-0.6-1.5,0.4-2.9,1.5-4.6c1-1.3,1.8-2.9,2.3-4.5l0.1-1.3h-0.3
					c-0.3,0-0.7,0.4-1.1,1.2c-1,1.7-2.8,3.1-4.8,4.6c-3.2,2.4-6.5,4.9-6.5,9.6c0.1,0.8,0,1.6-0.2,2.3
					C335.8,80.9,335.6,80.2,335.5,79.5"/>
				<path id="Shape-4" class="st0" d="M437.1,109.2c0-6.2,2.9-12.9,11-12.9c6.4,0,10.5,4.3,10.5,11.3v2.1h-17.2v0.2
					c0,5.7,2.3,8.9,6.4,8.9c3.6,0,5.5-1.5,6-4.9h4.4c-0.8,5-4.5,7.9-10.5,7.9C438.5,121.7,437.1,113.9,437.1,109.2 M441.4,106.7v0.2
					h12.7v-0.2c0-4.8-2.3-7.4-6.4-7.4S441.5,103,441.4,106.7"/>
				<rect id="Rectangle-path" x="464.5" y="86.4" class="st0" width="4.2" height="34.6"/>
				<path id="Shape-5" class="st0" d="M478.7,97h0.2v-4.7c0-4.2,2.8-6.6,7.4-6.6l3.1,0.5v3.4h-0.6l-1.5-0.1c-2.7,0-4.2,0.6-4.2,3.5
					v4h5.6v2.8h-5.6V121h-4.2V99.8h-4.7V97H478.7z"/>
				<path id="Shape-6" class="st0" d="M500,90.5V97h5.6v2.8H500v16c0,1.7,1.2,2.8,3.2,2.8l2.2-0.3v3.1l-2.9,0.3
					c-6.6,0-6.6-3-6.6-6.2V99.8h-4.1V97h4.1v-5.2L500,90.5"/>
				<path id="Shape-7" class="st0" d="M408.9,90.1h-0.2v27.1h7.3c7.2,0,11.6-5.1,11.6-13.5s-4.3-13.6-11.6-13.6H408.9z M416,86.4
					c15.1,0,16.2,13.2,16.2,17.3S431.1,121,416,121h-11.7V86.4H416z"/>
				<path id="Shape-8" class="st0" d="M377.8,115.1c4.5,0,7-3,7-7.3V86.2h9.6v22.2c-0.1,9.8-7.9,13.6-16.6,13.6s-16.5-3.8-16.6-13.6
					V86.2h9.6v21.7C370.9,112.1,373.3,115.1,377.8,115.1"/>
				<polygon id="Shape-9" class="st0" points="336.2,121.2 345.9,121.2 345.9,92.9 356.7,92.9 356.7,86.2 325.5,86.2 325.5,92.9 
					336.2,92.9 				"/>
				<path id="Shape-10" class="st0" d="M359.4,69.1c-2.4,0.7-4.8,0.2-4.8-3c0-4.8,11.3-8.9,12.8-13.1c0.4-1,0.4-1.9-0.1-1.9
					s-0.1,0.5-0.9,1.3c-4.7,4.7-12.5,4.7-18.5,7.4c-3.9,1.8-15.5,7.2-12.8,19.4c0.1,0.6,0.5,2.5,0.8,2.5s0.4-1.2,0.4-2.6
					c-0.1-7.2,8.4-9.3,11.2-14c0.3-0.6,0.9-1.4,1-1c0.1,0.3,0,0.6-0.1,0.9c-0.9,3.9-4.9,6.4-3.8,9.2c1.5,3.6,5.8,0.9,7.1-1.4
					c0.4-0.6,0.5-1,0.8-1s0.2,0.8,0.1,1.4c-0.7,4.2-1.7,6.5-4.7,8.9c-1,0.8-2.5,0.9-2.3,1.5c0,0.2,0.7,0.1,1.2,0.1
					c8.1-0.5,14.9-10.2,16.7-16.4c0.2-0.4,0.2-0.9,0-1s-0.6,0.2-1,0.6c-1,0.9-2.1,1.6-3.4,2"/>
				<path id="Shape-11" class="st0" d="M458.8,109.9v-2.3c0-6.7-3.8-11.5-10.6-11.5c-7.7,0-11.2,6-11.2,13.1s3.1,12.7,10.8,12.7
					c5.8,0,10-2.8,10.8-8.3h-4.8c-0.5,3.5-2.3,4.9-5.9,4.9c-4.7,0-6.2-4.2-6.2-8.7L458.8,109.9z M441.7,106.7c0-3.8,2.3-7.2,6.1-7.2
					c4.4,0,6.2,3.1,6.2,7.2H441.7z"/>
				<rect id="Rectangle-path-2" x="464.3" y="86.2" class="st0" width="4.6" height="35"/>
				<path id="Shape-12" class="st0" d="M483.3,121.2V100h5.6v-3.2h-5.6v-3.9c0-2.8,1.4-3.3,4-3.3c0.8,0,1.5,0.1,2.3,0.1v-3.8
					c-1.1-0.3-2.2-0.5-3.3-0.5c-4.3,0-7.6,2.2-7.6,6.8v4.6H474v3.2h4.7v21.1L483.3,121.2z"/>
				<path id="Shape-13" class="st0" d="M491.5,96.8v3.2h4.1v15.5c0,3.2,0,6.3,6.9,6.3c1,0,2.1-0.1,3.1-0.3V118
					c-0.8,0.2-1.6,0.3-2.4,0.3c-1.6,0-3-0.8-3-2.6V100h5.6v-3.2h-5.6v-6.6l-4.6,1.4v5.2H491.5z"/>
				<path id="Shape-14" class="st0" d="M408.9,90.3h7.1c8,0,11.4,6.1,11.4,13.3S424.1,117,416,117h-7.1V90.3z M404.1,121.2h12
					c14.9,0,16.4-12.7,16.4-17.5s-1.6-17.5-16.4-17.5h-12V121.2L404.1,121.2z"/>
			</g>
		</g>
	</g>
</g>
<path class="st0" d="M563.3,74.6h35.9l-0.3,1.1c-0.7,2.3-1.3,4.6-2,6.8c0,0.2-0.2,0.4-0.5,0.4l0,0c-3.5,0-7.1,0-10.7,0
	c-0.5,0-0.5,0-0.5,0.5c0,12.4,0,24.8,0,37.3v0.5h-10.7v-0.5c0-12.4,0-24.7,0-37.1c0-0.1,0-0.2,0-0.3c0-0.3-0.1-0.3-0.3-0.3h-10.9
	V74.6z"/>
<path class="st0" d="M644.3,132.8L648,120l12.3-42.9c1.3-4.6,4.1-14.2,4.1-14.2h7.4c0,0-8.6,29.9-12.8,44.7l-7.2,25
	c0,0.1,0,0.1-0.1,0.2H644.3z"/>
<path class="st0" d="M638.6,74.7c0,0.1,0,0.2,0,0.2c0,11,0,21.9,0,32.9c0,2.4-0.5,4.7-1.6,6.8c-1.3,2.4-3.5,4.3-6.1,5.3
	c-1.8,0.7-3.8,1.1-5.7,1.3c-2,0.2-4.1,0.2-6.2,0c-2.9-0.2-5.7-1.1-8.2-2.6c-2.5-1.7-4.2-4.2-4.8-7.1c-0.3-1.4-0.5-2.8-0.5-4.2
	c0-10.8,0-21.6,0-32.3v-0.3h10.1v0.5c0,9.8,0,19.7,0,29.5c0,1.4,0.1,2.8,0.5,4.1c0.6,2.2,2.6,3.8,4.9,3.9c1.1,0.1,2.2,0,3.3-0.2
	c1.9-0.5,3.3-2,3.7-3.8c0.3-1.3,0.5-2.7,0.5-4c0-9.8,0-19.7,0-29.5v-0.5L638.6,74.7z"/>
<path class="st0" d="M696.4,107.8h-17.1c-0.5,0-0.5,0-0.5,0.4c0,1.4,0.3,2.7,0.8,4c0.9,2,2.8,3.3,5,3.2c3,0.1,5.9-0.9,8.1-2.8
	l0.2-0.2l3.1,4.8c-0.1,0-0.1,0.1-0.2,0.1c-2.3,1.9-5.1,3.2-8,3.8c-1.7,0.3-3.4,0.3-5.1,0.1c-1.7-0.2-3.4-0.6-4.9-1.4
	c-2.9-1.4-5.1-3.9-6.2-6.9c-1.1-2.8-1.5-5.8-1.3-8.8c0.1-2.1,0.5-4.2,1.2-6.2c0.8-2.4,2.4-4.5,4.4-6.1c1.5-1.2,3.4-1.9,5.3-2.2
	c2.3-0.4,4.7-0.2,7,0.5c3.1,1,5.5,3.3,6.7,6.3c0.8,2,1.3,4.1,1.4,6.2c0.1,1.6,0.1,3.2,0.1,4.7C696.4,107.5,696.4,107.6,696.4,107.8z
	 M678.9,102h9.2c0.1-1.6-0.1-3.2-0.8-4.7c-0.5-1-1.4-1.7-2.5-1.9c-0.5-0.1-1-0.1-1.5-0.1c-1.1,0-2.2,0.5-2.8,1.4
	C679.3,98.2,678.8,100.1,678.9,102z"/>
<path class="st0" d="M861,121.1h-5.6L849,91.2h5l4.3,23.8h0.3l4.9-23.8h5.5l4.5,23.8h0.3c0.2-1.1,0.5-2.2,0.7-3.3
	c1.2-6.4,2.4-12.8,3.6-19.2c0.2-1,0.5-1.5,1.6-1.4c1,0.1,2.1,0.1,3.1,0c-0.1,0.6-0.1,1-0.2,1.5c-2,9.1-4.1,18.2-6.1,27.4
	c-0.2,0.9-0.5,1.3-1.5,1.2c-0.7,0-1.3,0-2,0c-2.3,0-2.3,0-2.7-2.2c-1.3-6.9-2.6-13.9-3.9-20.8c-0.1-0.3-0.2-0.6-0.4-1.3L861,121.1z"
	/>
<path class="st0" d="M922.5,91.1h4.2v30c-2.2,0-4.4,0-6.7-0.1c-0.3,0-0.7-0.7-0.9-1.2c-2-5.7-4-11.4-5.9-17.1
	c-0.7-2.1-1.5-4.3-2.5-6.3v24.5h-4v-30c2.1,0,4.3,0,6.4,0c0.3,0,0.6,0.6,0.8,1c2.7,7.6,5.3,15.3,8,22.9c0.1,0.3,0.3,0.5,0.5,0.6
	L922.5,91.1z"/>
<path class="st0" d="M817.5,76.4V52h4.2v30c-2.2,0-4.4,0-6.6,0c-0.2,0-0.6-0.5-0.7-0.8c-2.6-7.5-5.2-14.9-7.8-22.4
	c-0.1-0.4-0.4-0.8-0.7-1.1V82H802V52c2.1,0,4.2,0,6.3,0.1c0.3,0,0.7,0.8,0.8,1.2c2,5.7,3.9,11.3,5.9,17c0.7,2.1,1.5,4.2,2.2,6.3
	L817.5,76.4z"/>
<path class="st0" d="M894.3,81.9l-0.4-6.1c-0.1-1.3-0.1-2.7-0.3-4c-0.3-2.2-0.9-2.8-3.1-3c-1.3-0.1-2.7-0.1-4,0V82h-4.6V52
	c0.5,0,1-0.1,1.4-0.1c3,0,6.1,0.1,9.1,0.1c5.4,0.1,6.9,3.9,6.6,8.5c0,2.8-1.7,5.3-4.3,6.2c3.3,0.6,3.7,3,3.9,5.4
	c0.2,3.2,0.3,6.4,0.5,9.7L894.3,81.9z M886.6,64.9c3.8,0.4,6.1-0.1,7-1.7s1-5-0.2-6.3c-1.9-2-4.4-1.3-6.8-1.4V64.9z"/>
<path class="st0" d="M777.8,97.7c0.6-4.2,3.2-6.6,7.4-7.1c1.1-0.1,2.2-0.1,3.3,0c4.4,0.4,6.8,2.5,7.5,6.9c0.8,5.7,0.8,11.5-0.1,17.2
	c-0.9,5.7-5,7.3-10.4,6.9c-6-0.4-7.6-4.1-8-8.9c-0.2-2.1,0-4.2,0-6.3C777.4,103.5,777.5,100.6,777.8,97.7z M782.1,109.7
	c0.1,1.9,0.4,3.8,0.8,5.7c0.3,1.7,1.9,2.8,3.5,2.7c1.8,0.2,3.4-0.7,4.1-2.4c0.4-0.9,0.6-1.8,0.7-2.7c0.2-3.3,0.3-6.6,0.3-9.9
	c0-2-0.3-3.9-0.7-5.8c-0.4-1.8-2-3.1-3.9-3.1c-1.9-0.1-3.6,1.2-4.1,3.1c-0.3,0.9-0.5,1.8-0.6,2.7C782.2,102,782,108.5,782.1,109.7
	L782.1,109.7z"/>
<path class="st0" d="M777.4,52h4.6v1.6c0,6.3,0,12.5,0,18.8c0,1.1,0.1,2.2,0.4,3.3c0.4,2.1,2.3,3.5,4.4,3.3c2,0.1,3.8-1.3,4.2-3.2
	c0.3-1.1,0.4-2.2,0.4-3.3c0-6.2,0-12.4,0-18.7v-1.7h4.6c0,0.4,0.1,0.9,0.1,1.3c0,6.4,0.1,12.9,0,19.3c-0.1,1.6-0.3,3.2-0.7,4.7
	c-0.5,2.4-2.5,4.3-5,4.6c-2.2,0.4-4.5,0.4-6.8,0.1c-3.5-0.5-5.5-3-6-6.6c-0.1-0.4-0.1-0.8-0.1-1.2C777.4,66.9,777.4,59.6,777.4,52z"
	/>
<path class="st0" d="M903.8,73.2h4.7c0.1,0.9,0.2,1.8,0.4,2.7c0.4,2.1,1.8,3.1,4.1,3c1.9,0.1,3.6-1.4,3.7-3.3c0.3-2-0.6-4.1-2.4-5.1
	c-1.8-1.2-3.7-2.3-5.5-3.5c-2.2-1.5-4-3.3-4.4-6.1c-0.8-5.5,2-9.1,7.6-9.4c1.2-0.1,2.5,0,3.7,0.2c4,0.6,6.2,3.9,5.6,8.4h-4.6
	c0-0.4-0.1-0.8-0.1-1.2c-0.1-2-0.9-3.2-2.4-3.7c-1.6-0.5-3.3,0-4.4,1.3c-1,1.5-0.9,3.5,0.1,5c0.7,0.7,1.4,1.4,2.2,1.9
	c2.2,1.6,4.6,3,6.8,4.6c3.2,2.4,3.1,5.9,2.4,9.3c-0.7,3.1-3,4.7-6.1,5c-2,0.2-4.1,0.2-6.1-0.2c-3.4-0.6-5.1-3.1-5.2-7.3
	C903.8,74.3,903.8,73.8,903.8,73.2z"/>
<path class="st0" d="M957.3,103.8h9.4v3.6h-9.4v10h10.4v3.7h-15.1V91.2h14.8v3.6h-10.1L957.3,103.8z"/>
<path class="st0" d="M901.2,94.8h-10v8.9h9.3v3.6h-9.3v10h10.2v3.7h-15V91.2h14.7L901.2,94.8z"/>
<path class="st0" d="M844.6,82L837,52c1.6,0,3-0.1,4.3,0c0.3,0,0.8,0.7,0.9,1.1c1.7,7.4,3.3,14.7,4.9,22.1c0.1,0.5,0.3,1,0.6,1.5
	c0.4-1.7,0.8-3.5,1.2-5.2c1.4-6.1,2.8-12.2,4.2-18.3c0.2-0.9,0.5-1.3,1.5-1.2s2.1,0,3.4,0c-0.5,1.7-0.8,3.3-1.3,5
	c-2.1,8-4.2,16-6.3,24c-0.2,0.9-0.6,1.2-1.4,1.1C847.6,81.9,846.2,82,844.6,82z"/>
<path class="st0" d="M866.3,68.2v10.1h10.4V82h-15V52h5.2c2.8,0,5.5,0,8.3,0c1,0,1.4,0.3,1.3,1.3c-0.1,0.8,0,1.5,0,2.4h-10.3v8.9
	h9.5v3.6H866.3z"/>
<path class="st0" d="M967.5,82h-4.8c0-1.6-0.1-3.2,0-4.7c0.4-4.6-0.6-9.3-2.8-13.4c-1.9-3.8-3.3-7.8-5.1-11.9c1.7,0,3.3-0.1,4.8,0
	c0.3,0,0.7,0.6,0.9,1c1.5,4,3,8,4.6,12c0.1,0.2,0.2,0.4,0.4,0.9c0.9-2.4,1.8-4.5,2.6-6.6s1.7-4.2,2.4-6.4c0.1-0.7,0.8-1.1,1.5-1
	c1.2,0.1,2.4,0,3.8,0c-1.1,2.4-2,4.6-3,6.8c-1.6,3.7-3.3,7.3-4.9,11c-0.2,0.6-0.4,1.2-0.4,1.8C967.4,75,967.5,78.4,967.5,82z"/>
<path class="st0" d="M816.1,91.2v3.6h-9v9.1h8.6v3.6H807V121h-4.8V91.2H816.1z"/>
<path class="st0" d="M835.4,94.8h-6.7v-3.6H847v3.7h-6.8v26.2h-4.8V94.8z"/>
<path class="st0" d="M941.9,121.1h-4.7V94.9h-6.9v-3.7h18.4v3.6h-6.9L941.9,121.1z"/>
<path class="st0" d="M942.4,81.9V55.7h-6.9V52H954v3.6h-6.8v26.3C947.2,81.9,942.4,81.9,942.4,81.9z"/>
<path class="st0" d="M931.8,52v29.9h-4.6V52H931.8z"/>
<path class="st0" d="M833.4,52.1V82h-4.7V52.1H833.4z"/>
<path class="st0" d="M973.9,121.8c-1.3,0-2.4-1-2.4-2.4v-0.1c0-1.3,1-2.4,2.3-2.4c0.1,0,0.2,0,0.3,0c1.2-0.1,2.3,0.9,2.3,2.1
	c0,0.1,0,0.3,0,0.4c0.1,1.2-0.9,2.3-2.1,2.4C974.2,121.8,974,121.8,973.9,121.8z"/>
<path class="st0" d="M2362.8,63.6c3.1-0.1,165.6-5.9,168.6-6l2.1,63.9c-4,0.1-157.1,5.5-167,5.9c-1.6,0.1-1.5,0.3-1.6-1.5
	c-0.4-10.4-0.7-20.7-1.1-31.1c-0.2-6.1-0.3-12.1-0.6-18.2c-0.1-3.9-0.4-7.7-0.6-11.6C2362.8,64.5,2362.8,64.1,2362.8,63.6z
	 M2387,70.7c-0.1-0.1-0.3-0.1-0.4-0.2c-3.4-1.7-7.3-1.7-10.7,0.1c-2.8,1.4-4.6,3.6-4.5,6.9c-0.1,3,1.9,5.7,4.7,6.6
	c2.7,1,5.4,1.6,8.1,2.5c1.2,0.3,2.3,0.8,3.4,1.3c1.1,0.6,1.6,2,1,3.1c-0.2,0.5-0.6,0.8-1.1,1.1c-0.5,0.3-1.1,0.5-1.6,0.6
	c-2.4,0.4-4.9-0.2-6.8-1.6c-1.7-1.2-3.1-2.8-4-4.6c-0.1-0.3-0.6-0.7-0.8-0.6c-1,0.2-2,0.5-3,0.8c0.6,3,1.2,5.8,1.9,8.7
	c0.4,1.7,0.4,1.7,2.2,1.7c0.6,0.1,1.3-0.3,1.4-1l0,0c0.1-0.3,0.3-0.6,0.4-0.9c0.1,0,0.2,0,0.2,0c0.4,0.2,0.7,0.4,1.1,0.6
	c4.4,2.2,8.8,2.1,12.9-0.7c5.4-3.6,4.6-11.1-1-13.4c-1-0.4-2-0.8-3-1.1c-2.1-0.6-4.3-1.1-6.4-1.7c-0.9-0.2-1.7-0.6-2.4-1.1
	c-1.6-1.3-1.2-3,0.7-3.7c0.3-0.1,0.7-0.2,1.1-0.3c1.7-0.2,3.3,0.1,4.8,0.8c1.9,1,3.4,2.5,4.5,4.3c0.2,0.3,0.6,0.6,0.9,0.5
	c1-0.2,1.9-0.6,3-1c-0.7-2.4-1.4-4.8-2.1-7.1c-0.6-1.9-0.6-2-2.5-1.7C2388.2,69.6,2387.7,70.2,2387,70.7z M2470,93.7l11.2-0.4
	l-0.2-3.6c-2.8-0.1-2.9-0.1-3-2.7s-0.2-5.5-0.3-8.2c0-1.7-1-3.3-2.6-4.1c-2.3-1.2-5-1.1-7.2,0.1c-1,0.5-2,1.1-3,1.8l-0.2-2.7l-8,2.3
	l0.2,3.6h2.8c0.1,3.2,0.2,6.3,0.3,9.4c0.1,0.6-0.3,1.2-1,1.3c-0.1,0-0.2,0-0.3,0c-0.5,0-0.9,0.1-1.5,0.2l0.2,3.6l10.9-0.4v-3.7
	c-1.1,0-2.2,0.1-2.2-1.4c0-2.5-0.2-5-0.2-7.5c0-0.3,0.1-0.6,0.3-0.8c1-0.7,2-1.2,3.1-1.6c1.7-0.5,2.5,0.2,2.6,2
	c0.1,2.4,0.2,4.8,0.3,7.2c0.1,1.9,0,2-1.9,2.2c-0.1,0-0.1,0.1-0.2,0.1L2470,93.7z M2524.9,82.2c0.1-2.6-0.7-5.1-2.4-7.1
	c-3.5-4-11-3.7-14.7,0.5s-3.4,10.7,0.9,14.4c2.1,1.9,4.9,2.8,7.6,2.5c3.9-0.3,6.7-2.3,9-5.3l-2.4-2.3c-1.3,1-2.8,1.9-4.2,2.7
	c-2.4,1-5.2-0.2-6.2-2.6c-0.3-0.8-0.4-1.6-0.3-2.4L2524.9,82.2z M2440.9,85.2l1.3-0.1c3.5-0.1,7-0.2,10.5-0.3c0.9,0,1-0.3,1-1.1
	c-0.3-5.8-4.4-9.4-10.2-8.8c-4.1,0.4-7.2,2.3-8.6,6.2c-2.1,5.2,0.5,11.2,5.7,13.3c1.7,0.7,3.6,0.9,5.5,0.6c3.5-0.5,6.1-2.5,8.2-5.2
	l-2.6-2.4c-0.7,0.7-1.5,1.3-2.3,1.9c-1.7,1.2-3.5,1.9-5.5,0.9S2441.1,87.5,2440.9,85.2L2440.9,85.2z M2414.7,88.5
	c-0.7,0.7-1.4,1.3-2.1,1.8c-2.3,1.9-5.2,2-7.1,0.1c-2.2-2.1-2.4-6.8-0.4-9.1c0.9-1.3,2.7-1.6,4-0.7c0.4,0.3,0.7,0.6,0.9,1
	c0.3,0.5,0.6,1,0.8,1.4c0.8,1.5,2.6,2,4.1,1.3l0,0c1.5-0.6,2.2-2.3,1.5-3.8c0-0.1-0.1-0.2-0.1-0.2c-0.5-0.9-1.1-1.7-1.9-2.3
	c-3.3-2.6-9.3-2.7-13-0.2c-3.6,2.4-5.3,6.8-4.2,11c1.1,4.1,4.6,7.1,8.9,7.5c4.3,0.4,9.3-2.1,11.1-5.7L2414.7,88.5z M2500.3,85.5
	c-0.6,0.6-1.1,1-1.7,1.5c-3.5,3.3-8,2-9.1-2.6c-0.7-2.2-0.2-4.5,1.3-6.2c1-1.2,2.8-1.4,4-0.4c0.3,0.3,0.6,0.6,0.8,1
	c0.3,0.4,0.5,0.9,0.8,1.3c0.9,1.5,2.8,1.9,4.3,1.1c1.4-0.8,1.9-2.5,1.2-4c-0.4-0.8-1-1.4-1.7-2c-2.8-2.2-6-2.5-9.3-1.8
	c-5.5,1.1-9,6.4-7.9,11.9c0.6,2.8,2.3,5.2,4.7,6.7c4.9,2.9,11.8,0.9,15.2-4.3L2500.3,85.5z M2422.9,81c0.1,3.3,0.2,6.5,0.3,9.6
	c0.1,0.5-0.3,1.1-0.9,1.1c-0.1,0-0.1,0-0.2,0l-1.5,0.1v3.7l11.7-0.4c0-0.9-0.1-1.6,0-2.4c0.1-1-0.2-1.4-1.3-1.2
	c-1.4,0.2-1.6-0.2-1.7-1.5c-0.1-3.7-0.2-7.5-0.4-11.2c0-1.1-0.1-2.2-0.2-3.5l-8.6,2.4v3.2L2422.9,81z M2384.1,103.8
	c-4.6-1.8-9.4-0.1-11.3,4.1c-2,4.6-0.2,10,4,12.1s9.8,0.1,12.3-4.6l-1.6-1.1c-1.2,1.1-2.4,2.1-3.7,3c-1.9,1.2-4.4,0.6-5.6-1.2
	c-1.3-1.8-1.8-4-1.4-6.2c0.3-2,1.3-3.5,3.4-3.9s3.6,0.6,4.7,2.2c0.4,0.6,0.8,1.2,1.2,1.8l2.2-0.7c-0.6-1.8-1.1-3.5-1.6-5.2
	c-0.2-0.7-0.6-1-1.3-0.8C2385.1,103.3,2384.6,103.5,2384.1,103.8L2384.1,103.8z M2413,116.9c-1.2,0.2-1.5-0.4-1.4-1.3s0-2.1-0.1-3.1
	c-0.1-1.6,0.4-2.3,2-2.7c1.1-0.3,1.6,0,1.6,1.1c0.1,1.4,0.1,2.8,0.2,4.2c0.1,1,0,1.9-1.4,1.9l0.1,2.1h7.1l-0.1-2.3
	c-1.8-0.3-1.8-0.3-1.9-2.1s-0.1-3.4-0.3-5.1c-0.1-1.5-1.4-2.8-2.9-2.9c-1.5-0.2-3,0.2-4.2,1l-0.9,0.6c-0.2-1.7-0.3-1.8-1.8-1.3
	c-0.6,0.2-1.1,0.4-1.7,0.6c-1.9,0.6-1.9,0.6-1.8,2.5c0,0.1,0.1,0.1,0.1,0.2l1.8,0.1c0,1.6,0,3.1,0,4.6c0,1.8,0.1,1.8-1.7,2.2
	l0.1,2.1h7v-2.4H2413z M2469,101.2c2.1,0.2,2.1,0.3,2.2,2.3c0.1,3.6,0.2,7.2,0.4,10.8c0.1,1.5-0.1,1.7-1.5,2
	c-0.3,0.1-0.4,0.5-0.6,0.8l0.3,0.3c3.4-0.2,6.7-0.2,10.1-0.5c1.9-0.1,3.6-1,4.8-2.4c2.2-2.6,2.7-6.3,1.3-9.5c-1.1-2.7-3-4.6-6-4.8
	c-3.6-0.2-7.2-0.1-10.9-0.1L2469,101.2z M2402.1,115.2c-1.5,1.4-2.9,2.7-5,1.8c-1.1-0.5-1.8-1.7-1.6-3l7.9-0.3
	c0.1-1.5-0.4-3-1.3-4.3c-1.7-2-4.4-2.6-6.9-1.7c-2.5,0.8-4.2,3.1-4.3,5.7c-0.1,2.9,1.7,5.6,4.6,6.5c3.1,0.9,6.4-0.4,8.1-3.1
	L2402.1,115.2z M2457.1,113.2c-1.6,1.4-3,2.8-5.1,1.8c-1.2-0.6-1.9-1.9-1.6-3.2h7.9c0.2-2-0.6-4-2.2-5.3c-2.5-1.6-5.7-1.4-8,0.4
	c-2.2,1.9-2.9,5.1-1.6,7.8c2.4,4.7,8.9,4.8,12,0.3L2457.1,113.2z M2423.9,109.4c0,0.4,0,0.8,0,1.2c0.1,1.7,0.1,3.5,0.2,5.2
	c0,1.1,0.7,2.2,1.7,2.6c2.1,0.9,4.4,0.8,6.4-0.3c0.2-0.2,0.3-0.4,0.3-0.6c0-0.7-0.1-1.3-0.1-2c-0.8,0.3-1.6,0.5-2.4,0.7
	c-0.9,0.1-1.8-0.1-1.9-1.2c-0.2-1.9-0.2-3.8-0.4-5.7l3.8-0.2v-2.6h-3.8l-0.2-4c-2-0.4-2-0.2-2.6,1.4c-0.4,0.9-1,1.8-1.7,2.5
	c-1.2,1-1.4,1.4-0.9,3H2423.9z M2439.4,105.7l-5.1,1.5l0.1,2.3h1.9c0,1.7,0,3.3,0,4.9s0,1.6-1.5,1.9c-0.1,0-0.1,0.1-0.2,0.2
	c0,0.5,0,1.1,0,1.6c0,0.2,0.3,0.5,0.5,0.5c2.3,0,4.6-0.1,7-0.2l-0.1-2.3c-1.8-0.3-1.8-0.3-1.9-2.1c0-0.8,0-1.6-0.1-2.4
	c-0.1-1.8,0.1-2,2-1.6c0.9,0.3,1.9,0,2.4-0.9c0.5-0.8,0.4-1.8-0.2-2.5c-0.5-0.7-1.4-1-2.2-0.6s-1.7,0.9-2.4,1.4L2439.4,105.7z
	 M2499.5,109.4c0.2-2.3-1.3-4.5-3.6-5.1c-2.8-0.7-5.7,0.8-6.8,3.5c-1.2,2.9-0.2,6.2,2.4,8c2.8,1.7,5.7,1,8.1-1.9
	c0.1-0.1,0.1-0.2,0.1-0.3c-0.1-0.1-0.2-0.2-0.3-0.3c-0.1-0.1-0.2-0.2-0.4-0.2c-1.6,1.7-3.3,3.1-5.8,1.8c-1.6-0.8-2.4-3.2-2-5.5
	H2499.5z M2513.4,103.8c0-1.2-0.1-2.3,0-3.4c0.1-1.3,1.2-1.8,2.3-1c0.4,0.3,0.7,0.7,1.2,0.8s1.2,0,1.3-0.3c0.2-0.5,0.1-1-0.1-1.5
	c-0.1-0.3-0.5-0.5-0.9-0.6c-2.2-0.9-4.8,0.2-5.7,2.4c-0.2,0.4-0.3,0.8-0.3,1.2c0,0.8,0,1.5,0,2.4l-2,0.2l0.1,1.2h2
	c0.1,2.8,0.2,5.5,0.3,8.3c0,0.8-0.4,1.2-1.2,1.2s-0.9,0.4-0.7,0.9h5.5c0.8,0,0.8-0.4,0.5-1c-1.9-0.1-2-0.1-2-2
	c-0.1-2.2-0.2-4.4-0.3-6.6c0-0.3,0-0.6,0.1-0.8l2.2-0.2l-0.1-1.2H2513.4z M2508,116.2l0.2-0.6c-0.2-0.2-0.5-0.6-0.8-0.6
	c-1.4-0.2-1.5-0.3-1.6-1.8c-0.2-4.7-0.3-9.3-0.5-14c0-0.3-0.1-0.6-0.1-1.1c-1.4,0.5-2.6,0.9-3.8,1.3c-0.1,0-0.2,0.5-0.1,0.7
	s0.3,0.2,0.5,0.3c0.5,0,1,0,1.5,0c0.1,4.2,0.3,8.3,0.4,12.3c0.1,2.2,0.1,2.2-2.2,2.8c0.4,0.3,0.6,0.8,0.9,0.8
	C2504.3,116.2,2506.1,116.2,2508,116.2z M2526.5,113.6l-0.3-0.1c-0.4,0.2-0.7,0.4-1.1,0.6c-1.7,0.8-2.8,0.2-2.8-1.7
	c-0.1-2.2-0.1-4.4-0.2-6.6c0-0.7,0.2-1,0.9-1s1.7,0,2.7,0l-0.1-1.3h-0.4c-1,0-2.4,0.4-2.9-0.2s-0.2-1.9-0.3-3
	c-0.1-0.3-0.3-0.6-0.5-0.9c-0.2,0.3-0.5,0.6-0.6,0.9c-0.3,1.5-0.8,2.8-2.3,3.4c-0.7,0.3-0.8,0.7-0.5,1.3h1.9c0,0.4,0.1,0.8,0.1,1.2
	c0.1,2.1,0.1,4.3,0.2,6.4c0.1,2,0.9,3.1,2.6,3.1c1.2-0.1,2.3-0.4,3.3-0.9C2526.3,114.6,2526.3,114,2526.5,113.6L2526.5,113.6z
	 M2425.6,66.8c-2-0.1-3.6,1.4-3.7,3.4s1.4,3.6,3.4,3.7s3.6-1.4,3.7-3.4v-0.1C2429.1,68.5,2427.6,66.9,2425.6,66.8
	C2425.7,66.8,2425.6,66.8,2425.6,66.8L2425.6,66.8z"/>
<path class="st0" d="M2518.6,79.3h-6.3c-0.1-1.8,1.3-3.3,3.1-3.3c0,0,0,0,0.1,0c1.7,0,3.1,1.4,3.1,3.1
	C2518.6,79.1,2518.6,79.2,2518.6,79.3z"/>
<path class="st0" d="M2447.5,81.8h-6.3c0-1.8,1.4-3.3,3.2-3.3C2446.1,78.5,2447.4,79.7,2447.5,81.8z"/>
<path class="st0" d="M2473.6,101.3c1.4,0,2.8-0.1,4.3,0c2.7,0,5,1.8,5.7,4.4c0.6,2,0.6,4.1-0.1,6.1c-0.5,2-2.2,3.4-4.2,3.6
	c-1.6,0.2-3.2,0.3-4.7,0.4c-0.3-0.1-0.6-0.3-0.7-0.7c-0.2-4.5-0.3-8.9-0.4-13.4C2473.5,101.6,2473.6,101.4,2473.6,101.3z"/>
<path class="st0" d="M2399.4,111.7h-3.8c0-1,0.8-1.9,1.8-2S2399.2,110.4,2399.4,111.7z"/>
<path class="st0" d="M2450.5,109.8c0.3-1.4,0.9-2,2-2s1.7,0.6,1.8,2H2450.5z"/>
<path class="st0" d="M2497.3,108.3h-5.9c0.1-1.6,1.5-2.9,3.2-2.8C2496.1,105.5,2497.1,106.4,2497.3,108.3z"/>
<path class="st0" d="M1424.5,132.2l-20.4-6.5v-0.2l18.4-3.8L1373,39.4l132,32.9c-0.5,0.3-0.8,0.5-1.1,0.7
	c-26.8,16.1-53.6,32.2-80.4,48.3c-0.6,0.3-1,1-0.8,1.7C1423.4,126,1423.9,129.1,1424.5,132.2z"/>
<path class="st0" d="M1283.6,115.1V85.8h3.9v36.1c-1.2,0-2.3,0-3.5,0c-0.3,0-0.5-0.4-0.7-0.7c-5.8-9.2-11.7-18.5-17.5-27.7
	c-0.1-0.1-0.2-0.2-0.2-0.2v28.6h-3.9V85.7c1.2,0,2.4,0,3.6,0c0.2,0,0.5,0.3,0.7,0.6c5.8,9.4,11.6,18.8,17.4,28.2
	C1283.3,114.7,1283.3,114.8,1283.6,115.1z"/>
<path class="st0" d="M1203.8,129c2.2-0.4,4.2-0.5,6.2-1.1c3-0.8,4.4-2.7,4.7-5.7c0.1-1,0-2.1,0-3.3c-0.5,0.4-0.9,0.8-1.4,1.2
	c-3.4,2.9-8.3,3.2-11.9,0.7c-1.5-1.1-2.6-2.7-3.2-4.5c-1.8-5.1-1.7-10.6,0.2-15.6c1-3,3.4-5.3,6.4-6.1c3.2-0.9,6.6,0,9,2.3l0.7,0.6
	c0,0,0.1,0,0.2,0v-2.6h4c0,0.3,0.1,0.7,0.1,1c0,7.8,0.1,15.6,0,23.5c0,2-0.3,4.1-0.9,6c-1.2,3.6-4.2,5.2-7.7,5.9
	c-1.4,0.3-2.9,0.4-4.3,0.6c-0.4,0.1-0.9-0.1-1-0.6l0,0C1204.5,130.4,1204.1,129.7,1203.8,129z M1214.8,108.4c-0.1-1.6-0.1-3.1,0-4.7
	c0.3-2.1-0.8-3.5-2.4-4.5c-0.8-0.5-1.7-0.9-2.6-1.2c-3.7-1.2-6.6,0.3-7.9,3.8c-0.8,2.3-1.1,4.7-1,7.1c-0.1,2.2,0.4,4.4,1.3,6.5
	c1,2.3,3.2,3.7,5.7,3.5c2.4-0.1,4.7-1.2,6.3-3.1c0.4-0.4,0.6-1,0.6-1.6C1214.9,112.3,1214.8,110.4,1214.8,108.4L1214.8,108.4z"/>
<path class="st0" d="M1056.9,100.7v3.8h-10.1v13.6h18.4v3.7h-22.5v-36h21.7v3.7h-17.6v11.2H1056.9z"/>
<path class="st0" d="M1084.7,97.6V92c0-1.6,0-3.2,0-4.8c-0.1-0.5,0.2-1,0.7-1.2c1-0.5,2.1-1.1,3.2-1.8v37.6h-3.9v-3.1
	c-0.7,0.6-1.2,1-1.7,1.4c-3.8,3-9.1,3.1-12.4,0c-1.7-1.7-2.9-3.9-3.3-6.3c-0.9-4.2-0.7-8.5,0.6-12.5c0.7-2.4,2.2-4.4,4.3-5.8
	c3.6-2.2,8.3-1.7,11.4,1.1L1084.7,97.6z M1084.7,108.5c-0.1-1.6-0.1-3.2,0-4.8c0.3-2-0.7-3.3-2.2-4.3c-0.6-0.4-1.2-0.8-1.8-1.1
	c-4.2-1.8-7.8-0.3-9.1,4c-0.9,2.8-1.1,5.8-0.7,8.7c0.2,1.6,0.7,3.2,1.3,4.7c0.7,1.6,2.2,2.8,3.9,3.1c3.5,0.6,6.3-1,8.3-3.6
	c0.2-0.3,0.2-0.6,0.2-0.9C1084.7,112.4,1084.7,110.5,1084.7,108.5L1084.7,108.5z"/>
<path class="st0" d="M1134,119v2.8h-3.9c0-0.3,0-0.7,0-1c0-11.1,0-22.3,0-33.4c-0.1-0.6,0.3-1.2,0.8-1.5c1-0.5,2-1.1,3.1-1.7v13.6
	c0.7-0.6,1.2-1.1,1.8-1.5c4.3-3.4,12.3-3.3,14.9,4.5c0.4,1.2,0.7,2.5,0.8,3.8c0.6,3.9,0.2,7.8-1.2,11.5c-1.4,3.2-3.6,5.6-7.2,6.2
	c-3.1,0.6-6.3-0.4-8.5-2.6L1134,119z M1134,108.2c0.1,1.7,0.1,3.3,0,5c-0.2,1.5,0.5,2.9,1.8,3.7c0.9,0.7,2,1.3,3.1,1.7
	c3.8,1.3,6.9-0.2,8.1-4c0.5-1.8,0.8-3.6,0.9-5.4c0.3-2.6-0.1-5.3-1.2-7.8c-0.7-1.9-2.4-3.2-4.3-3.6c-2.8-0.6-6.8,1.2-8.2,3.6
	c-0.1,0.3-0.2,0.6-0.2,0.8C1134,104.2,1134,106.2,1134,108.2L1134,108.2z"/>
<path class="st0" d="M1322.3,119c0,3.4,0,6.6,0,9.8c0.1,0.5-0.2,1-0.7,1.2c-1.1,0.5-2.1,1.1-3.2,1.8v-37h3.9v3.1
	c0.7-0.6,1.2-1.1,1.8-1.5c2.3-1.8,5.3-2.5,8.2-1.9c3.2,0.6,5.7,2.9,6.6,6c1.9,5.6,1.9,11.2-0.7,16.6c-3,6.2-10.2,7.4-15.3,2.7
	L1322.3,119z M1336.3,109c-0.1-3.2-0.3-5.5-1.2-7.7c-0.7-1.9-2.5-3.3-4.5-3.6c-3.4-0.5-6.2,1.3-8,3.6c-0.2,0.3-0.2,0.6-0.2,0.9
	c0,3.6,0.1,7.2-0.1,10.8c-0.1,1.6,0.6,3.1,2,4c0.6,0.5,1.3,0.9,2,1.2c3.9,1.6,7.8,0.6,9.1-4.2C1335.8,112.4,1336.1,110.7,1336.3,109
	L1336.3,109z"/>
<path class="st0" d="M1228.1,121.9h-4v-1.1c0-11.1,0-22.2,0-33.3c-0.1-0.7,0.3-1.3,0.9-1.5c1-0.5,2-1.1,3.1-1.7v13.6
	c1.3-1.8,3.2-3,5.4-3.5c5.8-0.9,10.4,1.5,11.3,7.8c0.1,1,0.2,2.1,0.2,3.2c0,5.1,0,10.3,0,15.4v1h-4c0-0.4,0-0.8,0-1.2
	c0-5.3,0-10.7,0-16c0-0.9-0.2-1.7-0.4-2.5c-0.7-2.8-2.4-4.3-5-4.5c-3.1-0.3-5.5,0.9-6.5,3.4c-0.6,1.5-0.9,3-1,4.6c-0.1,5,0,10,0,15
	V121.9z"/>
<path class="st0" d="M1308.8,106.5c0-1.4,0.1-2.7,0-4c-0.2-3.2-2.2-4.9-5.7-4.9c-2.2,0-4.3,0.5-6.2,1.4l-1.3,0.6l-1.6-3.4
	c1.8-0.6,3.5-1.2,5.3-1.6c2.5-0.6,5-0.6,7.5,0c3.7,0.9,5.8,3.2,5.9,7.1c0.2,6.7,0,13.4,0,20.2h-3.9v-3c-0.7,0.6-1.3,1.1-1.9,1.6
	c-2.9,2.1-6.6,2.7-10,1.5c-4.3-1.4-5.6-5.5-5.1-9.3c0.6-4.2,3.6-6.8,8-7.3C1302.8,104.8,1306,105.2,1308.8,106.5z M1308.8,112.6
	c0-0.6,0-1.3,0-1.9c0.1-0.8-0.3-1.1-0.9-1.4c-2.2-0.9-4.6-1.2-6.9-1c-5.2,0.5-6,4.2-4.9,7.7c0.4,1.5,1.6,2.6,3.1,2.9
	c2.6,0.7,5.4,0.1,7.6-1.6c1.4-1,2.5-2.2,2.1-4.1C1308.8,113,1308.8,112.8,1308.8,112.6L1308.8,112.6z"/>
<path class="st0" d="M1358,109.6c0.3,7.6,5.7,12.7,14.9,6.8l0.9,1.3l0.9,1.4c-2,1.5-4.4,2.5-6.8,3c-3.6,0.6-6.9,0.1-9.7-2.4
	c-1.9-1.8-3.2-4.2-3.7-6.9c-1-4.2-0.6-8.5,1.1-12.4c2.4-5.4,8.6-7.8,14-5.5c0.8,0.3,1.5,0.8,2.1,1.3c2.8,2.3,3.9,5.4,4.3,8.9
	c0.1,1.4,0,2.9,0,4.5L1358,109.6z M1372.4,106.4c0-1.9-0.5-3.7-1.4-5.4c-1.8-3.2-5.9-4.3-9-2.5c-1,0.6-1.8,1.4-2.4,2.4
	c-0.9,1.7-1.5,3.6-1.6,5.5H1372.4z"/>
<path class="st0" d="M1172.8,94.8h3.9v27.1h-3.9v-3c-0.3,0.3-0.5,0.4-0.6,0.6c-2.9,3.1-6.5,3.6-10.4,2.4c-3.7-1.1-5.2-4.1-5.8-7.6
	c-0.1-1.1-0.2-2.2-0.2-3.3c0-5,0-10.1,0-15.1v-1.1h3.9c0,0.4,0,0.7,0,1.1c0,5.1-0.1,10.3,0,15.4c0.1,1.6,0.4,3.3,1,4.8
	c0.5,1.4,1.8,2.4,3.2,2.7c3.4,1.1,7-0.7,8.1-4.1c0.2-0.5,0.3-0.9,0.3-1.4c0.1-0.9,0.2-1.8,0.2-2.7c0-4.9,0-9.7,0-14.6
	C1172.8,95.6,1172.8,95.3,1172.8,94.8z"/>
<path class="st0" d="M1104.3,94.8h3.8v2.8l0.3,0.2c0.1-0.2,0.2-0.5,0.3-0.7c2.8-3,6.3-3.5,10.1-2.5s5.3,3.8,5.9,7.3
	c0.2,1.1,0.3,2.3,0.3,3.5c0,5.1,0,10.2,0,15.3c0,0.3,0,0.7,0,1.1h-4c0-0.4,0-0.8,0-1.2c0-5.4,0-10.7-0.1-16.1c0-0.9-0.2-1.7-0.4-2.5
	c-0.4-2.4-2.4-4.2-4.8-4.3c-2.6-0.5-5.2,0.7-6.5,3c-0.9,1.7-1.3,3.5-1.2,5.4c0,4.9,0,9.7,0,14.6c0,0.4,0,0.7,0,1.2h-3.9L1104.3,94.8
	z"/>
<path class="st0" d="M1385,121.9h-3.9V94.8c0.3,0,0.7,0,1,0h2.9v2.8l0.3,0.2c0.1-0.2,0.2-0.4,0.3-0.6c2.6-3.2,6.2-3.5,9.8-2.5
	c0.3,0.1,0.4,0.4,0.4,0.7c-0.2,1.2-0.6,2.3-0.8,3.3c-1.3-0.3-2.6-0.6-3.9-0.7c-2.5-0.3-4.7,1.3-5.3,3.7c-0.5,1.5-0.7,3-0.7,4.6
	c-0.1,4.8,0,9.7,0,14.5C1385,121,1385,121.4,1385,121.9z"/>
<path class="st0" d="M1185.6,121.9h-3.9V94.8h3.8v2.9c0.2-0.1,0.3-0.1,0.3-0.1c2.6-3.4,6-3.8,9.8-3c0.6,0.1,0.9,0.3,0.7,1.1
	c-0.3,1-0.5,2.1-0.8,3c-1.3-0.3-2.6-0.6-3.9-0.7c-2.4-0.3-4.7,1.3-5.3,3.6c-0.5,1.6-0.7,3.3-0.8,5c-0.1,4.7,0,9.5,0,14.2
	L1185.6,121.9z"/>
<path class="st0" d="M1345,94.7c1.2,0,2.2,0,3.3,0c0.2,0,0.4,0.3,0.6,0.6c0,0.2,0,0.5,0,0.7c0,8.2,0,16.4,0,24.7v1.2h-3.9V94.7z"/>
<path class="st0" d="M1094.5,94.8h3.8v27h-3.8V94.8z"/>
<path class="st0" d="M1276.8,137.8c1-0.4,2.1,0.1,2.6,1.1c2.4,4,4.9,8,7.5,12.2v-13.3h1.9v16.7c-1,0.4-2.1,0-2.6-1
	c-2.4-3.9-4.9-7.8-7.3-11.7c-0.1-0.1-0.2-0.2-0.3-0.3v13h-1.8L1276.8,137.8z"/>
<path class="st0" d="M1334.4,147.3l3.7,7.2c-0.5,0.1-1.1,0.1-1.6,0c-0.4-0.1-0.8-0.3-1-0.6c-1-1.9-2-3.8-2.9-5.8
	c-0.2-0.5-0.7-0.8-1.2-0.8c-1,0.1-2,0-3.1,0v7.1h-1.9v-16.8c1,0,2,0,3,0c1.5,0,2.9,0,4.4,0.1c2.6,0.2,4.2,1.6,4.4,3.9
	c0.3,2.8-0.8,4.7-3.4,5.5L1334.4,147.3z M1328.4,145.5c2,0,3.9,0.1,5.8,0c1.4-0.1,2.2-1.4,2.2-2.9s-0.9-2.8-2.3-2.9
	c-1.9-0.1-3.7,0-5.7,0V145.5z"/>
<path class="st0" d="M1271.6,137.8h1.8c0.1,0.1,0.1,0.1,0.1,0.2c0,3.8,0.1,7.7-0.2,11.5c-0.2,3.5-2.4,5.4-5.9,5.4s-5.8-1.9-6-5.4
	c-0.2-3.8-0.1-7.6-0.1-11.4c0-0.1,0.1-0.1,0.1-0.2h1.9c0,0.4,0,0.7,0,1.1c0,2.9,0,5.9,0,8.8c0,0.8,0.1,1.5,0.2,2.3
	c0.3,2,2.1,3.3,4.1,3.1c2.2-0.1,3.5-1.1,3.6-3.4c0.2-3.5,0.2-6.9,0.2-10.4C1271.6,138.8,1271.6,138.3,1271.6,137.8z"/>
<path class="st0" d="M1313.2,137.8h10.1v1.7h-8.1v5.2h4.6v1.8h-4.6v6.2h8.5v1.8h-10.4L1313.2,137.8z"/>
<path class="st0" d="M1351.2,139.3l-1.1,1.3c-1.2-0.5-2.4-0.9-3.6-1.3c-0.8-0.1-1.6,0-2.3,0.2c-0.9,0.2-1.5,1-1.5,1.9
	c-0.2,0.8,0.2,1.7,1,2.1c0.9,0.5,1.9,0.9,2.8,1.4c0.8,0.4,1.6,0.6,2.4,1c1.8,0.7,2.9,2.6,2.6,4.5c-0.2,2-1.6,3.6-3.5,4.1
	c-2.8,0.8-5.8,0-7.7-2.1l1.2-1.3v0.3c1.4,0.6,2.7,1.1,4.2,1.6c0.8,0.1,1.6,0,2.3-0.3c1.3-0.5,2-1.9,1.5-3.2c-0.2-0.5-0.5-0.9-1-1.2
	c-0.9-0.5-1.8-1-2.7-1.4c-0.9-0.4-1.9-0.8-2.8-1.2c-1.6-0.8-2.5-2.6-2.2-4.4c0.2-1.7,1.4-3,3.1-3.4
	C1346.4,137,1349.2,137.6,1351.2,139.3z"/>
<path class="st0" d="M1303.8,152.2c0.9-2.8,1.8-5.3,2.6-7.9c0.6-1.7,1.1-3.4,1.7-5.1c0.5-1.7,0.5-1.7,2.5-1.4l-1.5,4.5
	c-1.3,3.8-2.6,7.6-3.9,11.4c-0.3,0.8-0.8,0.8-1.4,0.8s-1.1,0-1.3-0.8c-1.7-5-3.4-10.1-5.1-15.1c-0.1-0.3-0.1-0.6-0.2-0.8
	c1.9-0.3,1.9-0.3,2.4,1.3L1303.8,152.2z"/>
<path class="st0" d="M1385.8,137.8c-1.7,3-3.3,5.9-5,8.8c-0.5,0.8-0.7,1.7-0.7,2.6c0.1,1.7,0,3.5,0,5.3h-2c0-1.9,0-3.7,0-5.5
	c0-0.7-0.2-1.4-0.5-2c-1.5-2.8-3.1-5.5-4.7-8.3c-0.2-0.3-0.3-0.6-0.4-0.9c2-0.3,2.1-0.3,3,1.3c1.2,2.2,2.5,4.5,3.7,6.8l3.8-6.8
	C1383.8,137.6,1383.8,137.6,1385.8,137.8z"/>
<path class="st0" d="M1366.1,154.5h-2v-15h-4.9v-1.7h11.7v1.7h-4.8L1366.1,154.5z"/>
<path class="st0" d="M1356.5,154.5h-1.9v-16.7h1.9V154.5z"/>
<path class="st0" d="M1292.4,137.8h1.9v16.7h-1.9V137.8z"/>
<path class="st0" d="M1093.6,87.3c0-1.6,1.2-2.9,2.8-2.9c1.5,0,2.8,1.3,2.8,2.8s-1.2,2.8-2.7,2.9C1095,90.1,1093.7,88.9,1093.6,87.3
	L1093.6,87.3z"/>
<path class="st0" d="M1344.1,87.2c0-1.6,1.3-2.8,2.8-2.9c1.5,0.1,2.7,1.3,2.8,2.8c0,1.5-1.2,2.7-2.7,2.8
	C1345.5,90,1344.2,88.8,1344.1,87.2C1344.1,87.3,1344.1,87.3,1344.1,87.2z"/>
<path class="st0" d="M138.2,67c0,2.3-0.4,4.5-1.2,6.6c-1.3,3.4-4.1,6-7.6,7.1c-1.8,0.6-3.6,0.8-5.4,0.8h-8V52.4h8
	c1.9,0,3.7,0.3,5.5,0.8c1.7,0.5,3.2,1.4,4.5,2.6c1.3,1.3,2.3,2.8,3,4.5C137.8,62.5,138.2,64.7,138.2,67z M133.7,67
	c0-1.4-0.2-2.8-0.5-4.2c-0.3-1.2-0.9-2.3-1.7-3.3c-0.8-0.9-1.8-1.7-3-2.1c-1.4-0.5-2.9-0.8-4.4-0.8h-3.6v20.6h3.6
	c1.5,0,3-0.2,4.4-0.8c1.2-0.5,2.2-1.2,3-2.1s1.4-2.1,1.7-3.3C133.5,69.8,133.7,68.4,133.7,67L133.7,67z"/>
<path class="st0" d="M144.3,81.5V52.4h18.8v4.2h-14.4v7.2h8.4V68h-8.4v9.2h15v4.2h-19.4V81.5z"/>
<path class="st0" d="M188.9,73.2c0,1.2-0.2,2.4-0.6,3.6c-0.4,1.1-1.1,2-2,2.8c-1,0.8-2.1,1.4-3.4,1.8c-1.6,0.5-3.2,0.7-4.8,0.7
	c-2,0-4-0.4-5.9-1.3c-1.7-0.8-3.3-2-4.5-3.4l3.1-3c1,1.1,2.2,1.9,3.5,2.5s2.7,0.9,4.1,0.9c4,0,6-1.4,6-4.2c0-0.5-0.1-1-0.3-1.5
	s-0.6-0.9-1-1.3c-0.6-0.4-1.3-0.8-2-1.1c-0.8-0.3-1.9-0.7-3.1-1c-1.4-0.4-2.7-0.8-4-1.4c-1.1-0.4-2-1-2.9-1.7
	c-0.7-0.6-1.3-1.4-1.7-2.3c-0.4-1-0.6-2.2-0.6-3.3c-0.1-2.3,1-4.5,2.8-6c0.9-0.7,1.9-1.3,3.1-1.6c1.2-0.4,2.5-0.6,3.8-0.6
	c1.8,0,3.6,0.3,5.3,1c1.6,0.7,3,1.7,4.2,2.9l-3.1,3.2c-0.8-0.9-1.9-1.6-3-2.1c-1.2-0.5-2.5-0.7-3.8-0.7c-1.3-0.1-2.7,0.3-3.7,1.1
	c-0.7,0.6-1.1,1.6-1.1,2.5c0,0.5,0.1,0.9,0.3,1.3c0.2,0.5,0.6,0.8,1,1.1c0.6,0.4,1.3,0.8,2,1c0.8,0.3,1.9,0.7,3.1,1
	c1.4,0.4,2.7,0.9,3.9,1.4c1.1,0.4,2.1,1,2.9,1.7c0.8,0.6,1.4,1.5,1.9,2.4C188.7,70.9,188.9,72,188.9,73.2z"/>
<path class="st0" d="M195.6,81.5V52.4h4.4v29.2h-4.4V81.5z"/>
<path class="st0" d="M229,75.1c-0.5,1.4-1.3,2.7-2.3,3.7s-2.2,1.8-3.5,2.3c-1.4,0.5-2.9,0.8-4.5,0.8c-1.8,0-3.5-0.3-5.1-1.1
	c-1.5-0.7-2.8-1.8-3.9-3.1c-1.1-1.4-2-3.1-2.5-4.8c-1.2-4-1.2-8.2,0-12.2c0.5-1.7,1.4-3.3,2.5-4.8c1-1.3,2.4-2.4,3.9-3.1
	c1.6-0.8,3.3-1.1,5.1-1.1c2.1-0.1,4.2,0.4,6,1.4c1.7,1,3,2.4,3.9,4.1l-3.8,2.4c-0.6-1.1-1.5-2-2.5-2.6c-1.1-0.6-2.3-0.9-3.6-0.8
	c-2.3-0.1-4.5,1-5.9,2.9c-1.5,2.3-2.2,5-2,7.8c-0.2,2.7,0.5,5.5,2,7.8c1.3,1.9,3.5,3,5.9,2.9c1,0,2-0.2,3-0.5
	c1.6-0.6,2.8-1.9,3.3-3.5c0.3-0.8,0.4-1.6,0.4-2.5V71h-4.8v-4.2h9.2v3.4C229.8,71.8,229.6,73.5,229,75.1z"/>
<path class="st0" d="M254.1,81.5l-11.6-18.3c-0.4-0.6-0.8-1.2-1.2-1.9s-0.8-1.3-1-1.7V61c0,0.6,0,1.2,0,1.9s0,1.3,0,2v16.7H236V52.4
	h4.5l11.1,17.8l0.6,1c0.2,0.4,0.5,0.8,0.7,1.2s0.4,0.8,0.6,1.1l0.5,0.8V73c0-0.6,0-1.2,0-1.9s0-1.3,0-2V52.4h4.3v29.2h-4.2V81.5z"/>
<path class="st0" d="M135.1,118.6c-1.9,2.2-4.7,3.2-8.3,3.2c-3.6,0-6.4-1.1-8.2-3.3c-1.8-2.2-2.8-5.3-2.8-9.4V92.2h4.4V109
	c0,2.8,0.6,4.9,1.7,6.3c1.2,1.5,3.1,2.3,5,2.2c1.9,0.2,3.8-0.6,5.1-2.1c1.1-1.4,1.6-3.4,1.6-6.1V92.2h4.4v17
	C138,113.3,137,116.4,135.1,118.6z"/>
<path class="st0" d="M163.4,121.4l-11.6-18.3c-0.4-0.6-0.8-1.2-1.2-1.9c-0.4-0.7-0.8-1.3-1-1.7v1.3c0,0.6,0,1.2,0,1.9s0,1.3,0,2
	v16.7h-4.3V92.2h4.5l11.1,17.8l0.6,1c0.2,0.4,0.5,0.8,0.7,1.2c0.2,0.4,0.4,0.8,0.6,1.1l0.5,0.8v-1.3c0-0.6,0-1.2,0-1.9s0-1.3,0-2
	V92.2h4.3v29.2L163.4,121.4z"/>
<path class="st0" d="M175.3,121.4V92.2h4.4v29.2L175.3,121.4z"/>
<path class="st0" d="M198.5,96.5v24.9h-4.4V96.5h-8.5v-4.3H207v4.3H198.5z"/>
<path class="st0" d="M212.8,121.4V92.2h18.8v4.2h-14.4v7.2h8.4v4.2h-8.4v9.2h15v4.2L212.8,121.4z"/>
<path class="st0" d="M260.6,106.8c0.1,2.3-0.3,4.5-1.1,6.6c-1.3,3.4-4.1,6-7.6,7.1c-1.8,0.6-3.6,0.8-5.4,0.8h-8V92.2h8
	c1.9,0,3.7,0.3,5.5,0.8c1.7,0.5,3.2,1.4,4.5,2.6c1.3,1.3,2.3,2.8,3,4.5C260.2,102.3,260.6,104.5,260.6,106.8z M256.1,106.8
	c0-1.4-0.2-2.8-0.5-4.2c-0.3-1.2-0.9-2.3-1.7-3.3c-0.8-0.9-1.8-1.7-3-2.1c-1.4-0.5-2.9-0.8-4.4-0.8h-3.6v20.7h3.6
	c1.5,0,3-0.2,4.4-0.8c1.2-0.5,2.2-1.2,3-2.1s1.4-2.1,1.7-3.3C255.9,109.6,256.1,108.2,256.1,106.8L256.1,106.8z"/>
<path class="st0" d="M58.5,70.2c1.7,4.9,2.6,10,2.5,15.2V51.9H41V54C49.2,56.2,55.7,62.3,58.5,70.2L58.5,70.2z"/>
<path class="st0" d="M83.1,51.9v40.5c0,4.4-0.9,7.8-2.6,10.3s-4.5,3.7-8.3,3.7s-6.7-1.2-8.4-3.7c-1.8-2.5-2.7-5.9-2.7-10.3v-4
	c0,5.2-0.8,10.3-2.4,15.2c-1.4,4.2-3.9,8-7.3,11c-0.6,0.5-1.3,1-1.9,1.5l0.3,0.3c2.8,2.6,6.1,4.4,9.7,5.5c4,1.2,8.2,1.8,12.3,1.7
	c4.2,0,8.4-0.5,12.4-1.7c7.6-2.2,13.7-7.8,16.5-15.2c1.7-4.6,2.5-9.5,2.4-14.3V51.9H83.1z"/>
<path class="st0" d="M61.1,88.4c0-0.5,0-1,0-1.6s0-1,0-1.5V88.4z"/>
<path class="st0" d="M41.1,92.4V54c-0.4-0.1-0.8-0.2-1.3-0.4c-4.9-1.2-9.9-1.8-15-1.7H0v70.7h22.9c5.6,0.1,11.1-0.5,16.5-1.9
	c3.6-0.9,7-2.5,10-4.6c-2.7-2.7-4.8-5.9-6.1-9.4C41.7,102.1,40.9,97.3,41.1,92.4z M40.1,96c-0.5,2.1-1.5,4.1-3,5.8
	c-1.5,1.5-3.3,2.6-5.3,3.1c-2.5,0.7-5.1,1-7.8,1h-4.2V68.7h4.9c2.6-0.1,5.2,0.3,7.7,1.1c1.9,0.6,3.7,1.8,5,3.3
	c1.4,1.7,2.3,3.6,2.8,5.8c0.6,2.7,0.9,5.6,0.9,8.4C41.1,90.1,40.7,93.1,40.1,96L40.1,96z"/>
<path class="st0" d="M1576.5,52.1c29.4,0,58.7,0,88.1,0c0,0.3,0,0.5,0,0.8c0,12,0.1,23.9,0,35.9c0,8.2-1.6,16.2-4.4,24
	c-0.1,0.2-0.1,0.4-0.2,0.5l-0.1,0.1c-1.4-0.9-2.9-1.9-4.4-2.9c0.9-1.7,1.8-3.4,2.7-5.1c-3.1-1.6-6.1-3.3-9.2-4.9c-1,1.9-2,3.7-3,5.6
	c-1.6-0.5-3.1-1-4.7-1.5c0.4-1.8,0.9-3.6,1.3-5.5c-3.4-0.8-6.7-1.7-10.1-2.5c-0.5,2-1,3.9-1.5,5.9c-1.7-0.2-3.4-0.3-5.2-0.5
	c0-1.9,0-3.8,0-5.8c-3.5,0-7,0-10.5,0c0,0.9,0,1.7,0,2.6c0,0.8,0,1.6,0,2.5c0,0.6-0.1,0.8-0.7,0.8c-1.5,0.1-2.9,0.3-4.5,0.4
	c-0.5-1.9-1-3.8-1.5-5.9c-3.4,0.9-6.7,1.7-10.1,2.5c0.5,1.9,0.9,3.6,1.3,5.5c-1.6,0.5-3.1,1-4.7,1.6c-1-1.8-2-3.7-3-5.6
	c-3.1,1.6-6.1,3.3-9.2,4.9c0.9,1.7,1.8,3.4,2.7,5.1c-1.5,1-2.9,1.9-4.5,3c-0.6-1.9-1.2-3.7-1.7-5.6c-1.9-6.7-2.9-13.6-2.8-20.6
	c0.1-11.4,0-22.8,0-34.3C1576.5,52.7,1576.5,52.5,1576.5,52.1z M1604.7,90.7c0-1.5,0-3,0-4.5c0-0.4,0.1-0.9,0.3-1.3
	c0.9-1.5,0.4-3,0.5-4.6c-4.1,0-8.2,0-12.2,0c0.1,1.7-0.3,3.4,0.7,5c0.1,0.2,0.1,0.5,0.1,0.8c0,1.5,0,3.1,0,4.7c0.6,0,1.1,0,1.7,0
	c0-1.6,0-3.1,0-4.6c0-0.3,0-0.6,0.2-0.7c1.1-1.1,2.2-2.3,3.4-3.4c0.7,0.8,1.4,1.5,2.1,2.1c1.1,0.9,1.6,2,1.4,3.4
	c-0.1,1.1,0,2.2,0,3.2C1603.6,90.7,1604.1,90.7,1604.7,90.7z M1636.5,90.7c0.6,0,1.1,0,1.7,0c0-1.2,0.1-2.3,0-3.4
	c-0.1-1.3,0.3-2.2,1.3-3.1c0.8-0.7,1.5-1.5,2.3-2.3c1,1,2,2,2.9,3c0.4,0.4,0.6,0.8,0.6,1.5c0,1.4,0,2.9,0,4.3c0.6,0,1.1,0,1.7,0
	c0-1.5,0-3,0-4.5c0-0.5,0.1-1,0.3-1.4c0.9-1.5,0.4-3,0.5-4.5c-4.1,0-8.2,0-12.2,0c0,0.6,0,1.1,0,1.6c-0.1,1.2,0.1,2.2,0.7,3.3
	c0.2,0.2,0.2,0.6,0.2,0.9C1636.5,87.6,1636.5,89.1,1636.5,90.7z M1607.4,75c0,2.2,0,4.3,0,6.4c0,1.4,0.1,2.7-0.8,3.9v0.1
	c2.2,0,4.5,0,6.8,0c-0.7-1-0.9-2-0.9-3.2c0.1-2.2,0-4.3,0-6.5c0-0.3,0-0.5,0-0.8C1610.9,75,1609.2,75,1607.4,75z M1634.6,85.5
	c-0.7-1.1-1-2.1-0.9-3.2c0.1-1.7,0-3.5,0-5.2c0-0.6,0-1.3,0-2c-1.8,0-3.4,0-5.2,0c0,0.3,0,0.6,0,0.8c0,2.1,0,4.2,0,6.2
	c0,1.1-0.1,2.1-0.7,3c-0.1,0.1-0.1,0.2-0.1,0.4C1630,85.5,1632.2,85.5,1634.6,85.5z M1649.6,75c0,2.2,0,4.3,0,6.5
	c0,1.3,0,2.7-0.8,3.8v0.1c2.2,0,4.5,0,6.8,0c-0.1-0.2-0.2-0.5-0.3-0.6c-0.5-0.7-0.6-1.5-0.6-2.3c0-2.2,0-4.4,0-6.7
	c0-0.3,0-0.5,0-0.8C1653,75,1651.4,75,1649.6,75z M1591.5,75c-1.8,0-3.4,0-5.2,0c0,0.3,0,0.6,0,0.8c0,1.9,0,3.8,0,5.7
	c0,1.3,0,2.7-0.8,3.8v0.1c2.2,0,4.5,0,6.9,0c-1.3-1.4-1-3-1-4.6c0-1,0-2,0-3C1591.5,76.9,1591.5,76,1591.5,75z M1644.3,66.2
	c-1.8,0-3.5,0-5.2,0c0,2.3,0,4.6,0,6.9c1.7,0,3.4,0,5.2,0C1644.3,70.8,1644.3,68.5,1644.3,66.2z M1596.9,73.1c1.7,0,3.4,0,5.1,0
	c0-2.3,0-4.6,0-6.9c-1.7,0-3.4,0-5.1,0C1596.9,68.5,1596.9,70.8,1596.9,73.1z M1640.8,75c0,0.6,0,1.2,0,1.7c-0.6,0-1.2,0-1.8,0
	c0-0.6,0-1.1,0-1.7c-0.6,0-1.1,0-1.7,0c0,0.6,0,1.1,0,1.7c-0.6,0-1.2,0-1.7,0c0,0.6,0,1.1,0,1.6c4.1,0,8.1,0,12.1,0
	c0-0.6,0-1.1,0-1.6c-0.6,0-1.1,0-1.7,0c0-0.6,0-1.1,0-1.7c-0.6,0-1.1,0-1.7,0c0,0.6-0.1,1.1-0.1,1.7c-0.6,0-1.2,0-1.8,0
	c0-0.6,0-1.1,0-1.7C1641.9,75,1641.4,75,1640.8,75z M1593.4,78.4c4.1,0,8.1,0,12.2,0c0-0.5,0-1,0-1.6c-0.6,0-1.1,0-1.7,0
	c0-0.6,0-1.2,0-1.7c-0.6,0-1.1,0-1.6,0c0,0.6-0.1,1.1-0.1,1.7c-0.6,0-1.2,0-1.8,0c0-0.6,0-1.1,0-1.7c-0.6,0-1.1,0-1.7,0
	c0,0.6-0.1,1.1-0.1,1.7c-0.6,0-1.2,0-1.8,0c0-0.6,0-1.1,0-1.7c-0.6,0-1.1,0-1.7,0c0,0.6,0,1.1,0,1.8c-0.6,0-1.2,0-1.7,0
	C1593.4,77.3,1593.4,77.8,1593.4,78.4z M1634.6,87.4c-2.3,0-4.6,0-6.9,0c0,1.1,0,2.2,0,3.3c2.3,0,4.6,0,6.9,0
	C1634.6,89.6,1634.6,88.5,1634.6,87.4z M1592.4,87.4c-2.3,0-4.6,0-6.9,0c0,1.1,0,2.2,0,3.3c2.3,0,4.6,0,6.9,0
	C1592.4,89.5,1592.4,88.5,1592.4,87.4z M1613.5,90.7c0-1.1,0-2.2,0-3.3c-2.3,0-4.6,0-6.9,0c0,1.1,0,2.2,0,3.3
	C1608.9,90.7,1611.2,90.7,1613.5,90.7z M1648.8,87.4c0,1.2,0,2.2,0,3.3c2.3,0,4.6,0,6.8,0c0-1.1,0-2.2,0-3.3
	C1653.3,87.4,1651.1,87.4,1648.8,87.4z M1596,64.3c2.4,0,4.6,0,6.9,0c0-1.2,0-2.3,0-3.4c-0.3,0-0.5,0-0.7,0c0,0.6,0,1.1-0.1,1.7
	c-0.6,0-1.2,0-1.8,0c0-0.6,0-1.1,0-1.7c-0.6,0-1.1,0-1.7,0c0,0.6,0,1.1,0,1.6c-0.6,0-1.2,0-1.8,0c0-0.6,0-1.1,0-1.6
	c-0.3,0-0.6,0-0.8,0C1596,62.1,1596,63.2,1596,64.3z M1638.2,64.3c2.4,0,4.6,0,6.9,0c0-1.2,0-2.3,0-3.4c-0.3,0-0.5,0-0.8,0.1
	c0,0.6,0,1.1,0,1.6c-0.6,0-1.2,0-1.8,0c0-0.6,0-1.1,0-1.7c-0.6,0-1.1,0-1.7,0c0,0.6,0,1.1,0,1.6c-0.6,0-1.2,0-1.8,0
	c0-0.6-0.1-1.1-0.1-1.7c-0.3,0-0.5,0-0.7,0.1C1638.2,62.1,1638.2,63.2,1638.2,64.3z M1627.7,73.1c2.3,0,4.6,0,6.9,0
	c0-1.1,0-2.2,0-3.4c-0.3,0-0.5,0-0.7,0c0,0.6,0.1,1.3-0.2,1.6c-0.3,0.3-1,0.1-1.6,0.1c0,0,0,0-0.2-0.1c0-0.5,0-1,0-1.6
	c-0.6,0-1.1,0-1.7,0c0,0.6,0,1.1,0,1.7c-0.6,0-1.2,0-1.8,0c0-0.6,0-1.2,0-1.8c-0.3,0-0.6,0-0.8,0C1627.7,70.9,1627.7,72,1627.7,73.1
	z M1606.6,73.1c2.4,0,4.6,0,6.9,0c0-1.2,0-2.3,0-3.4c-0.3,0-0.5,0-0.8,0.1c0,0.6,0,1.1,0,1.7c-0.6,0-1.2,0-1.8,0c0-0.6,0-1.1,0-1.7
	c-0.6,0-1.1,0-1.7,0c0,0.6,0,1.1,0,1.7c-0.3,0-0.4,0-0.6,0c-1.4,0-1.2,0.1-1.2-1.1c0-0.2,0-0.4-0.1-0.7c-0.3,0-0.5,0-0.7,0.1
	C1606.6,70.9,1606.6,72,1606.6,73.1z M1585.5,73.1c2.3,0,4.6,0,6.9,0c0-1.1,0-2.2,0-3.4c-0.3,0-0.5,0-0.8,0c0,0.6,0,1.1,0,1.8
	c-0.5,0-0.8,0-1.2,0c-0.4,0-0.6-0.1-0.6-0.6c0-0.4,0-0.8,0-1.2c-0.6,0-1.1,0-1.6,0c0,0.6,0.1,1.3-0.2,1.6c-0.3,0.3-1,0.1-1.5,0.1
	c0,0-0.1,0-0.2-0.1c0-0.5,0-1,0-1.7c-0.3,0-0.5,0-0.7,0C1585.5,70.9,1585.5,72,1585.5,73.1z M1649.6,69.5c-0.4,0.2-0.8,0.3-0.8,0.4
	c0,1,0,2.1,0,3.1c2.4,0,4.6,0,6.9,0c0-1.1,0-2.2,0-3.4c-0.3,0-0.5,0-0.8,0c0,0.6,0,1.1,0,1.7c-0.5,0-0.8,0-1.2,0
	c-0.5,0-0.6-0.2-0.6-0.6s0-0.8,0-1.2c-0.6,0-1.1,0-1.6,0c0,0.2,0,0.2,0,0.3c-0.1,1.6-0.1,1.6-1.6,1.4c0,0-0.1,0-0.2-0.1
	C1649.6,70.9,1649.6,70.3,1649.6,69.5z"/>
<path class="st0" d="M1640.6,100.3c-0.5,1.8-0.9,3.6-1.3,5.4c2.5,0.8,5,1.6,7.6,2.4c0.9-1.7,1.9-3.5,2.8-5.3
	c2.1,1.1,4.2,2.2,6.3,3.3c-0.9,1.7-1.8,3.3-2.7,5c0.4,0.2,0.7,0.4,1,0.6c1.4,0.9,2.9,1.9,4.3,2.8c0.6,0.4,0.7,0.7,0.4,1.4
	c-2.5,6-5.8,11.5-9.5,16.8c-5.6,8.1-12.2,15.4-20.1,21.4c-2.5,1.9-5.2,3.6-8.1,5c-0.6,0.3-1.2,0.3-1.8,0c-4.1-1.9-7.6-4.5-11.1-7.4
	c-8.1-6.8-14.6-14.8-20.2-23.7c-2.4-3.9-4.7-7.9-6.4-12.1c-0.1-0.2-0.2-0.4-0.3-0.8c2-1.3,4-2.6,6.1-3.9c-0.8-1.6-1.7-3.2-2.6-5
	c2.1-1.1,4.1-2.2,6.3-3.3c1,1.8,1.9,3.6,2.8,5.3c2.5-0.8,5-1.6,7.6-2.4c-0.4-1.8-0.9-3.5-1.3-5.4c2.3-0.6,4.5-1.1,6.9-1.7
	c0.5,1.9,1,3.8,1.4,5.7c2.7-0.3,5.4-0.5,8.2-0.8c0-1.9,0-3.7,0-5.6c2.4,0,4.7,0,7.1,0c0,1.9,0,3.7,0,5.6c2.8,0.3,5.5,0.5,8.2,0.8
	c0.5-1.8,0.9-3.7,1.4-5.7C1636,99.2,1638.3,99.7,1640.6,100.3z M1636.2,132.4c0-1.2,0-2.3,0-3.4c-0.1-4.3-0.3-8.5-0.5-12.8
	c0-0.3-0.1-0.7-0.3-0.9c-0.5-0.5-1.1-1-1.7-1.4c-0.1-0.1-0.4-0.1-0.5-0.1c-1.1,0-2.2,0.1-3.3,0c-2.8-0.3-5.5-0.3-8,1
	c-1,0.5-1.7,0.5-2.6,0c-2.4-1.2-5.1-1.2-7.7-1c-0.9,0.1-1.9,0.2-2.8,0.1s-1.5,0-2.1,0.6c-0.1,0.1-0.2,0.2-0.3,0.2
	c-0.8,0.4-1,1.2-1,2.1c-0.1,3.2-0.3,6.4-0.4,9.6c-0.1,2,0,4,0,6c0.1,0,0.5,0.1,0.8,0.1c2.5,0,5-0.1,7.5-0.1c2.7,0,5.3,0.3,7.4,2.2
	c1.1-1.2,2.5-1.8,4-1.9c2.1-0.2,4.2-0.2,6.4-0.2C1632.7,132.4,1634.5,132.4,1636.2,132.4z"/>
<path class="st0" d="M1690.8,52.1c1.9,0,3.8,0,5.7,0c0.2,0,0.5,0.2,0.6,0.4c4.4,5.9,8.8,11.9,13.2,17.9c0.2,0.2,0.3,0.4,0.6,0.8
	c0-6.4,0-12.7,0-19c2.1,0,4.1,0,6.2,0c0,9.6,0,19.3,0,29c-2,0-3.9,0-5.8,0c-0.2,0-0.4-0.3-0.6-0.5c-4.4-6-8.8-11.9-13.2-17.9
	c-0.1-0.2-0.3-0.4-0.5-0.7c0,6.4,0,12.7,0,19c-2,0-4,0-6.1,0C1690.8,71.4,1690.8,61.8,1690.8,52.1z"/>
<path class="st0" d="M1858.7,81.1c-2,0-4,0-6.1,0c0-0.3,0-0.5,0-0.8c0-3.4,0-6.7,0-10.1c0-0.1,0-0.3,0-0.4c0.1-3.7-2.5-4-4.7-3.1
	c-0.1,0.1-0.3,0.1-0.4,0.2c-1.1,0.4-1.6,1.1-1.5,2.4c0.1,3.6,0,7.3,0,11c0,0.3,0,0.6,0,0.9c-2.1,0-4.1,0-6.1,0c0-0.2,0-0.5,0-0.7
	c0-3.5,0-7,0-10.5c0-0.2,0-0.3,0-0.5c0-2.4-1.6-3.5-3.9-2.9c-0.2,0.1-0.4,0.1-0.6,0.2c-1.9,0.7-2.1,1-2.1,3c0,3.6,0,7.1,0,10.7
	c0,0.3,0,0.5,0,0.8c-2.1,0-4.1,0-6.1,0c0-6.5,0-13.1,0-19.6c2,0,4,0,6,0c0,0.5,0,1,0,1.6c4.1-2.7,8-3.2,11.8,0.5
	c0.1-0.1,0.4-0.3,0.6-0.4c2.5-1.9,5.3-2.7,8.4-1.9c2.8,0.7,4.5,2.9,4.6,6C1858.7,72,1858.7,76.6,1858.7,81.1
	C1858.8,80.9,1858.7,80.9,1858.7,81.1z"/>
<path class="st0" d="M1709.9,92.2c2,0,3.9,0,5.8,0c0.1,0,0.3,0.2,0.4,0.4c0.1,0.1,0,0.3,0,0.4c0,5,0.1,10,0,14.9
	c0,1.8-0.2,3.5-0.6,5.2c-0.8,3.8-3.2,6.4-6.9,7.6c-3.4,1.2-6.8,1.2-10.2,0c-4.1-1.4-6.4-4.3-7.1-8.4c-0.3-1.5-0.4-3.1-0.4-4.7
	c-0.1-5,0-10,0-15c0-0.1,0-0.3,0-0.5c0.3,0,0.5,0,0.8,0c1.5,0,3.1,0,4.6,0c1,0,1,0,1,1c0,4.9,0,9.9,0,14.8c0,1,0.1,2,0.2,3
	c0.6,4,3.6,5.1,6.6,4.9c3.5-0.2,5.4-2.2,5.7-5.9c0.1-1.6,0.1-3.1,0.1-4.7c0-4.1,0-8.1,0-12.2C1709.9,92.8,1709.9,92.5,1709.9,92.2z"
	/>
<path class="st0" d="M1862.8,81.3c0-9.8,0-19.5,0-29.2c2,0,4,0,6.1,0c0,3.3,0,6.7,0,10c1.1-0.3,2.1-0.8,3.2-1
	c5.3-1,10.2,2.5,10.9,7.8c0.6,4.3-0.5,8-4.1,10.6c-2.8,2-6,2.5-9.3,1.6c-1.7-0.5-3.2-0.5-4.9-0.1C1864,81.2,1863.4,81.2,1862.8,81.3
	z M1868.9,71.4c0,1.3,0,2.6,0,3.9c0,0.2,0.1,0.5,0.2,0.6c1.6,0.8,4.4,1.1,6.1-0.5c1.6-1.5,2-3.5,1.6-5.6c-0.5-2.5-2.4-4-4.9-3.7
	c-0.8,0.1-1.6,0.4-2.4,0.6c-0.5,0.1-0.6,0.4-0.6,0.9C1868.9,68.9,1868.9,70.1,1868.9,71.4z"/>
<path class="st0" d="M1781,52.1c2,0,4,0,6.1,0c0,3.6,0,7.2,0,11c0.4-0.3,0.7-0.4,0.9-0.6c2.3-1.5,4.8-2,7.4-1.2
	c2.6,0.7,4.2,2.6,4.5,5.3c0.1,0.9,0.1,1.7,0.1,2.6c0,3.7,0,7.4,0,11.1c0,0.3,0,0.5,0,0.8c-2.1,0-4.1,0-6.2,0c0-0.3,0-0.6,0-0.8
	c0-3.5,0-7.1,0-10.6c0-0.3,0-0.6,0-0.9c-0.1-1.6-1.1-2.5-2.7-2.5c-1.4,0-2.6,0.6-3.7,1.4c-0.2,0.1-0.3,0.5-0.3,0.8
	c0,3.9,0,7.8,0,11.7c0,0.3,0,0.6,0,0.9c-2.1,0-4.1,0-6.1,0C1781,71.4,1781,61.8,1781,52.1z"/>
<path class="st0" d="M1731.1,60.9c5.3,0,9.4,2.7,10.9,6.8c2.2,6.2-1.8,12.8-8.4,13.7c-3.3,0.5-6.4-0.1-9.1-2.2
	c-3.3-2.6-4.5-6.2-3.6-10.3c0.9-4.1,3.7-6.6,7.8-7.7C1729.6,61,1730.6,61,1731.1,60.9z M1736.4,71.2c0-2.8-2.1-5-4.8-5
	c-2.7,0-4.8,2.2-4.9,5c0,2.8,2.1,5,4.8,5C1734.3,76.2,1736.4,74.1,1736.4,71.2z"/>
<path class="st0" d="M1932.5,76.3c0,1.4,0,2.8,0,4.2c0,0.2-0.2,0.5-0.4,0.6c-2.3,0.7-4.4,0.7-6.4-0.8c-0.3-0.3-0.5-0.2-0.9,0
	c-2.8,1.5-5.6,1.9-8.6,0.6c-2.2-0.9-3.3-2.7-3.4-5c0-2.3,0.9-4.2,3-5.3c1.7-0.9,3.5-1.1,5.3-1c1,0,1.9,0.2,2.9,0.3
	c0.4-1.8-0.5-3.1-2.3-3.4c-2.3-0.4-4.4,0.2-6.4,1.1c-0.2,0.1-0.4,0.2-0.8,0.3c0-1.7,0-3.4,0-5c0-0.1,0.2-0.4,0.4-0.4
	c3.5-1.5,7.1-1.8,10.8-0.7c2.8,0.9,4.4,3,4.4,6c0,2.3,0,4.6,0,7C1930.3,76.3,1930.8,76.7,1932.5,76.3z M1924.1,74.8
	c0-0.4,0-0.7,0-1.1c0-0.2-0.2-0.4-0.3-0.5c-1.2-0.2-2.5-0.4-3.7,0.1c-0.8,0.3-1.2,0.9-1.2,1.7c0,0.8,0.4,1.5,1.2,1.6
	c0.8,0.2,1.6,0.2,2.4,0.1C1924.1,76.6,1924.1,76.4,1924.1,74.8z"/>
<path class="st0" d="M1794.1,113c-4.5,0-8.9,0-13.3,0c0.4,2.1,2.3,3.6,4.6,3.8c2.5,0.2,4.8-0.4,6.9-1.6c0.2-0.1,0.4-0.3,0.8-0.5
	c0,1.7,0,3.3,0,4.9c0,0.2-0.3,0.5-0.5,0.5c-1.5,0.5-3.1,1.1-4.6,1.4c-2.8,0.5-5.7,0.2-8.3-1.1c-3.7-1.9-5.7-5.6-5.3-9.8
	c0.5-4.8,3.6-8.4,8.4-9.3c5.4-1,10.9,2,11.3,8.5C1794.2,110.8,1794.1,111.9,1794.1,113z M1788.4,109c-0.1-1.9-1.9-3.4-4.1-3.3
	c-1.8,0.1-3.6,1.7-3.5,3.3C1783.4,109,1785.9,109,1788.4,109z"/>
<path class="st0" d="M1726.2,121.3c-2.1,0-4.1,0-6.1,0c0-6.6,0-13.1,0-19.7c2,0,4,0,6,0c0,0.6,0,1.1,0,1.8c0.3-0.2,0.5-0.3,0.7-0.4
	c2.3-1.5,4.7-2.2,7.4-1.6c2.9,0.7,4.6,2.7,4.9,5.7c0.1,1.2,0.1,2.4,0.1,3.5c0,3.3,0,6.6,0,9.9c0,0.7-0.2,0.9-0.9,0.9
	c-1.5-0.1-3-0.1-4.5,0c-0.7,0-0.8-0.2-0.8-0.8c0-3.7,0-7.5,0-11.2c0-2.2-1.4-3.2-3.6-2.8c-0.4,0.1-0.7,0.2-1,0.3
	c-2,0.8-2.2,1-2.2,3.1c0,3.5,0,7,0,10.4C1726.2,120.6,1726.2,120.9,1726.2,121.3z"/>
<path class="st0" d="M1804,61.4c2.1,0,4.1,0,6.1,0c0,0.3,0,0.5,0,0.8c0,3.5,0.1,7,0,10.5s2.4,4.1,4.8,3.2c0.2-0.1,0.3-0.1,0.5-0.2
	c1.2-0.5,1.8-1.2,1.7-2.7c-0.1-3.6,0-7.2,0-10.7c0-0.3,0-0.5,0-0.8c2,0,4,0,6,0c0,6.5,0,13.1,0,19.6c-2,0-3.9,0-6,0
	c0-0.6,0-1.1,0-1.8c-0.3,0.2-0.5,0.3-0.6,0.4c-2.1,1.5-4.4,2.1-6.9,1.7c-3.1-0.5-5.2-2.7-5.4-5.8c-0.1-1.9-0.1-3.7-0.2-5.6
	c0-2.6,0-5.2,0-7.8C1804,62,1804,61.7,1804,61.4z"/>
<path class="st0" d="M1861.2,101.5c2.1,0,4.2,0,6.2,0c0.2,0,0.5,0.4,0.6,0.6c1.4,3.3,2.7,6.6,4.1,9.9c0.1,0.2,0.1,0.3,0.2,0.6
	c0.7-1.8,1.4-3.4,2.2-5.1c0.8-1.8,1.6-3.7,2.4-5.5c0.1-0.2,0.3-0.5,0.5-0.5c1.9,0,3.8,0,5.8,0c-0.1,0.3-0.2,0.5-0.3,0.7
	c-4.1,9.1-8.1,18.1-12.2,27.2c-0.2,0.5-0.5,0.7-1.1,0.7c-1.8,0-3.6,0-5.5,0c0.8-1.8,1.6-3.5,2.4-5.2s1.7-3.5,2.5-5.2
	c0.1-0.3,0.1-0.8,0-1.1c-2.4-5.4-4.9-10.8-7.4-16.2C1861.5,102.1,1861.4,101.8,1861.2,101.5z"/>
<path class="st0" d="M1814.5,114.7c1.9,1.1,3.8,1.8,5.9,2.1c1,0.1,2,0.1,3,0.1c0.2,0,0.5-0.1,0.7-0.2c0.5-0.2,0.8-0.6,0.8-1.2
	s-0.3-1-0.8-1.1c-1-0.3-2.1-0.5-3.2-0.7c-1.1-0.3-2.3-0.6-3.4-1c-2.1-0.8-3.5-2.2-3.7-4.5c-0.2-2.4,0.8-4.3,2.9-5.6
	c1.5-1,3.3-1.4,5-1.4c2.6-0.1,5.2,0.3,7.7,1.3c0.5,0.2,0.6,0.4,0.6,0.9c0,1.5,0,3,0,4.6c-0.3-0.1-0.4-0.2-0.6-0.3
	c-1.9-1-3.9-1.6-6.1-1.8c-0.8-0.1-1.6,0.1-2.4,0.2c-0.5,0.1-0.9,0.5-0.9,1.1s0.4,0.9,0.9,1.1c1.1,0.3,2.2,0.5,3.3,0.8
	c1.1,0.3,2.2,0.6,3.3,1c1.9,0.7,3.3,1.9,3.5,4c0.3,2.4-0.4,4.4-2.4,5.9c-1.3,1-2.9,1.5-4.5,1.7c-3.1,0.4-6.1-0.1-9-1.2
	c-0.5-0.2-0.8-0.5-0.8-1.1C1814.6,117.8,1814.5,116.3,1814.5,114.7z"/>
<path class="st0" d="M1858.7,106.6c-1.7,0-3.4,0-5.2,0c0,1,0,2,0,3c0,1.6,0,3.3,0.1,4.9c0.1,1.5,1.1,2.2,2.6,1.9
	c0.8-0.1,1.6-0.4,2.4-0.6c0,1.5,0,3,0,4.5c0,0.1-0.1,0.4-0.3,0.4c-2.5,1.3-6.9,1.5-9.2-0.9c-1.3-1.4-1.7-3.1-1.8-4.9
	c-0.1-2.6,0-5.3,0-7.9c0-0.1,0-0.2,0-0.4c-1.1,0-2.1,0-3.2,0c0-1.7,0-3.4,0-5.1c1,0,2.1,0,3.2,0c0-1.7,0-3.4,0-5.1
	c2-0.4,4-0.7,6.1-1.1c0,2,0,4,0,6.1c1.8,0,3.5,0,5.2,0C1858.7,103.2,1858.7,104.9,1858.7,106.6z"/>
<path class="st0" d="M1771.7,55.2c0,2.1,0,4.1,0,6.2c1.7,0,3.4,0,5.2,0c0,1.7,0,3.4,0,5.1c-1.7,0-3.4,0-5.2,0c0,1.7,0,3.3,0,4.9
	c0,1,0,2,0.1,3c0.2,1.7,1.2,2.4,3,2c0.7-0.2,1.4-0.4,2.1-0.6c0,1.5,0,3,0,4.5c0,0.2-0.2,0.5-0.4,0.5c-2.8,1.2-5.5,1.4-8.2-0.2
	c-1.9-1.2-2.6-3.1-2.7-5.3c-0.1-2.6-0.1-5.2-0.1-7.8c0-0.3,0-0.5,0-0.8c-1.1,0-2.1,0-3.1,0c0-1.7,0-3.4,0-5.1c1,0,2,0,3.1,0
	c0-1.2,0-2.4,0-3.5c0-1.6,0-1.6,1.6-1.9C1768.7,55.7,1770.2,55.4,1771.7,55.2z"/>
<path class="st0" d="M1774.1,101.5c-0.8,1.9-1.5,3.6-2.2,5.4c-1.9,4.6-3.7,9.2-5.6,13.8c-0.2,0.5-0.5,0.7-1.1,0.7c-1.5,0-3,0-4.5,0
	c-0.4,0-0.6-0.1-0.8-0.5c-2.6-6.3-5.1-12.6-7.7-18.9c0-0.1,0-0.2-0.1-0.4c0.3,0,0.6,0,0.9,0c1.6,0,3.3,0,4.9,0
	c0.5,0,0.7,0.1,0.8,0.6c1.4,3.8,2.8,7.7,4.2,11.5c0,0.1,0.1,0.2,0.2,0.4c0.1-0.3,0.2-0.5,0.3-0.6c1.4-3.7,2.9-7.4,4.3-11.2
	c0.2-0.5,0.4-0.7,1-0.7C1770.5,101.5,1772.2,101.5,1774.1,101.5z"/>
<path class="st0" d="M1803.8,101.6c0,0.8,0,1.6,0,2.4c0.1,0,0.1,0.1,0.2,0.1c0.1-0.2,0.2-0.3,0.3-0.5c1.6-1.8,3.7-2.5,6.1-2.3
	c0.2,0,0.5,0.3,0.5,0.4c0,1.8,0,3.6,0,5.2c-1.3,0.1-2.4,0.1-3.6,0.3c-0.6,0.1-1.1,0.3-1.6,0.6c-1.2,0.6-1.9,1.5-1.8,3
	c0.1,3.2,0,6.4,0.1,9.6c0,0.6-0.2,0.8-0.8,0.8c-1.6,0-3.1,0-4.7,0c-0.5,0-0.7-0.1-0.7-0.6c0-6.2,0-12.4,0-18.6c0-0.3,0-0.6,0.5-0.6
	c1.8,0,3.5,0,5.3,0C1803.6,101.5,1803.7,101.5,1803.8,101.6z"/>
<path class="st0" d="M1892.5,81.1c-2.1,0-4.1,0-6.1,0c0-6.5,0-13.1,0-19.6c2,0,3.9,0,5.9,0c0,0.8,0,1.6,0,2.6c2-2.4,4.3-3.3,7.1-2.8
	c0,1.9,0,3.8,0,5.8c-1.1,0-2.2-0.1-3.2,0c-0.6,0.1-1.3,0.3-1.8,0.6c-1.2,0.6-2,1.4-1.9,3c0.1,3.2,0,6.4,0,9.6
	C1892.5,80.5,1892.5,80.8,1892.5,81.1z"/>
<path class="st0" d="M1752.2,81.1c-2.1,0-4.1,0-6.1,0c0-6.5,0-13.1,0-19.6c1.9,0,3.9,0,5.9,0c0,0.8,0,1.6,0,2.6
	c1-1.2,1.9-2.1,3.2-2.5c1.2-0.4,2.5-0.6,3.9-0.3c0,1.9,0,3.8,0,5.6c-1.1,0.1-2.3,0-3.3,0.2c-0.7,0.1-1.3,0.4-1.9,0.7
	c-1.1,0.6-1.8,1.4-1.7,2.9c0.1,3.2,0,6.4,0,9.6C1752.2,80.5,1752.2,80.7,1752.2,81.1z"/>
<path class="st0" d="M1750.7,159.3c-0.1,0-0.1,0.1-0.1,0.1c-1.7,0.1-1.7,0.1-2.2-1.5c-1.5-4.9-3.1-9.8-4.6-14.7
	c-0.1-0.2-0.2-0.4-0.3-0.7c-0.7,2.4-1.4,4.6-2.1,6.8c-1,3.2-2,6.3-3,9.5c-0.2,0.5-0.4,0.6-0.9,0.6c-1.2,0-1.2,0-1.6-1.2
	c-1.9-6.2-3.9-12.3-5.8-18.5c-0.1-0.3-0.2-0.6-0.3-0.9c0.6,0,1.1,0,1.6,0c0.2,0,0.4,0.3,0.5,0.5c1.2,3.9,2.5,7.8,3.7,11.8
	c0.6,1.8,1.1,3.6,1.7,5.5c0.1-0.3,0.2-0.5,0.3-0.7c1.7-5.5,3.4-10.9,5.2-16.4c0.1-0.5,0.3-0.7,0.9-0.7s0.8,0.2,0.9,0.7
	c1.7,5.4,3.4,10.8,5.1,16.2c0.1,0.2,0.2,0.5,0.3,0.9c0.5-1.6,0.9-3,1.3-4.3c1.3-4.2,2.7-8.4,3.9-12.7c0.2-0.7,0.5-0.9,1.1-0.8
	c0.3,0,0.6,0,1,0C1754.9,145.7,1752.8,152.5,1750.7,159.3z"/>
<path class="st0" d="M1903.1,81.1c0-6.6,0-13.1,0-19.7c2,0,4,0,6.1,0c0,6.5,0,13.1,0,19.7C1907.1,81.1,1905.1,81.1,1903.1,81.1z"/>
<path class="st0" d="M1840.5,121.2c-2,0-4,0-6,0c0-6.6,0-13.1,0-19.7c2,0,4,0,6,0C1840.5,108.1,1840.5,114.6,1840.5,121.2z"/>
<path class="st0" d="M1749.3,101.5c0,6.6,0,13.1,0,19.7c-2,0-4,0-6.1,0c0-6.6,0-13.1,0-19.7C1745.2,101.5,1747.2,101.5,1749.3,101.5
	z"/>
<path class="st0" d="M1705.7,156.4c0-6,0-11.8,0-17.6c0.6,0,1.1,0,1.7,0c0,6.8,0,13.6,0,20.5c-1,0.2-1.7,0-2.4-0.9
	c-3.9-5.4-8-10.7-12-16.1c-0.1-0.2-0.3-0.3-0.5-0.6c0,6,0,11.8,0,17.6c-0.6,0-1.1,0-1.7,0c0-6.8,0-13.6,0-20.4
	c1.2-0.3,1.6-0.2,2.3,0.8c4,5.3,8,10.7,11.9,16C1705.3,155.8,1705.4,156.1,1705.7,156.4z"/>
<path class="st0" d="M1799.1,159.3c-0.7,0-1.3,0-1.9,0c-0.8-1.8-1.5-3.7-2.3-5.5c-0.2-0.5-0.4-0.6-0.9-0.6c-2.9,0-5.8,0-8.7,0
	c-0.5,0-0.8,0.2-0.9,0.7c-0.6,1.6-1.3,3.1-1.9,4.7c-0.2,0.6-0.6,0.9-1.2,0.8c-0.3,0-0.6,0-1,0c0.3-0.8,0.6-1.6,0.9-2.3
	c2.4-5.9,4.9-11.8,7.3-17.7c0.3-0.7,0.7-0.6,1.2-0.6s0.8,0.1,1.1,0.6c2.6,6.4,5.3,12.8,8,19.2C1798.9,158.8,1799,159,1799.1,159.3z
	 M1794,151.5c-1.4-3.5-2.8-7-4.3-10.6c-1.5,3.6-2.9,7-4.3,10.6C1788.3,151.5,1791.1,151.5,1794,151.5z"/>
<path class="st0" d="M1858.2,159.3c0-6.9,0-13.7,0-20.5c3.8,0,7.5,0,11.3,0c0,0.5,0,1,0,1.6c-3.2,0-6.3,0-9.5,0c0,2.5,0,4.9,0,7.4
	c2.8,0,5.6,0,8.4,0c0,0.6,0,1.1,0,1.7c-2.8,0-5.6,0-8.4,0c0,2.7,0,5.4,0,8.2c3.3,0,6.5,0,9.8,0c0,0.6,0,1.1,0,1.6
	C1865.9,159.3,1862.1,159.3,1858.2,159.3z"/>
<path class="st0" d="M1715.5,140.4c0,2.5,0,4.9,0,7.4c2.8,0,5.6,0,8.5,0c0,0.6,0,1.1,0,1.6c-2.8,0-5.6,0-8.5,0c0,2.8,0,5.5,0,8.2
	c3.3,0,6.5,0,9.8,0c0,0.6,0,1.1,0,1.6c-3.8,0-7.7,0-11.6,0c0-6.8,0-13.6,0-20.5c3.8,0,7.6,0,11.3,0l0.1,0.1c0.2,1.5,0.2,1.5-1.3,1.5
	c-2.5,0-5,0-7.5,0C1716.1,140.4,1715.8,140.4,1715.5,140.4z"/>
<path class="st0" d="M1802.8,156.1c1.1,0.5,2.1,1,3.2,1.4c1.5,0.5,3.1,0.7,4.7,0.2c1.8-0.5,2.8-1.7,2.9-3.4c0.2-1.6-0.6-3-2.3-3.7
	c-1.3-0.6-2.7-0.9-4-1.3c-0.7-0.3-1.5-0.5-2.1-0.9c-2-1-2.9-2.8-2.7-5c0.2-2.2,1.3-3.8,3.4-4.5c2.9-1,5.7-0.5,8.3,0.9
	c0.2,0.1,0.3,0.4,0.4,0.6c0.1,0.5,0,0.9,0,1.5c-0.3-0.2-0.5-0.3-0.7-0.4c-2.1-1.2-4.3-1.8-6.7-1.3c-1.6,0.4-2.7,1.5-2.8,2.9
	c-0.2,1.8,0.4,3,2,3.8c1.3,0.5,2.6,0.9,3.9,1.3c0.6,0.2,1.3,0.4,1.9,0.7c2.3,1,3.4,2.8,3.3,5.1c-0.2,2.6-1.5,4.4-3.9,5.1
	c-2.9,0.8-5.7,0.4-8.4-1.1c-0.2-0.1-0.3-0.4-0.4-0.6C1802.8,157.1,1802.8,156.6,1802.8,156.1z"/>
<path class="st0" d="M1776.4,156.2c0,2.3,0.5,2-1.7,2.8c-4.4,1.5-9.6,0.7-12.5-3c-2.8-3.5-3.2-7.5-1.4-11.5c1.7-3.9,5-5.7,9.2-6
	c1.8-0.1,3.5,0.3,5.2,0.9c0.6,0.2,0.9,0.6,0.8,1.2c0,0.3,0,0.7,0,1.1c-2.8-1.7-5.7-2.1-8.7-1.1c-1.8,0.6-3.1,1.7-4.2,3.2
	c-2.2,3.2-2.1,7.9,0.3,10.9c1.6,2,3.6,3,6.1,3.2C1772,158.2,1774.2,157.6,1776.4,156.2z"/>
<path class="st0" d="M1826.4,140.4c-2.4,0-4.7,0-7.1,0c0-0.6,0-1.1,0-1.6c5.3,0,10.5,0,15.8,0c0,0.5,0,1,0,1.6c-2.3,0-4.6,0-7,0
	c0,6.3,0,12.6,0,18.9c-0.6,0-1.2,0-1.8,0C1826.4,153.1,1826.4,146.8,1826.4,140.4z"/>
<path class="st0" d="M1840.7,159.3c0-6.8,0-13.6,0-20.5c0.6,0,1.1,0,1.7,0c0,6.3,0,12.6,0,18.9c3.4,0,6.7,0,10.1,0
	c0,0.6,0,1.1,0,1.6C1848.6,159.3,1844.7,159.3,1840.7,159.3z"/>
<path class="st0" d="M1841,95.3c0,2-1.6,3.5-3.5,3.5s-3.6-1.6-3.6-3.5s1.6-3.5,3.5-3.5C1839.4,91.7,1841,93.3,1841,95.3z"/>
<path class="st0" d="M1906.1,58.6c-2,0-3.5-1.6-3.5-3.5c0-2,1.6-3.4,3.6-3.4s3.5,1.5,3.5,3.5C1909.7,57.1,1908.1,58.6,1906.1,58.6z"
	/>
<path class="st0" d="M1742.7,95.3c0-1.9,1.6-3.5,3.6-3.5c1.9,0,3.5,1.6,3.6,3.5c0,1.9-1.6,3.6-3.5,3.6
	C1744.3,98.8,1742.7,97.2,1742.7,95.3z"/>
<path class="st0" d="M1609.2,76.7c0,1.2,0,2.4,0,3.5c0.6,0,1.1,0,1.7,0c0-1.2,0-2.3,0-3.5C1610.3,76.7,1609.8,76.7,1609.2,76.7z"/>
<path class="st0" d="M1632,80.2c0-1.2,0-2.3,0-3.5c-0.6,0-1.1,0-1.7,0c0,1.2,0,2.3,0,3.5C1630.8,80.2,1631.4,80.2,1632,80.2z"/>
<path class="st0" d="M1651.3,80.2c0.6,0,1.2,0,1.8,0c0-1.2,0-2.3,0-3.5c-0.6,0-1.2,0-1.8,0C1651.3,77.9,1651.3,79,1651.3,80.2z"/>
<path class="st0" d="M1642.5,71.5c0-1.2,0-2.3,0-3.5c-0.6,0-1.1,0-1.7,0c0,1.2,0,2.3,0,3.5C1641.4,71.5,1641.9,71.5,1642.5,71.5z"/>
<path class="st0" d="M1598.6,67.9c0,1.2,0,2.4,0,3.6c0.5,0,1,0,1.4,0c0.1,0,0.4-0.2,0.4-0.3c0-1.1,0-2.1,0-3.2
	C1599.8,67.9,1599.2,67.9,1598.6,67.9z"/>
<path class="st0" d="M1621.4,130.8c2.2-1,4.5-1,6.7-1.1c1.1,0,2.3-0.2,3.4-0.3c0.4,0,0.6-0.2,0.5-0.6c-0.1-3.2-0.2-6.4-0.2-9.6
	c0-1.1,0-2.2,0-3.3c-1.4-0.2-2.7-0.3-3.9-0.5c-2.1-0.2-4,0-5.9,1c-0.4,0.2-0.6,0.5-0.6,1c0,1.8,0,3.6,0,5.4
	C1621.4,125.4,1621.4,128,1621.4,130.8z M1609.1,129.3c0.5,0.1,1,0.2,1.5,0.2c1.2,0.1,2.5,0.1,3.7,0.2c1.8,0,3.6,0.2,5.4,1
	c0-4.6,0-9.1,0-13.7c0-0.2-0.2-0.5-0.4-0.6c-1.2-0.7-2.4-1.2-3.8-1.1c-2,0-4.1,0.3-6.2,0.4C1609.3,120.3,1609.2,124.8,1609.1,129.3z
	"/>
<path class="st0" d="M1609.2,76.7c0.6,0,1.1,0,1.7,0c0,1.2,0,2.3,0,3.5c-0.5,0-1.1,0-1.7,0C1609.2,79.1,1609.2,77.9,1609.2,76.7z"/>
<path class="st0" d="M1632,80.2c-0.6,0-1.1,0-1.7,0c0-1.2,0-2.3,0-3.5c0.6,0,1.1,0,1.7,0C1632,77.9,1632,79,1632,80.2z"/>
<path class="st0" d="M1651.3,80.2c0-1.2,0-2.3,0-3.5c0.6,0,1.1,0,1.8,0c0,1.1,0,2.3,0,3.5C1652.5,80.2,1652,80.2,1651.3,80.2z"/>
<path class="st0" d="M1589.8,80.2c-0.6,0-1.2,0-1.8,0c0-1.2,0-2.3,0-3.5c0.6,0,1.2,0,1.8,0C1589.8,77.9,1589.8,79,1589.8,80.2z"/>
<path class="st0" d="M1642.5,71.5c-0.6,0-1.1,0-1.7,0c0-1.2,0-2.3,0-3.5c0.6,0,1.1,0,1.7,0C1642.5,69.1,1642.5,70.3,1642.5,71.5z"/>
<path class="st0" d="M1598.6,67.9c0.6,0,1.1,0,1.8,0c0,1.1,0,2.2,0,3.2c0,0.1-0.2,0.3-0.4,0.3c-0.4,0-0.9,0-1.4,0
	C1598.6,70.3,1598.6,69.1,1598.6,67.9z"/>
<path class="st0" d="M1621.4,130.8c0-2.7,0-5.4,0-8c0-1.8,0-3.6,0-5.4c0-0.5,0.2-0.7,0.6-1c1.9-1,3.9-1.2,5.9-1
	c1.2,0.1,2.5,0.3,3.9,0.5c0,1.1,0,2.2,0,3.3c0.1,3.2,0.1,6.4,0.2,9.6c0,0.5-0.1,0.6-0.5,0.6c-1.1,0.1-2.3,0.3-3.4,0.3
	C1625.9,129.8,1623.6,129.8,1621.4,130.8z"/>
<path class="st0" d="M1609.1,129.3c0.1-4.6,0.2-9,0.3-13.5c2.1-0.1,4.1-0.3,6.2-0.4c1.3,0,2.6,0.5,3.8,1.1c0.2,0.1,0.4,0.4,0.4,0.6
	c0,4.5,0,9,0,13.7c-1.8-0.8-3.6-1-5.4-1c-1.2,0-2.5-0.1-3.7-0.2C1610.1,129.6,1609.6,129.4,1609.1,129.3z"/>
<g>
	<path class="st0" d="M2631.5,0c0,0.9,0,1.8,0,2.7c0,58.5,0,116.9,0,175.4c0,0.3,0,0.6,0,1.1c0.4,0,0.7,0,1,0c41.7,0,83.4,0,125.2,0
		c0.3,0,0.6,0,0.9,0c0-59.7,0-119.4,0-179.1C2716.2,0,2673.8,0,2631.5,0z M2757.3,177.9c-41.5,0-83,0-124.6,0
		c0-58.9,0-117.7,0-176.6c41.5,0,83,0,124.6,0C2757.3,60.1,2757.3,119,2757.3,177.9z"/>
	<path class="st0" d="M2747.8,89c-35.5,0-70.9,0-106.3,0c0,0.4,0,0.7,0,1.1c35.5,0,70.9,0,106.3,0
		C2747.8,89.8,2747.8,89.4,2747.8,89z"/>
	<path class="st0" d="M2684.8,33.6c0.1,0,0.1,0,0.2,0c0.1,0.2,0.3,0.4,0.4,0.6c1.7,2.7,3.4,5.4,5.1,8.2c0.1,0.2,0.4,0.5,0.6,0.5
		c0.5,0.1,1,0,1.5,0c0-4,0-7.9,0-11.8c-0.5,0-1,0-1.5,0c0,3.1,0,6.2,0,9.5c-0.2-0.3-0.3-0.5-0.4-0.6c-1.7-2.8-3.5-5.6-5.2-8.4
		c-0.1-0.2-0.3-0.5-0.5-0.5c-0.5-0.1-1.1,0-1.6,0c0,4,0,7.9,0,11.8c0.5,0,1,0,1.5,0C2684.8,39.7,2684.8,36.6,2684.8,33.6z"/>
	<path class="st0" d="M2708.6,139.3c0-2.6,0-5.3,0-7.9c0-0.1,0-0.3-0.1-0.4c-0.4,0-0.9,0-1.3,0c0,0.3-0.1,0.7-0.1,1.1
		c-1-1.3-2.2-1.6-3.6-1.2c-1.5,0.4-2.2,1.6-2.4,3c-0.1,1-0.1,2,0.1,3c0.6,2.9,3.7,4,6,1.9c-0.1,0.8-0.1,1.4-0.3,2
		c-0.3,0.8-0.9,1.2-1.8,1.3c-0.8,0.1-1.7,0.1-2.1-0.7c-0.4-0.9-1-0.7-1.7-0.6c0.1,1.1,0.6,1.8,1.6,2.2
		C2705.8,144.2,2708.5,142.5,2708.6,139.3z M2706.9,137.2c-0.3,1-1.1,1.5-2.1,1.5c-0.9,0-1.6-0.5-2-1.5c-0.1-0.3-0.2-0.5-0.2-0.8
		c-0.1-0.4-0.1-0.8-0.1-1.3c0.1-0.4,0.1-0.9,0.2-1.4c0.3-1,1-1.5,2-1.6c1,0,1.8,0.4,2.2,1.4C2707.3,134.7,2707.4,135.9,2706.9,137.2
		z"/>
	<path class="st0" d="M2655.7,37.4c2.1,0,4.1,0,6.2,0c0,1.8,0,3.6,0,5.4c0.5,0,1,0,1.5,0c0-3.9,0-7.8,0-11.8c-0.5,0-1,0-1.6,0
		c0,1.6,0,3.2,0,4.8c-2.1,0-4.1,0-6.2,0c0-1.6,0-3.2,0-4.8c-0.5,0-1,0-1.5,0c0,3.9,0,7.8,0,11.8c0.5,0,1,0,1.5,0
		C2655.7,41,2655.7,39.2,2655.7,37.4z"/>
	<path class="st0" d="M2668.2,147.9c-0.5,0-0.9,0-1.3,0c0,0.4,0,0.6-0.1,1c-0.1-0.1-0.2-0.2-0.3-0.2c-1.5-1.7-4.2-1.4-5.3,0.6
		s-1,4.1,0.3,6c1,1.5,3.1,1.9,4.5,1c0.2-0.1,0.4-0.3,0.8-0.6c-0.1,0.8-0.1,1.3-0.3,1.9c-0.3,0.9-1,1.2-1.9,1.3
		c-0.8,0.1-1.6,0.1-2-0.7c-0.4-0.9-1-0.7-1.7-0.6c0.1,1.1,0.6,1.9,1.7,2.2c1.3,0.4,2.6,0.4,3.8-0.2c0.7-0.3,1.3-0.9,1.5-1.7
		c0.2-0.6,0.3-1.2,0.3-1.9c0-2.5,0-5,0-7.6C2668.3,148.4,2668.2,148.2,2668.2,147.9z M2666.5,154.3c-0.4,0.9-1.1,1.2-2,1.2
		s-1.5-0.5-1.9-1.2c-0.6-1.3-0.6-2.7-0.1-4c0.3-0.8,0.9-1.3,1.8-1.3c0.9-0.1,1.7,0.2,2,1c0.3,0.7,0.5,1.5,0.7,2.3
		C2666.8,153,2666.7,153.7,2666.5,154.3z"/>
	<path class="st0" d="M2718,42.5c0.2,0.7,0.7,0.3,1.1,0.4c0.3,0.1,0.6-0.1,0.6-0.4c0.3-1.2,0.6-2.3,0.9-3.5c0.2-0.8,0.4-1.7,0.7-2.5
		h0.1c0.1,0.2,0.1,0.4,0.2,0.6c0.5,1.7,0.9,3.5,1.4,5.2c0.1,0.5,0.4,0.6,0.8,0.6c0.5,0,0.9,0.1,1-0.6c0.7-2.5,1.4-5,2.1-7.5
		c0-0.2,0.1-0.3,0.1-0.5c-0.2,0-0.3,0-0.4,0c-0.7-0.1-1.1,0.1-1.2,0.9c-0.2,1-0.5,2-0.7,3c-0.2,0.9-0.5,1.8-0.7,2.7
		c-0.6-2-1.2-4.1-1.6-6.1c-0.1-0.6-0.5-0.5-0.9-0.5s-0.8-0.2-1,0.5c-0.2,0.9-0.4,1.9-0.7,2.8c-0.3,1.1-0.5,2.2-0.8,3.3h-0.1
		c-0.5-2.2-1.1-4.3-1.6-6.5c-0.5,0-1,0-1.5,0c0,0.1,0,0.2,0,0.2C2716.5,37.2,2717.3,39.8,2718,42.5z"/>
	<path class="st0" d="M2654.3,149c-0.2-0.1-0.2-0.2-0.3-0.2c-1-1.6-4.2-1.7-5.4,0.6c-0.9,1.9-0.9,3.9,0.3,5.8
		c1.2,1.9,3.7,2.1,5.2,0.4c0,0,0.1,0,0.2-0.1c0,0.3,0,0.6,0.1,0.9c0.5,0,0.9,0,1.3,0c0-3.9,0-7.8,0-11.7c-0.5,0-0.9,0-1.4,0
		C2654.3,146.1,2654.3,147.5,2654.3,149z M2653.9,154.2c-0.4,0.9-1.1,1.3-2,1.3s-1.6-0.5-1.9-1.3c-0.2-0.7-0.3-1.4-0.5-2
		c0.1-0.6,0.2-1.2,0.4-1.8c0.3-0.9,1-1.4,1.9-1.4s1.7,0.3,2.1,1.2C2654.4,151.5,2654.4,152.8,2653.9,154.2z"/>
	<path class="st0" d="M2678.9,139.6c0-4,0-7.9,0-11.8c-0.5,0-0.9,0-1.4,0c0,1.4,0,2.8,0,4.3c-0.1-0.1-0.2-0.1-0.2-0.2
		c-1.8-1.9-4.5-1.4-5.6,1c-0.5,1.2-0.5,2.4-0.3,3.6c0.3,1.5,1,2.8,2.5,3.2c1.4,0.4,2.6,0.2,3.6-1.2c0,0.5,0.1,0.8,0.1,1.1
		C2678.1,139.6,2678.5,139.6,2678.9,139.6z M2677.1,137.5c-0.3,0.8-1,1.2-1.9,1.2s-1.5-0.4-1.9-1.2c-0.6-1.3-0.6-2.7-0.2-4.1
		c0.3-0.9,1-1.3,1.9-1.3s1.7,0.4,2,1.2c0.3,0.7,0.4,1.5,0.6,2.2C2677.4,136.2,2677.3,136.9,2677.1,137.5z"/>
	<path class="st0" d="M2735.7,120.1c-0.4,0-0.9,0-1.3,0c-0.6,1.3-1.6,1.9-2.9,1.6c-1.2-0.3-1.8-1.1-1.8-2.8c2.1,0,4.2,0,6.3,0
		c-0.1-0.9-0.2-1.7-0.4-2.4c-0.4-1.2-1.1-2.1-2.4-2.4c-2.2-0.6-4.3,0.6-4.9,2.8c-0.2,0.8-0.3,1.8-0.2,2.6c0.3,2.7,2.4,4.1,5.1,3.4
		C2734.6,122.5,2735.6,121.4,2735.7,120.1z M2732.2,115.2c1.3,0,2.2,1,2.2,2.5c-1.6,0-3.1,0-4.7,0
		C2729.8,116.1,2730.8,115.1,2732.2,115.2z"/>
	<path class="st0" d="M2699.3,115.2c-0.5-0.7-1.2-1.1-2-1.3c-2.4-0.4-4.3,0.9-4.8,3.3c-0.1,0.6-0.2,1.2-0.1,1.8
		c0.1,3,2.7,4.8,5.6,3.7c1.2-0.5,2-1.5,2.1-2.6c-0.7-0.1-1.4-0.2-1.7,0.7c-0.1,0.2-0.4,0.4-0.6,0.6c-0.8,0.5-1.7,0.5-2.6,0.1
		c-1-0.5-1.2-1.4-1.2-2.6c2.1,0,4.2,0,6.2,0C2700.3,117.6,2700,116.2,2699.3,115.2z M2694,117.7c-0.1-1.4,1-2.5,2.4-2.5
		s2.3,1,2.3,2.5C2697.1,117.7,2695.6,117.7,2694,117.7z"/>
	<path class="st0" d="M2703.9,42.7c1-0.5,1.6-1.4,1.8-2.5c-0.4,0-0.7,0-1,0c-0.2,0-0.4,0.2-0.5,0.3c-0.6,1.1-1.8,1.6-3,1.3
		c-1.1-0.3-1.7-1.3-1.6-2.7c2,0,4.1,0,6.2,0c0-0.5,0-0.9-0.1-1.2c-0.2-1.6-0.7-3-2.4-3.6c-2.2-0.8-4.4,0.4-5.1,2.6
		c-0.2,0.7-0.3,1.5-0.3,2.2C2698.1,42.3,2701.1,44.1,2703.9,42.7z M2702,35.3c1.4,0,2.3,1,2.3,2.6c-1.5,0-3.1,0-4.6,0
		C2699.6,36.4,2700.6,35.3,2702,35.3z"/>
	<path class="st0" d="M2686.8,137c-0.7,1.4-1.9,2-3.2,1.5c-1.1-0.4-1.7-1.5-1.5-2.7c2,0,4.1,0,6.3,0c-0.1-0.9-0.2-1.7-0.4-2.4
		c-0.3-1.1-1-2-2.1-2.4c-2.2-0.8-4.5,0.4-5.1,2.6c-0.3,1-0.3,2-0.2,3c0.3,2.1,1.7,3.3,3.8,3.3c2,0,3.5-1.2,3.7-2.9
		C2687.7,137,2687.3,137,2686.8,137z M2684.7,132.1c1.3,0.1,2.1,1.1,2,2.5c-1.5,0-3.1,0-4.7,0
		C2682.2,132.9,2683.3,131.9,2684.7,132.1z"/>
	<path class="st0" d="M2734.5,42.3c0.6-0.5,1-1.2,1.1-2.2c-0.5,0.3-1.2-0.4-1.5,0.4c-0.5,1.1-1.8,1.6-3,1.2
		c-1.1-0.4-1.7-1.4-1.5-2.7c2,0,4.1,0,6.2,0c-0.1-0.8-0.1-1.4-0.3-2.1c-0.4-1.8-1.5-2.8-3.1-2.9c-1.9-0.1-3.4,0.7-4.1,2.4
		c-0.5,1.3-0.6,2.5-0.2,3.8C2728.9,43,2732.4,44.1,2734.5,42.3z M2731.9,35.3c1.4-0.1,2.3,0.9,2.4,2.5c-1.6,0-3.1,0-4.6,0
		C2729.5,36.5,2730.5,35.4,2731.9,35.3z"/>
	<path class="st0" d="M2741.2,152.7c-0.1-0.7-0.1-1.3-0.2-1.8c-0.4-1.8-1.4-2.9-2.9-3.1c-2.3-0.4-4.1,0.9-4.6,3.1
		c-0.2,0.7-0.2,1.4-0.1,2.1c0.2,2.6,2,4.1,4.7,3.8c1.6-0.2,2.9-1.4,2.9-2.9c-0.5,0.2-1.1-0.4-1.5,0.4c-0.5,1.1-1.8,1.6-3,1.2
		c-1.1-0.3-1.8-1.4-1.6-2.7C2737,152.7,2739,152.7,2741.2,152.7z M2734.9,151.5c0-1.5,1-2.5,2.4-2.5s2.3,0.9,2.3,2.5
		C2738.1,151.5,2736.5,151.5,2734.9,151.5z"/>
	<path class="st0" d="M2669.9,43c1.5-0.3,2.6-1.6,2.6-2.9c-0.3,0-0.7,0-1,0c-0.2,0-0.4,0.2-0.5,0.3c-0.6,1.2-1.7,1.7-3,1.3
		c-1.1-0.3-1.7-1.3-1.6-2.7c1,0,2,0,3,0s2,0,3.2,0c-0.1-0.8-0.2-1.5-0.3-2.2c-0.4-1.7-1.5-2.7-3-2.8c-1.9-0.2-3.4,0.6-4,2.2
		c-0.4,0.9-0.5,2-0.5,3.1C2665,42,2667.2,43.6,2669.9,43z M2669,35.3c1.3,0.1,2.2,1.1,2.1,2.5c-1.5,0-3.1,0-4.7,0
		C2666.6,36.3,2667.6,35.2,2669,35.3z"/>
	<path class="st0" d="M2683.8,148.9c-1.7-2.2-5.3-1.6-6,1.6c-0.3,1.4-0.3,2.7,0.3,4c1,2.4,3.6,2.9,5.5,1.2c0,0,0.1-0.1,0.2-0.1
		c0,0.3,0.1,0.6,0.1,0.9c0.5,0,0.9,0,1.3,0c0-2.9,0-5.7,0-8.5c-0.5,0-0.9,0-1.3,0C2683.8,148.3,2683.8,148.5,2683.8,148.9z
		 M2683.3,154.4c-0.4,0.8-1.1,1.1-2,1.1s-1.5-0.5-1.8-1.2c-0.2-0.7-0.3-1.4-0.5-2.1c0.2-0.7,0.3-1.4,0.5-2c0.3-0.8,0.9-1.3,1.8-1.3
		c0.9,0,1.7,0.3,2.1,1.2C2684,151.5,2684,153,2683.3,154.4z"/>
	<path class="st0" d="M2660.8,114.2c-0.5,0-0.9,0-1.3,0c0,0.3,0,0.6-0.1,0.9c-0.1-0.1-0.2-0.1-0.3-0.2c-1.5-1.5-3.9-1.3-5.1,0.4
		c-1.2,1.7-1.1,4.8,0.2,6.4c1.2,1.6,3.4,1.7,4.9,0.4c0.1-0.1,0.2-0.1,0.3-0.2c0,0.3,0.1,0.6,0.1,0.9c0.5,0,0.9,0,1.3,0
		C2660.8,119.8,2660.8,117,2660.8,114.2z M2659,120.5c-0.4,0.9-1.1,1.2-2,1.2s-1.6-0.5-1.9-1.3c-0.5-1.3-0.5-2.7,0-4
		c0.3-0.8,0.9-1.2,1.8-1.3c0.9-0.1,1.7,0.2,2,1c0.3,0.7,0.5,1.5,0.7,2.2C2659.4,119.2,2659.3,119.9,2659,120.5z"/>
	<path class="st0" d="M2676.3,110.9c0,3.9,0,7.8,0,11.7c0.5,0,0.9,0,1.4,0c0-1.5,0-3,0-4.5c0-0.6,0.2-1.3,0.4-1.9
		c0.4-0.9,1.5-1.3,2.6-1.1c0.8,0.2,1.1,0.7,1.1,1.9c0,1.6,0,3.2,0,4.8c0,0.2,0,0.5,0,0.7c0.5,0,0.9,0,1.4,0c0-2.1,0-4.2,0-6.2
		c0-1.6-1.1-2.5-2.7-2.6c-1.1,0-2,0.4-2.8,1.2c0-1.4,0-2.8,0-4.1C2677.1,110.9,2676.7,110.9,2676.3,110.9z"/>
	<path class="st0" d="M2685.2,58.5c-1.5,0.8-3,0.1-3.5-1.5c-0.4,0-0.9,0-1.3,0c0,1.1,0.3,2,1.3,2.4c1.4,0.7,2.9,0.8,4.4,0.1
		c1.1-0.5,1.5-1.4,1.4-2.6c-0.1-1.1-0.8-1.6-1.7-1.9c-0.9-0.3-1.8-0.5-2.8-0.8c-0.5-0.1-1-0.3-0.9-1c0-0.7,0.5-1,1.1-1.1
		c1.4-0.3,2.1,0.1,2.8,1.3c0.4,0,0.8,0,1.3,0c-0.1-1.2-0.6-2-1.7-2.4c-1-0.4-2.1-0.4-3.1,0c-1.2,0.4-1.8,1.4-1.7,2.6
		c0.1,1,0.6,1.6,1.9,1.9c0.9,0.2,1.8,0.4,2.6,0.7c0.5,0.1,0.9,0.4,0.8,1C2685.9,57.8,2685.6,58.3,2685.2,58.5z"/>
	<path class="st0" d="M2716,134c0,1.4,0,2.7,0,4.1c0,0.5,0,1.1,0,1.6c0.5,0,0.9,0,1.4,0c0-2,0-3.9,0-5.9c0-1.2-0.4-2.3-1.6-2.8
		c-1.3-0.5-2.5-0.3-3.5,0.7c-0.1,0.1-0.3,0.3-0.5,0.4c0-0.4-0.1-0.8-0.1-1.1c-0.5,0-0.8,0-1.3,0c0,2.9,0,5.7,0,8.6
		c0.5,0,0.9,0,1.4,0c0-1.6,0-3.1,0-4.6c0-0.6,0.1-1.3,0.4-1.8c0.4-0.9,1.4-1.3,2.5-1.1C2715.6,132.3,2716,132.8,2716,134z"/>
	<path class="st0" d="M2696.4,136.6c-0.1-0.9-0.8-1.3-1.6-1.6c-0.3-0.1-0.5-0.2-0.8-0.2c-0.8-0.2-1.5-0.4-2.3-0.7
		c-0.3-0.1-0.7-0.5-0.7-0.8c0-0.4,0.3-0.9,0.6-1c1.2-0.7,2.7-0.1,3.2,1.1c0.4,0,0.9,0,1.3,0c0-1.2-0.6-2-1.7-2.4c-1-0.4-2-0.4-3,0
		c-1.2,0.4-1.9,1.4-1.8,2.5c0,1.1,0.7,1.7,2,2.1c0.8,0.2,1.7,0.4,2.5,0.7c0.5,0.1,0.9,0.4,0.9,1s-0.4,1-0.9,1.2
		c-1.5,0.6-2.9,0-3.4-1.6c-0.4,0-0.8,0-1.3,0c0.1,1.2,0.3,1.8,0.9,2.2c1.3,1,3.9,1,5.2,0C2696.3,138.5,2696.6,137.6,2696.4,136.6z"
		/>
	<path class="st0" d="M2671.9,59.7c0.5,0,0.9,0,1.4,0c0-1.6-0.1-3.1,0-4.6c0-0.7,0.2-1.4,0.5-2c0.4-0.8,1.5-1.1,2.4-0.9
		c0.8,0.2,1.1,0.7,1.2,1.8c0.1,1,0,2.1,0,3.1c0,0.9,0,1.7,0,2.6c0.5,0,1,0,1.4,0c0-0.1,0.1-0.1,0.1-0.2c0-1.2,0-2.3,0-3.5
		c0-1,0-2-0.1-3c-0.2-1.3-1.1-2-2.5-2.2c-1.2-0.1-2.2,0.3-3.1,1.4c0-0.5-0.1-0.8-0.1-1.2c-0.4,0-0.8,0-1.2,0
		C2671.9,54,2671.9,56.9,2671.9,59.7z"/>
	<path class="st0" d="M2712.3,51.9c0-0.2,0-0.5,0-0.8c-0.5,0-0.9,0-1.4,0c0,2-0.1,4,0,5.9c0,0.7,0.4,1.5,0.9,2
		c1.2,1.2,2.7,1.2,4.2,0.6c1.4-0.5,1.9-1.7,1.9-3.1c0-1.6,0-3.2,0-4.8c0-0.2,0-0.4,0-0.6c-0.5,0-0.9,0-1.4,0c0,1.9,0,3.7,0,5.5
		c0,1.4-0.9,2.2-2.2,2.1c-1.1-0.1-1.8-0.7-1.9-1.9C2712.3,55.2,2712.3,53.6,2712.3,51.9z"/>
	<path class="st0" d="M2705.4,115.2c0.9,0.1,1.4,0.6,1.7,1.4c0,0.1,0.1,0.3,0.1,0.4c0.5,0,0.9,0,1.4,0c-0.2-1.2-0.6-2.3-1.8-2.8
		c-1.8-0.8-4.1,0-5,1.7s-0.9,3.4-0.1,5.1c0.7,1.6,2.4,2.3,4.2,1.9c1.5-0.3,2.5-1.5,2.6-3.1c-1.1-0.2-1.1-0.2-1.6,0.8
		c-0.4,0.8-0.9,1.2-1.8,1.2c-0.9,0-1.6-0.4-1.9-1.2c-0.6-1.4-0.6-2.9,0.1-4.3C2703.7,115.4,2704.5,115.1,2705.4,115.2z"/>
	<path class="st0" d="M2721.3,120c0-0.9,0-1.9,0-2.8c0-1,0-2,0-3c-0.5,0-1,0-1.4,0c0,1.7,0,3.4,0,5.1c0,0.3,0,0.7-0.1,1
		c-0.2,1-0.9,1.5-2,1.5s-1.8-0.5-2-1.5c-0.1-0.4-0.1-0.9-0.1-1.3c0-1.6,0-3.2,0-4.8c-0.5,0-0.9,0-1.4,0c0,2.1-0.1,4.1,0,6.1
		c0,1,0.6,1.8,1.6,2.3s2,0.5,3,0.3C2720.4,122.5,2721.3,121.4,2721.3,120z"/>
	<path class="st0" d="M2705.4,58.8c-1.2-0.1-1.9-0.8-1.9-2.1c0-1.6,0-3.2,0-4.8c0-0.2,0-0.5,0-0.7c-0.5,0-0.9,0-1.4,0
		c0,1.9,0,3.7,0,5.5c0,2,1.2,3.2,3.2,3.4c1.9,0.1,4-0.8,3.9-3.6c-0.1-1.1,0-2.1,0-3.2c0-0.7,0-1.3,0-2c-0.5,0-0.9,0-1.4,0
		c0,0.3,0,0.5,0,0.8c0,1.6,0,3.2,0,4.8C2707.5,58.1,2706.7,58.8,2705.4,58.8z"/>
	<path class="st0" d="M2672.5,122.8c1.3-0.4,2.2-1.6,2.2-3.1c-1.1-0.2-1.1-0.2-1.6,0.8c-0.4,0.8-1,1.2-1.8,1.2s-1.5-0.4-1.9-1.1
		c-0.7-1.4-0.6-2.9,0-4.3c0.4-0.9,1.2-1.2,2.2-1.1c0.9,0.1,1.4,0.6,1.7,1.4c0,0.1,0.1,0.3,0.2,0.4c0.3,0,0.6,0,0.8,0
		c0.1,0,0.3,0,0.5,0c-0.2-1.5-0.7-2.4-1.7-2.8c-1.5-0.7-3.5-0.2-4.6,1c-1.4,1.6-1.5,4.7-0.3,6.4
		C2669.2,122.8,2670.9,123.3,2672.5,122.8z"/>
	<path class="st0" d="M2699.9,150c0.4,0.8,0.6,0.9,1.6,0.6c-0.2-1.2-0.5-2.2-1.7-2.7c-1.6-0.7-3.7-0.2-4.7,1.2
		c-1.2,1.6-1.3,4.5-0.2,6.1c0.9,1.3,2.6,1.9,4.3,1.4c1.3-0.4,2.2-1.6,2.2-3c-1.1-0.2-1.1-0.2-1.6,0.8c-0.7,1.5-2.6,1.6-3.5,0.3
		c-0.8-1.2-0.8-3.7,0.1-4.9C2697.3,148.5,2699.3,148.7,2699.9,150z"/>
	<path class="st0" d="M2710.8,43.1c2.2,0,3.6-1.1,3.6-3.2c0-1.7,0-3.4,0-5c0-0.2,0-0.4,0-0.6c-0.5,0-0.9,0-1.4,0c0,1.9,0,3.6,0,5.4
		c0,1.4-0.8,2.2-2.1,2.1c-1.3,0-2-0.8-2-2.1c0-1.6,0-3.1,0-4.7c0-0.2,0-0.5,0-0.7c-0.5,0-1,0-1.4,0c0,1.9,0,3.7,0,5.5
		C2707.5,41.8,2708.7,43.1,2710.8,43.1z"/>
	<path class="st0" d="M2709.8,147.9c-0.5,0-0.9,0-1.4,0c0,0.7,0,1.3,0,1.9c0,1.3,0,2.5,0,3.8c-0.1,1.2-0.9,1.9-2.2,1.8
		c-1.2,0-1.9-0.8-1.9-2c0-0.8,0-1.6,0-2.4c0-1.1,0-2.1,0-3.2c-0.5,0-0.9,0-1.4,0c0,1.8,0,3.7,0,5.5c0,2.1,1.3,3.4,3.5,3.4
		s3.5-1.3,3.5-3.4c0-1.6,0-3.2,0-4.8C2709.8,148.3,2709.8,148.1,2709.8,147.9z"/>
	<path class="st0" d="M2726.6,147.9c-0.4,0-0.9,0-1.4,0c0,0.8,0,1.4,0,2.1c0,1.3,0,2.5-0.1,3.8c-0.1,1.1-0.9,1.7-2,1.7
		c-1.2,0-1.9-0.6-2-1.7c-0.1-0.4,0-0.8,0-1.2c0-1.6,0-3.1,0-4.7c-0.5,0-0.9,0-1.4,0c0,0.1-0.1,0.1-0.1,0.2c0,1.7,0,3.4,0,5.1
		c0,0.3,0,0.7,0.1,1c0.3,1.7,1.8,2.7,3.8,2.5c1.8-0.1,3.1-1.3,3.1-3c0.1-1.9,0-3.7,0-5.6C2726.6,148.1,2726.6,148,2726.6,147.9z"/>
	<path class="st0" d="M2666.4,58.4c0,0.5,0,0.9,0,1.3c1.3,0,2.6,0,3.9,0c0-0.5,0-0.9,0-1.3c-0.4,0-0.7-0.1-1.1-0.1c0-3,0-6,0-9
		c0.4,0,0.7-0.1,1.1-0.1c0-0.5,0-0.9,0-1.3c-1.3,0-2.6,0-3.9,0c0,0.5,0,0.9,0,1.3c0.4,0,0.7,0.1,1.1,0.1c0,3,0,6,0,9
		C2667.1,58.4,2666.8,58.4,2666.4,58.4z"/>
	<path class="st0" d="M2697.9,59.7c0.5,0,1,0,1.5,0c0-2.5,0-4.9,0-7.4c0.5,0,0.9,0,1.3,0c0-0.4,0-0.7,0-1.1c-0.4,0-0.8-0.1-1.3-0.1
		c0-0.8,0-1.6,0-2.3c-0.5,0-0.9,0-1.5,0c0,0.8,0,1.5,0,2.3c-0.4,0-0.8,0.1-1.1,0.1c0,0.4,0,0.8,0,1.1c0.4,0,0.7,0,1.1,0.1
		C2697.9,54.9,2697.9,57.3,2697.9,59.7z"/>
	<path class="st0" d="M2717.9,147.9c-0.6,0.1-0.8-0.2-0.7-0.7c0-0.5,0-1.1,0-1.6c-0.6,0-1,0-1.5,0c0,0.8,0,1.6,0,2.3
		c-0.4,0-0.8,0.1-1.1,0.1c0,0.4,0,0.7,0,1.1c0.4,0,0.7,0,1.1,0.1c0,2.5,0,4.9,0,7.4c0.5,0,0.9,0,1.5,0c0-2.5,0-4.9,0-7.4
		c0.5,0,0.9-0.1,1.3-0.1c0-0.4,0-0.7,0-1.1C2718.3,147.9,2718.1,147.9,2717.9,147.9z"/>
	<path class="st0" d="M2674.6,42.8c0.5,0,0.9,0,1.4,0c0-2.5,0-4.9,0-7.4c0.5,0,0.9,0,1.4,0c0-0.4,0-0.7,0-1.1c-0.5,0-0.9,0-1.4-0.1
		c0-0.8,0-1.5,0-2.3c-0.5,0-0.9,0-1.5,0c0,0.8,0,1.5,0,2.3c-0.4,0-0.8,0.1-1.1,0.1c0,0.4,0,0.7,0,1.1c0.4,0,0.7,0.1,1.1,0.1
		C2674.6,38,2674.6,40.4,2674.6,42.8z"/>
	<path class="st0" d="M2711.8,122.7c0-2.5,0-4.9,0-7.4c0.5,0,0.9,0,1.3,0c0-0.4,0-0.8,0-1.1c-0.5,0-0.9-0.1-1.4-0.1
		c0-0.8,0-1.6,0-2.3c-0.5,0-0.9,0-1.4,0c0,0.8,0,1.5,0,2.3c-0.4,0-0.8,0.1-1.1,0.1c0,0.4,0,0.8,0,1.2c0.4,0,0.7,0,1.2,0
		c0,2.5,0,4.9,0,7.4C2710.9,122.7,2711.3,122.7,2711.8,122.7z"/>
	<path class="st0" d="M2690.6,122.7c0-2.5,0-4.9,0-7.4c0.5,0,0.9,0,1.3,0c0-0.4,0-0.7,0-1.1c-0.5,0-0.9-0.1-1.4-0.1
		c0-0.8,0-1.6,0-2.3c-0.5,0-0.9,0-1.5,0c0,0.8,0,1.6,0,2.4c-0.4,0-0.8,0-1.1,0.1c0,0.4,0,0.8,0,1.1c0.4,0,0.7,0,1.2,0.1
		c0,2.5,0,4.9,0,7.3C2689.6,122.7,2690,122.7,2690.6,122.7z"/>
	<path class="st0" d="M2721.7,59.7c0-2.5,0-4.9,0-7.4c0.5,0,0.9,0,1.3,0c0-0.4,0-0.8,0-1.1c-0.4,0-0.9-0.1-1.3-0.1
		c0-0.8,0-1.5,0-2.3c-0.5,0-0.9,0-1.4,0c0,0.8,0,1.6,0,2.3c-0.4,0-0.8,0.1-1.1,0.1c0,0.4,0,0.8,0,1.1c0.4,0,0.7,0,1.1,0.1
		c0,2.5,0,4.9,0,7.4C2720.7,59.7,2721.1,59.7,2721.7,59.7z"/>
	<path class="st0" d="M2690.7,59.7c0-2.5,0-4.9,0-7.4c0.5,0,0.9,0,1.4,0c0-0.4,0-0.8,0-1.2c-0.5,0-0.9,0-1.4-0.1c0-0.8,0-1.5,0-2.3
		c-0.5,0-0.9,0-1.4,0c0,0.8,0,1.6,0,2.3c-0.4,0-0.8,0.1-1.1,0.1c0,0.4,0,0.8,0,1.1c0.4,0,0.7,0,1.1,0.1c0,2.5,0,4.9,0,7.4
		C2689.8,59.7,2690.2,59.7,2690.7,59.7z"/>
	<path class="st0" d="M2675.5,145.5c-0.5,0-0.9,0-1.4,0c0,0.8,0,1.5,0,2.3c-0.4,0-0.8,0.1-1.1,0.1c0,0.4,0,0.7,0,1.1
		c0.4,0,0.7,0.1,1.1,0.1c0,2.5,0,4.9,0,7.4c0.5,0,0.9,0,1.5,0c0-2.5,0-4.9,0-7.4c0.5,0,0.9-0.1,1.3-0.1c0-0.4,0-0.7,0-1.1
		c-0.4,0-0.8-0.1-1.4-0.1C2675.5,147,2675.5,146.3,2675.5,145.5z"/>
	<path class="st0" d="M2711.9,156.5c0.5,0,0.9,0,1.4,0c0-4,0-7.8,0-11.8c-0.5,0-0.9,0-1.4,0C2711.9,148.7,2711.9,152.6,2711.9,156.5
		z"/>
	<path class="st0" d="M2687.2,156.5c0.5,0,0.9,0,1.3,0c0-3.9,0-7.8,0-11.7c-0.5,0-0.9,0-1.3,0
		C2687.2,148.7,2687.2,152.6,2687.2,156.5z"/>
	<path class="st0" d="M2724.8,115.5c0-0.5,0-0.9-0.1-1.3c-0.4,0-0.8,0-1.3,0c0,2.9,0,5.7,0,8.6c0.5,0,0.9,0,1.4,0c0-0.3,0-0.6,0-0.9
		c0-1.5,0-2.9,0.1-4.4c0.1-1.3,0.9-2,2.2-2c0.2,0,0.3,0,0.5,0c0-0.5,0-1,0-1.5C2726.3,113.7,2725.6,114.5,2724.8,115.5z"/>
	<path class="st0" d="M2662.9,114.1c0,2.9,0,5.7,0,8.6c0.5,0,0.9,0,1.4,0c0-1.5,0-3,0-4.5c0-1.9,0.6-2.6,2.6-2.8c0,0,0.1,0,0.1-0.1
		c0-0.4,0-0.9,0-1.4c-1.3-0.2-2.1,0.5-2.8,1.4c0-0.4,0-0.8,0-1.2C2663.8,114.1,2663.4,114.1,2662.9,114.1z"/>
	<path class="st0" d="M2730.1,149.1c0-0.4,0-0.7-0.1-1.1c-0.5,0-0.9,0-1.3,0c0,2.9,0,5.7,0,8.5c0.5,0,0.9,0,1.4,0c0-0.2,0-0.4,0-0.6
		c0-1.4,0-2.9,0-4.3c0-1.4,0.9-2.3,2.3-2.4c0.1,0,0.3,0,0.4,0c0-0.5,0-1,0-1.6c-0.6,0.2-1.1,0.3-1.6,0.5
		C2730.8,148.3,2730.5,148.7,2730.1,149.1z"/>
	<path class="st0" d="M2698,139.6c0.5,0,0.9,0,1.4,0c0-2.9,0-5.7,0-8.6c-0.5,0-0.9,0-1.4,0C2698,133.9,2698,136.8,2698,139.6z"/>
	<path class="st0" d="M2670.2,156.5c0.5,0,0.9,0,1.3,0c0-2.9,0-5.7,0-8.5c-0.5,0-0.9,0-1.3,0
		C2670.2,150.8,2670.2,153.6,2670.2,156.5z"/>
	<path class="st0" d="M2696.3,42.8c0-2.9,0-5.7,0-8.5c-0.5,0-0.9,0-1.4,0c0,2.9,0,5.7,0,8.5C2695.4,42.8,2695.9,42.8,2696.3,42.8z"
		/>
	<path class="st0" d="M2686.6,122.7c0-2.9,0-5.7,0-8.6c-0.5,0-0.9,0-1.3,0c0,2.9,0,5.7,0,8.6
		C2685.7,122.7,2686.1,122.7,2686.6,122.7z"/>
	<path class="st0" d="M2695,59.7c0-2.9,0-5.7,0-8.5c-0.5,0-0.9,0-1.3,0c0,2.9,0,5.7,0,8.5C2694.1,59.7,2694.5,59.7,2695,59.7z"/>
	<path class="st0" d="M2657.7,156.5c0.5,0,0.9,0,1.3,0c0-2.9,0-5.7,0-8.5c-0.5,0-0.9,0-1.3,0
		C2657.7,150.8,2657.7,153.6,2657.7,156.5z"/>
	<path class="st0" d="M2699.4,127.8c-0.5,0-0.9,0-1.4,0c0,0.5,0,1.1,0,1.6c0.5,0,0.9,0,1.4,0
		C2699.4,128.8,2699.4,128.3,2699.4,127.8z"/>
	<path class="st0" d="M2696.3,31.1c-0.5,0-0.9,0-1.4,0c0,0.5,0,1,0,1.5c0.5,0,0.9,0,1.4,0C2696.3,32.1,2696.3,31.6,2696.3,31.1z"/>
	<path class="st0" d="M2670.2,146.2c0.5,0,0.9,0,1.4,0c0-0.5,0-1,0-1.5c-0.5,0-0.9,0-1.4,0C2670.2,145.2,2670.2,145.7,2670.2,146.2z
		"/>
	<path class="st0" d="M2686.6,110.9c-0.5,0-0.9,0-1.4,0c0,0.5,0,1,0,1.6c0.5,0,0.9,0,1.4,0C2686.6,112,2686.6,111.5,2686.6,110.9z"
		/>
	<path class="st0" d="M2695,48c-0.5,0-0.9,0-1.3,0c0,0.5,0,1,0,1.6c0.5,0,0.9,0,1.3,0C2695,49,2695,48.5,2695,48z"/>
	<path class="st0" d="M2659,144.7c-0.5,0-0.9,0-1.4,0c0,0.5,0,1,0,1.5c0.4,0,0.9,0,1.4,0C2659,145.7,2659,145.2,2659,144.7z"/>
</g>
</svg>
