<svg id="cf83bc2f-44ed-4739-8753-3fa510f3ff3d" data-name="Layer 1" xmlns="http://www.w3.org/2000/svg" viewBox="0 0 585.66 96.68"><defs><style>.b3daa92d-b020-4ee7-91a6-ba11f6d13fd3{fill:#fff;}</style></defs><title>Artboard 1method-friction</title><path class="b3daa92d-b020-4ee7-91a6-ba11f6d13fd3" d="M3.29,6.47H7.67v5H3.29Zm0,37.07H7.67v5H3.29ZM11.39,16h-.65V48.52H8.45V6.47h2.81L29.9,41.15l-2.16,5.69Zm0,27.56h4.45v5H11.39Zm30.47-32h-.65L30.55,39.4,12.77,6.47h5.62L31.07,30h.65l9-23.55H46.5V48.52H41.86Zm-5.23,32H41v5H36.63Zm11.38,5V6.47h4.38V48.52ZM53.24,6.47h4.38v5H53.24Zm0,37.07h4.38v5H53.24Z"/><path class="b3daa92d-b020-4ee7-91a6-ba11f6d13fd3" d="M88.8,33.25a24.5,24.5,0,0,0,.2-3c0-5.18-1.83-9.12-4.12-11.45l-.85.91c2,1.94,3.47,5.89,3.47,10.61a23.49,23.49,0,0,1-.2,3H70.56C70.82,42.44,74.94,47,82.07,47a29.07,29.07,0,0,0,10.85-2.33l.2,2.2A41.3,41.3,0,0,1,79.39,49.3c-11.25,0-19.81-4-19.81-16.76,0-10.8,7.26-17.73,17.85-17.73,10.07,0,16.41,6.4,16.41,16.17,0,.71-.07,1.49-.13,2.26ZM70.36,44.06c-3.14-2.85-4.77-6.47-4.77-12.68,0-4.85,1-9.06,4-11.45l-.72-.84c-3.27,2.39-4.77,6.6-4.77,12.16,0,6.66,1.57,10.61,5.56,13.78ZM82.59,31c.07-.71.07-1.49.07-2.33,0-5.11-1.18-11.65-5.49-11.65-5.88,0-6.54,7.31-6.6,14Z"/><path class="b3daa92d-b020-4ee7-91a6-ba11f6d13fd3" d="M108.54,45c-1.44-1.88-1.57-3.75-1.57-7.89V7.38h4.45v8.41h10.53V18H111.42V43.8c0,2.52,2.16,3.23,4.64,3.23a23.25,23.25,0,0,0,5.69-.91l.52,2.13a36,36,0,0,1-9.28,1c-6,0-12-1.88-12-10.16V18H96.25v-2.2H101V7.38h4.45V37.14c0,4.79,0,6.6,2.29,8.67Z"/><path class="b3daa92d-b020-4ee7-91a6-ba11f6d13fd3" d="M123.9,1.29h4.38v5H123.9Zm0,42.25h4.38v5H123.9Zm5-42.25h4.45V48.52h-4.45Zm6,47.23V1.29h4.45v19.8c4.05-4.4,7.78-6.28,13.14-6.28,7.19,0,11.44,3.36,11.44,11.13V48.52h-4.45V28.27c0-4.72,0-8.48-3.2-10.8l-.79.78c2.48,2.33,2.48,6.15,2.48,9.7V48.52h-4.45V24.59c0-5.11-1-7.57-4.05-7.57-3.66,0-7.58,3.36-10.13,6.34V48.52Zm5-5h4.38v5h-4.38Zm8.7,0h4.38v5h-4.38Zm15.89,0h4.38v5h-4.38Z"/><path class="b3daa92d-b020-4ee7-91a6-ba11f6d13fd3" d="M189.15,14.82c10.53,0,18.9,5.56,18.9,16.89,0,10.8-7.26,17.6-19.09,17.6-12.23,0-18.7-6.15-18.7-16.89C170.26,20.64,178.69,14.82,189.15,14.82Zm-8.89,29.24c-3-2.91-4-6.66-4-12.23,0-4.85,1.37-9.58,4.18-12l-.72-.84c-3.14,2.52-5,7.18-5,12.75,0,6,.92,10.09,4.77,13.33Zm8.83,3c5.56,0,8-3.62,8-15.07S194.77,17,189.09,17s-7.85,3.75-7.85,15.33C181.24,43.54,183.66,47,189.09,47Zm8.57-27.24c3,2.91,4,6.79,4,12.36,0,4.85-1.37,9.58-4.18,12l.79.91c3.14-2.52,4.9-7.25,4.9-12.81,0-6-.92-10.09-4.77-13.33Z"/><path class="b3daa92d-b020-4ee7-91a6-ba11f6d13fd3" d="M237.6,1.29h4.51V48.52h-3.86v-5a14.15,14.15,0,0,1-12,5.82c-8.11,0-14.78-5.31-14.78-16.43S218.18,14.82,228,14.82A15,15,0,0,1,237.6,18ZM222.69,44.9c-3.53-2.85-5.23-7-5.23-13.52,0-5.5,1.9-9.19,4.9-11.84l-.85-.91C218.37,21.16,216,25.1,216,31.25c0,7.05,1.7,11.45,6,14.62Zm-.2-13.07c0,8.28,2.35,14.36,7.71,14.36,3.4,0,5.75-2.59,7.39-5.24V21.29c-2.48-2.72-5.23-3.95-7.52-3.95C225.43,17.34,222.49,22.58,222.49,31.83ZM232.56,1.29h4.38v5h-4.38Zm11,47.23V1.29H248V48.52Zm5-5H253v5h-4.38Z"/><path class="b3daa92d-b020-4ee7-91a6-ba11f6d13fd3" d="M267.6,38.5c0-4.21,2-8.6,8.7-11.06-4.45-4.85-5.88-7.83-5.88-11.06,0-6.6,5.88-10.68,12.49-10.68,5.17,0,11.18,2.52,11.18,9.64,0,6.73-5.36,10.35-13.53,12.94,3.07,3.11,7.19,6.92,12.75,11.84a24.55,24.55,0,0,0,3.2-11.39V27.17h8v2.46H299a25.61,25.61,0,0,1-4,12.1l7.71,6.79h-3.92l-5.36-4.85a15.34,15.34,0,0,1-12.55,5.63C272.83,49.3,267.6,45.29,267.6,38.5ZM277.8,29c-6,2.33-7.32,6-7.32,9.19,0,5.5,3.92,8.6,10.72,8.6,4.9,0,8-1.62,10.59-4.59-5.88-5.31-10.46-9.51-13.86-13.07A.14.14,0,0,1,277.8,29Zm5-20.77c-4.38,0-9.68,2-9.68,8,0,3.3,1.63,5.89,5.88,10.42,7.13-2.85,12.29-5,12.29-10.93C291.27,11,287.87,8.22,282.77,8.22Z"/><path class="b3daa92d-b020-4ee7-91a6-ba11f6d13fd3" d="M357.69,19.22h-2.88c0-5.31-3.4-11.26-9.22-11.26C340.37,8,330.88,9.83,330.88,26c0,15.79,8,20.9,14.58,20.9H346c6.6-.32,9-6.54,9-11.9h2.88V46.78a41.92,41.92,0,0,1-14.51,2.52c-14.32,0-23.54-5-23.54-19.41,0-14.56,9.48-24.2,24.85-24.2a49,49,0,0,1,13.08,1.75Z"/><path class="b3daa92d-b020-4ee7-91a6-ba11f6d13fd3" d="M376,34.87c0,7.38,0,10.8,5.3,10.8v2.85h-21V45.68c4.64,0,5.3-2.59,5.3-8.22V26.85c0-5.56-.72-8.22-5.36-8.22V15.79H376v7.38c2.75-5.11,6.15-8.09,11.12-8.09a14.43,14.43,0,0,1,1.63.06V29.5h-2.88c0-2.2-.78-5.18-3.6-5.18A6.92,6.92,0,0,0,376,27.76Z"/><path class="b3daa92d-b020-4ee7-91a6-ba11f6d13fd3" d="M411.62,48.52h-21V45.68c4.51,0,5.3-2.46,5.3-7.76V29.44c0-7.37-.07-10.8-5.36-10.8V15.79h15.76v22.9c.13,4.79,1,7,5.3,7ZM398.74,0h4.18V11.13h-4.18Z"/><path class="b3daa92d-b020-4ee7-91a6-ba11f6d13fd3" d="M412.15,18l.2-1.55,4.77-3.11,9.09-7.18,1.31-.06v9.71H438l-.2,2.2H427.51V39.66c0,3.36.78,5.82,4.84,5.82a21.37,21.37,0,0,0,5.49-1l.52,1.81a18.06,18.06,0,0,1-10,3c-5.82,0-11.25-1.75-11.25-9.58V18Z"/><path class="b3daa92d-b020-4ee7-91a6-ba11f6d13fd3" d="M461.31,48.52h-21V45.68c4.51,0,5.3-2.46,5.3-7.76V29.44c0-7.37-.07-10.8-5.36-10.8V15.79H456v22.9c.13,4.79,1,7,5.3,7ZM448.43,0h4.18V11.13h-4.18Z"/><path class="b3daa92d-b020-4ee7-91a6-ba11f6d13fd3" d="M484.13,61.79V58.94c4.51,0,5.3-2.46,5.3-7.76V40.11a13,13,0,0,1-12.75,9.19c-6.41,0-13.47-5.11-13.47-15.92,0-10,6.34-18.57,19-18.57a36.41,36.41,0,0,1,8.11,1h15.5v2.85c-5.3,0-6,3.43-6,10.8V52c.13,4.72,1,7,5.3,7v2.85Zm-9.94-31.64c0,6.73,4,10.35,8.7,10.35a17.13,17.13,0,0,0,6.54-1.36V19.41a11.69,11.69,0,0,0-6-1.94C477.91,17.47,474.19,23,474.19,30.15Z"/><path class="b3daa92d-b020-4ee7-91a6-ba11f6d13fd3" d="M544.93,15.79V34.87c0,7.38.07,10.8,5.36,10.8v2.85H534.53V40.76c-3.2,5.56-8.7,8.54-13.6,8.54-5.88,0-11-3.69-11-12.55V26.4h-.07c-.07-5.3-.79-7.76-5.3-7.76V15.79h13v.06h2.75V35.2c0,4.66,3.14,6.21,7.06,6.21A18.26,18.26,0,0,0,534.53,40V26.4c-.07-5.3-.85-7.76-5.36-7.76V15.79Z"/><path class="b3daa92d-b020-4ee7-91a6-ba11f6d13fd3" d="M585.33,40.31c-2.88,6.08-9.35,9-15.76,9-10,0-17.52-5.37-17.52-15.4,0-11,7.58-19.09,17.52-19.09,11,0,16.08,6,16.08,14A18.46,18.46,0,0,1,585.4,32l-22.1.78c1.11,5.63,5.49,8.28,11.18,8.28a26.74,26.74,0,0,0,10.13-2.26Zm-11-10.16a23.4,23.4,0,0,0,.39-4.21c0-4.66-1.63-8.48-5.56-8.48-4.77,0-6.08,6.34-6.08,12.36v.91Z"/><path class="b3daa92d-b020-4ee7-91a6-ba11f6d13fd3" d="M0,71.68l22.52-.05,0,8.1L16.66,73,9.17,73l0,12.21,13,0v1.29l-13,0,0,7.23,3,2.66L.06,96.4l3-2.78L3,74.49Z"/><path class="b3daa92d-b020-4ee7-91a6-ba11f6d13fd3" d="M24.73,71.62l13.92,0c6.58,0,9.29,3.1,9.3,7.13,0,3.27-1.74,5.63-5.43,6v.42a42.49,42.49,0,0,1,2.75,4.79l2.06,3.84,3.58,2.5-12.21,0,1.75-2.13-3.86-8.4H33.93l0,7.87,3,2.66-12.21,0,3-2.78,0-19.13ZM36.21,84.45c5.21,0,5.28-3.78,5.28-5.38,0-2.24-.17-6.2-5.19-6.19H33.9l0,11.56Z"/><path class="b3daa92d-b020-4ee7-91a6-ba11f6d13fd3" d="M51.44,71.56l12.21,0-3,2.67,0,19.4,3,2.66-12.21,0,3-2.78,0-19.13Z"/><path class="b3daa92d-b020-4ee7-91a6-ba11f6d13fd3" d="M79.87,95.27l7-8.19,0,8.1a20.47,20.47,0,0,1-7.79,1.5c-8.33,0-13.7-4.08-13.72-12.52S70.88,71.06,79.32,71a25.78,25.78,0,0,1,7.46,1l0,7.72-6.71-7.33c-3.92.35-8.25,2.72-8.23,11.32C71.88,92.13,76,94.82,79.87,95.27Z"/><path class="b3daa92d-b020-4ee7-91a6-ba11f6d13fd3" d="M89,80.34l0-8.86,22.71-.05,0,8.86-6-7.52h-2.32l0,20.73,3,2.66-12.21,0,3-2.78,0-20.62H94.89Z"/><path class="b3daa92d-b020-4ee7-91a6-ba11f6d13fd3" d="M113,71.42l12.21,0-3,2.67,0,19.4,3,2.66-12.21,0,3-2.78,0-19.13Z"/><path class="b3daa92d-b020-4ee7-91a6-ba11f6d13fd3" d="M140.2,70.9c7.72,0,13.36,4.53,13.38,12.6,0,8.33-5.94,13-13.32,13s-13.32-4.31-13.34-12.67C126.89,76.07,132.86,70.92,140.2,70.9Zm.05,24.31c4.3,0,6.88-3.33,6.86-11.69,0-8.71-2.61-11.29-6.91-11.28s-6.84,3.55-6.82,11.62C133.4,92.22,136,95.22,140.25,95.21Z"/><path class="b3daa92d-b020-4ee7-91a6-ba11f6d13fd3" d="M155.23,71.33l9.7,0,14,19.45h.23l0-14.57-6.67-4.89,12.21,0-4.21,4.88,0,19.86h-5.36L161.36,76.37h-.23l0,14.8L167.5,96l-12.21,0,4.55-4.88,0-16.28Z"/><path class="b3daa92d-b020-4ee7-91a6-ba11f6d13fd3" d="M187.26,88.26l6.86,6.83H195c5.21,0,5.21-2.6,5.2-4.27,0-7.11-13.47-3.51-13.49-12.18,0-4.68,3.86-7.84,10.06-7.86a33.63,33.63,0,0,1,8.41,1l0,7.34-6.71-7c-.46,0-.87,0-1.29,0-4.11,0-4.64,2.41-4.63,3.7,0,6.35,14,3,14.07,12.9,0,6.28-5.65,7.7-11.47,7.71a23.19,23.19,0,0,1-7.92-1.2Z"/><path class="b3daa92d-b020-4ee7-91a6-ba11f6d13fd3" d="M213.72,95.92l4.33-4.38,6.12-18.39-2.89-2,10.19,0,7.62,22.35,2.74,2.35-12.21,0,2.88-2.63-1.61-5.09-10.46,0-1,3.16,5.75,4.55Zm7.17-9.07,9.59,0-3.79-12-1.56-1Z"/><path class="b3daa92d-b020-4ee7-91a6-ba11f6d13fd3" d="M241.48,71.13l9.7,0,14,19.44h.23l0-14.57-6.67-4.89,12.21,0-4.21,4.88,0,19.86h-5.36L247.62,76.17h-.23l0,14.8,6.33,4.85-12.21,0L246.09,91l0-16.28Z"/><path class="b3daa92d-b020-4ee7-91a6-ba11f6d13fd3" d="M272.45,71.06,287,71c8,0,12.45,4.19,12.47,12.33S294.8,95.74,287,95.75l-14.53,0,3-2.78,0-19.13Zm12,23.41c5.14,0,8.9-1.77,8.88-11.09,0-8-3-11.06-8.93-11h-2.74l0,22.14Z"/><path class="b3daa92d-b020-4ee7-91a6-ba11f6d13fd3" d="M310.23,88l6.86,6.83H318c5.21,0,5.21-2.6,5.2-4.27,0-7.11-13.47-3.51-13.49-12.18,0-4.68,3.86-7.84,10.06-7.86a33.67,33.67,0,0,1,8.41,1l0,7.34-6.71-7c-.46,0-.87,0-1.29,0-4.11,0-4.64,2.41-4.63,3.7,0,6.35,14,3,14.07,12.9,0,6.28-5.65,7.7-11.47,7.71a23.22,23.22,0,0,1-7.92-1.2Z"/><path class="b3daa92d-b020-4ee7-91a6-ba11f6d13fd3" d="M343.88,95.62l-12.21,0,3-2.78,0-19.13-3-2.81,12.21,0-3,2.67,0,8.22,10.8,0,0-8.06-3-2.81,12.21,0-3,2.67,0,19.4,3,2.66-12.21,0,3-2.79,0-9.74-10.8,0,0,9.85Z"/><path class="b3daa92d-b020-4ee7-91a6-ba11f6d13fd3" d="M362.51,70.85l12.21,0-3,2.67,0,19.4,3,2.66-12.21,0,3-2.78,0-19.13Z"/><path class="b3daa92d-b020-4ee7-91a6-ba11f6d13fd3" d="M376.47,70.82,399,70.77l0,8.1-5.87-6.76-7.49,0,0,12.21,13,0v1.29l-13,0,0,7.23,3,2.66-12.21,0,3-2.78,0-19.13Z"/><path class="b3daa92d-b020-4ee7-91a6-ba11f6d13fd3" d="M400.8,79.63l0-8.86,22.71-.05,0,8.86-6-7.52H415.2l0,20.73,3,2.66-12.21,0,3-2.78,0-20.62h-2.36Z"/><path class="b3daa92d-b020-4ee7-91a6-ba11f6d13fd3" d="M425.89,87.72l6.86,6.83h.91c5.21,0,5.21-2.6,5.2-4.27,0-7.11-13.47-3.51-13.49-12.18,0-4.68,3.86-7.84,10.06-7.86a33.62,33.62,0,0,1,8.41,1l0,7.34-6.71-7c-.46,0-.87,0-1.29,0-4.11,0-4.64,2.41-4.63,3.7,0,6.35,14,3,14.07,12.9,0,6.28-5.65,7.7-11.47,7.71a23.22,23.22,0,0,1-7.92-1.2Z"/><path class="b3daa92d-b020-4ee7-91a6-ba11f6d13fd3" d="M454.88,70.64l12.21,0-3,2.67,0,19.4,3,2.66-12.21,0,3-2.78,0-19.13Z"/><path class="b3daa92d-b020-4ee7-91a6-ba11f6d13fd3" d="M468.85,70.61l9.7,0,14,19.45h.23l0-14.57-6.67-4.89,12.21,0-4.21,4.88,0,19.86H488.8L475,75.66h-.23l0,14.8,6.33,4.85-12.21,0,4.55-4.88,0-16.28Z"/><path class="b3daa92d-b020-4ee7-91a6-ba11f6d13fd3" d="M507.43,70.53l13.92,0c6.58,0,9.29,3.1,9.3,7.13,0,3.27-1.74,5.63-5.43,6v.42A42.49,42.49,0,0,1,528,88.85L530,92.69l3.58,2.5-12.21,0,1.75-2.13-3.86-8.4h-2.66l0,7.87,3,2.66-12.21,0,3-2.78,0-19.13ZM518.9,83.36c5.21,0,5.28-3.78,5.28-5.38,0-2.24-.17-6.2-5.19-6.19h-2.4l0,11.56Z"/><path class="b3daa92d-b020-4ee7-91a6-ba11f6d13fd3" d="M533.47,79.33l0-8.86,22.71-.05,0,8.86-6-7.52h-2.32l0,20.73,3,2.66-12.21,0,3-2.78,0-20.62h-2.36Z"/><path class="b3daa92d-b020-4ee7-91a6-ba11f6d13fd3" d="M557.5,70.41l14.53,0c8,0,12.45,4.19,12.47,12.33s-4.65,12.37-12.41,12.39l-14.53,0,3-2.78,0-19.13Zm12,23.41c5.14,0,8.9-1.77,8.88-11.09,0-8-3-11.06-8.93-11h-2.74l0,22.14Z"/></svg>