<svg id="f5d9493a-737e-4726-92ff-57ba04534272" data-name="Capa 1" xmlns="http://www.w3.org/2000/svg" viewBox="0 0 60 60"><defs><style>.a9afe275-7009-4ddf-b295-f562845870d8{fill:blue;}</style></defs><title>Artboard 1</title><path class="a9afe275-7009-4ddf-b295-f562845870d8" d="M42.5,22h-25a1,1,0,0,0,0,2h25a1,1,0,0,0,0-2Z"/><path class="a9afe275-7009-4ddf-b295-f562845870d8" d="M17.5,16h10a1,1,0,0,0,0-2h-10a1,1,0,0,0,0,2Z"/><path class="a9afe275-7009-4ddf-b295-f562845870d8" d="M42.5,30h-25a1,1,0,0,0,0,2h25a1,1,0,0,0,0-2Z"/><path class="a9afe275-7009-4ddf-b295-f562845870d8" d="M42.5,38h-25a1,1,0,0,0,0,2h25a1,1,0,0,0,0-2Z"/><path class="a9afe275-7009-4ddf-b295-f562845870d8" d="M42.5,46h-25a1,1,0,0,0,0,2h25a1,1,0,0,0,0-2Z"/><path class="a9afe275-7009-4ddf-b295-f562845870d8" d="M38.91,0H6.5V60h47V14.59Zm.59,3.41L50.09,14H39.5ZM8.5,58V2h29V16h14V58Z"/></svg>