<svg id="fd332e30-2418-4c54-8476-322aa954b0d2" data-name="Capa 1" xmlns="http://www.w3.org/2000/svg" viewBox="0 0 60 60"><defs><style>.bac87724-0b5b-45a9-9c8e-bd2050ed3e78{fill:blue;}</style></defs><title>Artboard 1</title><path class="bac87724-0b5b-45a9-9c8e-bd2050ed3e78" d="M38.91,0H6.5V60h47V14.59ZM17.5,14h10a1,1,0,0,1,0,2h-10a1,1,0,0,1,0-2Zm25,34h-25a1,1,0,0,1,0-2h25a1,1,0,0,1,0,2Zm0-8h-25a1,1,0,0,1,0-2h25a1,1,0,0,1,0,2Zm0-8h-25a1,1,0,0,1,0-2h25a1,1,0,0,1,0,2Zm0-8h-25a1,1,0,0,1,0-2h25a1,1,0,0,1,0,2Zm-5-8V2l14,14Z"/></svg>