<svg id="d840229a-d56a-4f5f-b192-f395f7ab2a98" data-name="Layer 1" xmlns="http://www.w3.org/2000/svg" viewBox="0 0 52.36 43.64"><defs><style>.\34 bd39785-fcbd-4a45-8051-21d9aefae844{fill:blue;}</style></defs><title>Artboard 1twitter</title><path id="fc3929eb-c380-4310-9839-ac1ea11288fb" data-name="Twitter" class="4bd39785-fcbd-4a45-8051-21d9aefae844" d="M50.92.81a21.16,21.16,0,0,1-6.83,2.67A10.59,10.59,0,0,0,36.25,0,10.88,10.88,0,0,0,25.51,11a11.24,11.24,0,0,0,.28,2.51A30.25,30.25,0,0,1,3.65,2,11.22,11.22,0,0,0,2.19,7.55,11.09,11.09,0,0,0,7,16.72,10.55,10.55,0,0,1,2.1,15.35v.14a11,11,0,0,0,8.62,10.8,10.24,10.24,0,0,1-2.83.39,10.44,10.44,0,0,1-2-.2,10.78,10.78,0,0,0,10,7.65A21.21,21.21,0,0,1,2.56,38.84,21.5,21.5,0,0,1,0,38.69a29.91,29.91,0,0,0,16.47,4.95C36.23,43.64,47,26.85,47,12.3c0-.48,0-1,0-1.43a22.05,22.05,0,0,0,5.36-5.7A21,21,0,0,1,46.2,6.9,11,11,0,0,0,50.92.81Z"/></svg>